<?xml version="1.0" encoding="UTF-8"?>
<svg viewBox="0 0 50 50" version="1.1" xmlns="http://www.w3.org/2000/svg" xmlns:xlink="http://www.w3.org/1999/xlink">
    <g stroke="none" stroke-width="1" fill="none" fill-rule="evenodd" stroke-linejoin="round">
        <g transform="translate(1.000000, 1.000000)" stroke="#000" class="stroke" stroke-width="2.16">
            <path d="M35.602328,24.0529034 C35.602328,30.4318056 30.4320899,35.6020437 24.0503439,35.6020437 C17.6714418,35.6020437 12.5040476,30.4318056 12.5040476,24.0529034 C12.5040476,17.6740013 17.6714418,12.5037632 24.0503439,12.5037632 C30.4320899,12.5037632 35.602328,17.6740013 35.602328,24.0529034 Z"></path>
            <path d="M24.0514815,40.931541 L24.0514815,48.0384854" stroke-linecap="round"></path>
            <path d="M44.4838757,24.0529034 C44.4838757,35.3375595 35.335,44.4864352 24.0503439,44.4864352 C12.7685317,44.4864352 3.61965608,35.3375595 3.61965608,24.0529034 C3.61965608,12.7682474 12.7685317,3.61937169 24.0503439,3.61937169 C35.335,3.61937169 44.4838757,12.7682474 44.4838757,24.0529034 Z" ></path>
            <path d="M26.7176521,20.4994312 L23.1627579,20.4994312 C22.1816071,20.4994312 21.3881548,21.2957275 21.3881548,22.2768783 C21.3881548,23.2580291 22.1816071,24.0543254 23.1627579,24.0543254 L24.940205,24.0543254 C25.9213558,24.0543254 26.7176521,24.8477778 26.7176521,25.8289286 C26.7176521,26.8100794 25.9213558,27.6063757 24.940205,27.6063757 L21.3881548,27.6063757" stroke-linecap="round"></path>
            <path d="M24.0514815,17.8332606 L24.0514815,20.4980093" stroke-linecap="round"></path>
            <path d="M24.0514815,27.6063757 L24.0514815,30.2711243" stroke-linecap="round"></path>
            <path d="M24.0514815,0.067037037 L24.0514815,7.17398148" stroke-linecap="round"></path>
            <path d="M0.067037037,24.0529034 L7.17398148,24.0529034" stroke-linecap="round"></path>
            <path d="M40.9318254,24.0529034 L48.0387698,24.0529034" stroke-linecap="round"></path>
        </g>
    </g>
</svg>