<?xml version="1.0" encoding="iso-8859-1"?>
<!-- Generator: Adobe Illustrator 23.0.0, SVG Export Plug-In . SVG Version: 6.00 Build 0)  -->
<svg version="1.1" xmlns="http://www.w3.org/2000/svg" xmlns:xlink="http://www.w3.org/1999/xlink" x="0px" y="0px"
	 viewBox="0 0 148 101" style="enable-background:new 0 0 148 101;" xml:space="preserve">
<title>australian-support</title>
<desc>Created with Sketch.</desc>
<g>
	<g transform="translate(37.000000, -2.000000)">
		<g transform="translate(-34.000000, 2.000000)">
			<polygon style="fill-rule:evenodd;clip-rule:evenodd;fill:#164377;" points="63.185,83.98 79.077,83.98 
				79.077,14.154 63.185,14.154 			"/>
			<polygon style="fill-rule:evenodd;clip-rule:evenodd;fill:#164377;" points="13.232,57.157 129.047,57.157 
				129.047,40.973 13.232,40.973 			"/>
			<polygon style="fill-rule:evenodd;clip-rule:evenodd;fill:#FFFFFF;" points="64.92,83.98 77.342,83.98 
				77.342,14.154 64.92,14.154 			"/>
			<polygon style="fill-rule:evenodd;clip-rule:evenodd;fill:#FFFFFF;" points="14.248,55.056 128.031,55.056 
				128.031,43.069 14.248,43.069 			"/>
			<polygon style="fill-rule:evenodd;clip-rule:evenodd;fill:#164377;" points="74.021,42.146 81.797,38.477 
				78.1,46.197 86.211,49.063 78.1,51.929 81.797,59.65 74.021,55.978 71.137,64.036 68.254,55.978 60.475,59.65 64.172,51.929 
				56.061,49.063 64.172,46.197 60.475,38.477 68.254,42.146 71.137,34.091 			"/>
			<polygon style="fill:none;stroke:#164377;stroke-width:1.8;" points="74.021,42.146 81.797,38.477 78.1,46.197 
				86.211,49.063 78.1,51.929 81.797,59.65 74.021,55.978 71.137,64.036 68.254,55.978 60.475,59.65 64.172,51.929 56.061,49.063 
				64.172,46.197 60.475,38.477 68.254,42.146 71.137,34.091 			"/>
			<polygon style="fill-rule:evenodd;clip-rule:evenodd;fill:#164377;" points="14.241,35.204 16.911,42.662 
				24.112,39.263 20.689,46.409 28.198,49.063 20.689,51.713 24.112,58.863 16.911,55.466 14.241,62.924 11.572,55.466 
				4.374,58.863 7.796,51.713 0.287,49.063 7.796,46.409 4.374,39.263 11.572,42.662 			"/>
			<polyline style="fill:none;stroke:#164377;stroke-width:1.8;" points="14.241,35.204 16.911,42.662 24.112,39.263 
				20.689,46.409 28.198,49.063 20.689,51.713 24.112,58.863 16.911,55.466 14.241,62.924 11.572,55.466 4.374,58.863 7.796,51.713 
				0.287,49.063 7.796,46.409 4.374,39.263 11.572,42.662 14.241,35.204 			"/>
			<polygon style="fill-rule:evenodd;clip-rule:evenodd;fill:#164377;" points="128.009,35.204 130.678,42.662 
				137.876,39.263 134.456,46.409 141.963,49.063 134.456,51.713 137.876,58.863 130.678,55.466 128.009,62.924 125.34,55.466 
				118.141,58.863 121.561,51.713 114.054,49.063 121.561,46.409 118.141,39.263 125.34,42.662 			"/>
			<polyline style="fill:none;stroke:#164377;stroke-width:1.8;" points="128.009,35.204 130.678,42.662 
				137.876,39.263 134.456,46.409 141.963,49.063 134.456,51.713 137.876,58.863 130.678,55.466 128.009,62.924 125.34,55.466 
				118.141,58.863 121.561,51.713 114.054,49.063 121.561,46.409 118.141,39.263 125.34,42.662 128.009,35.204 			"/>
			<polygon style="fill-rule:evenodd;clip-rule:evenodd;fill:#164377;" points="71.137,0.3 73.806,7.758 81.007,4.359 
				77.584,11.506 85.094,14.159 77.584,16.812 81.007,23.959 73.806,20.563 71.137,28.02 68.468,20.563 61.269,23.959 
				64.689,16.812 57.18,14.159 64.689,11.506 61.269,4.359 68.468,7.758 			"/>
			<polyline style="fill:none;stroke:#164377;stroke-width:1.8;" points="71.137,0.3 73.806,7.758 81.007,4.359 
				77.584,11.506 85.094,14.159 77.584,16.812 81.007,23.959 73.806,20.563 71.137,28.02 68.468,20.563 61.269,23.959 
				64.689,16.812 57.18,14.159 64.689,11.506 61.269,4.359 68.468,7.758 71.137,0.3 			"/>
			<polygon style="fill-rule:evenodd;clip-rule:evenodd;fill:#164377;" points="73.807,77.57 81.003,74.171 
				77.583,81.321 85.09,83.974 77.583,86.625 81.003,93.771 73.807,90.372 71.138,97.832 68.466,90.372 61.27,93.771 64.69,86.625 
				57.183,83.974 64.69,81.321 61.27,74.171 68.466,77.57 71.138,70.113 			"/>
			<polygon style="fill:none;stroke:#164377;stroke-width:1.8;" points="73.807,77.57 81.003,74.171 77.583,81.321 
				85.09,83.974 77.583,86.625 81.003,93.771 73.807,90.372 71.138,97.832 68.466,90.372 61.27,93.771 64.69,86.625 57.183,83.974 
				64.69,81.321 61.27,74.171 68.466,77.57 71.138,70.113 			"/>
			<polygon style="fill-rule:evenodd;clip-rule:evenodd;fill:#FFFFFF;" points="71.137,35.911 73.671,42.989 
				80.501,39.762 77.255,46.545 84.379,49.062 77.255,51.579 80.501,58.363 73.671,55.138 71.137,62.214 68.602,55.138 
				61.772,58.363 65.019,51.579 57.895,49.062 65.019,46.545 61.772,39.762 68.602,42.989 			"/>
			<polygon style="fill-rule:evenodd;clip-rule:evenodd;fill:#FFFFFF;" points="14.241,36.922 16.583,43.455 
				22.887,40.479 19.89,46.739 26.465,49.062 19.89,51.385 22.887,57.648 16.583,54.672 14.241,61.202 11.902,54.672 5.599,57.648 
				8.595,51.385 2.02,49.062 8.595,46.739 5.599,40.479 11.902,43.455 			"/>
			<polygon style="fill-rule:evenodd;clip-rule:evenodd;fill:#FFFFFF;" points="128.02,36.922 130.36,43.455 
				136.663,40.479 133.667,46.739 140.244,49.062 133.667,51.385 136.663,57.648 130.36,54.672 128.02,61.202 125.681,54.672 
				119.375,57.648 122.372,51.385 115.796,49.062 122.372,46.739 119.375,40.479 125.681,43.455 			"/>
			<polygon style="fill-rule:evenodd;clip-rule:evenodd;fill:#FFFFFF;" points="71.137,2.021 73.476,8.551 
				79.779,5.575 76.783,11.835 83.361,14.158 76.783,16.484 79.779,22.744 73.476,19.768 71.137,26.298 68.797,19.768 
				62.494,22.744 65.49,16.484 58.913,14.158 65.49,11.835 62.494,5.575 68.797,8.551 			"/>
			<polygon style="fill-rule:evenodd;clip-rule:evenodd;fill:#FFFFFF;" points="71.137,71.833 73.476,78.363 
				79.779,75.387 76.783,81.65 83.361,83.973 76.783,86.296 79.779,92.556 73.476,89.58 71.137,96.111 68.797,89.58 62.494,92.556 
				65.49,86.296 58.913,83.973 65.49,81.65 62.494,75.387 68.797,78.363 			"/>
		</g>
	</g>
</g>
</svg>
