<?xml version="1.0" encoding="UTF-8"?>
<svg viewBox="0 0 21 21" version="1.1" xmlns="http://www.w3.org/2000/svg" xmlns:xlink="http://www.w3.org/1999/xlink">
    <g stroke="none" stroke-width="1" fill="#000000" fill-rule="evenodd" class="fill">
        <g transform="translate(-2.000000, -2.000000)">
            <path d="M12.2109375,21.1651442 C7.27355649,21.1651442 3.25673077,17.1483185 3.25673077,12.2109375 C3.25673077,7.27355649 7.27355649,3.25673077 12.2109375,3.25673077 C17.1483185,3.25673077 21.1651442,7.27355649 21.1651442,12.2109375 C21.1651442,17.1483185 17.1483185,21.1651442 12.2109375,21.1651442 M12.2109375,2 C6.58078365,2 2,6.58046947 2,12.2109375 C2,17.8414055 6.58078365,22.421875 12.2109375,22.421875 C17.8410913,22.421875 22.421875,17.8414055 22.421875,12.2109375 C22.421875,6.58046947 17.8410913,2 12.2109375,2 M16.8865359,8.62804389 C17.0031145,8.50219619 17.1668909,8.43066174 17.3384375,8.43066174 C17.5099841,8.43066174 17.6737605,8.50219619 17.7900728,8.62775678 C18.0272197,8.88295589 18.0272197,9.27791911 17.7882754,9.53503218 L10.9565595,16.7336689 C10.8397275,16.8586376 10.6763856,16.9296822 10.5053101,16.9299372 C10.3333938,16.9292179 10.1707467,16.8582115 10.0556122,16.7350454 L6.63708261,13.1334194 C6.3989413,12.8779947 6.3989413,12.4818803 6.63653586,12.2270439 C6.75311454,12.1011962 6.91689091,12.0296617 7.0884375,12.0296617 C7.25998409,12.0296617 7.42376046,12.1011962 7.53824741,12.2248134 L10.5049425,15.3498327 L16.8865359,8.62804389 Z"></path>
        </g>
    </g>
</svg>