<?xml version="1.0" encoding="UTF-8"?>
<svg viewBox="0 0 20 20" version="1.1" xmlns="http://www.w3.org/2000/svg" xmlns:xlink="http://www.w3.org/1999/xlink">
    <g stroke="none" stroke-width="1" fill="#000000" fill-rule="evenodd" class="fill">
        <g transform="translate(-2.000000, -2.000000)">
            <path d="M12,21 C7.03736842,21 3,16.9626316 3,12 C3,7.03736842 7.03736842,3 12,3 C16.9626316,3 21,7.03736842 21,12 C21,16.9626316 16.9626316,21 12,21 M12,2 C6.48615385,2 2,6.48584615 2,12 C2,17.5141538 6.48615385,22 12,22 C17.5138462,22 22,17.5141538 22,12 C22,6.48584615 17.5138462,2 12,2 M10.9999281,13.5853041 C10.6764524,13.5853058 10.4146297,13.3230928 10.4146313,13.0000073 L10.4146667,12.4147398 L10.4146959,6.75684178 C10.4146976,6.43336609 10.6765231,6.17154063 10.9999987,6.17153895 C11.3234744,6.17153728 11.5852972,6.43336004 11.5852955,6.75683572 L11.5852662,12.4147338 L15.5178283,12.4147045 C15.841304,12.4147028 16.1031268,12.6765256 16.1031251,13.0000013 C16.1031234,13.3234769 15.841298,13.5853024 15.5178223,13.5853041 C12.7215433,13.585303 11.2155786,13.585303 10.9999281,13.5853041 Z"></path>
        </g>
    </g>
</svg>