<?xml version="1.0" encoding="UTF-8"?>
<svg width="42px" height="46px" viewBox="0 0 42 46" version="1.1" xmlns="http://www.w3.org/2000/svg" xmlns:xlink="http://www.w3.org/1999/xlink">
    <!-- Generator: Sketch 52.1 (67048) - http://www.bohemiancoding.com/sketch -->
    <title>Group 6</title>
    <desc>Created with Sketch.</desc>
    <defs>
        <polygon points="0.0475102564 0 15.9159718 0 15.9159718 27.8161546 0.0475102564 27.8161546"></polygon>
    </defs>
    <g ic="Main-Pages" stroke="none" stroke-width="1" fill="none" fill-rule="evenodd">
        <g ic="Home-/-Mobile" transform="translate(-294.000000, -1596.000000)">
            <g ic="Group-6" transform="translate(294.000000, 1596.000000)">
                <g ic="Group-3" transform="translate(13.012821, 0.000000)">
                    <mask ic="mask-2" fill="white">
                        <use xlink:href="#path-1"></use>
                    </mask>
                    <g ic="Clip-2"></g>
                    <path d="M1.1147859,18.7002611 L1.10949103,18.7002611 C0.825003846,18.7016221 0.559632051,18.8143992 0.362285897,19.0178154 L0.360760256,19.0192671 C-0.0569064103,19.4415235 -0.0569064103,20.1286201 0.360760256,20.5508765 L7.22910641,27.494699 C7.43111923,27.6990225 7.70546538,27.8161546 7.9817859,27.8161546 C8.26546538,27.8161546 8.53864487,27.7000205 8.7314141,27.4976931 L15.6027218,20.5508765 C16.0203885,20.1286201 16.0203885,19.4415235 15.6027218,19.0192671 C15.1850551,18.5971014 14.5055167,18.5971014 14.08785,19.0192671 L9.05233718,24.1100245 L9.05233718,1.08235187 C9.05233718,0.475369625 8.58208077,-5.44378698e-05 7.9817859,-5.44378698e-05 C7.38140128,-5.44378698e-05 6.91105513,0.475369625 6.91105513,1.08235187 L6.91105513,24.1100245 L1.87572179,19.0192671 C1.67200385,18.8134919 1.40196538,18.7002611 1.1147859,18.7002611" ic="Fill-1" fill="#9E66C4" mask="url(#mask-2)"></path>
                </g>
                <path d="M39.8670103,37.0077349 L39.8442154,37.0077349 C39.7253051,40.7928 36.6425231,43.8351511 32.870241,43.8351511 L9.11888205,43.8351511 C5.27139487,43.8351511 2.14131795,40.670587 2.14131795,36.7809105 L2.14131795,31.0359006 L11.3816769,31.0359006 L11.3864333,31.2577349 C11.4506897,34.2370288 13.9061641,36.6607842 16.8601641,36.6607842 L24.7645103,36.6607842 C27.7185103,36.6607842 30.1739846,34.2370288 30.238241,31.2577349 L30.2429974,31.0359006 L39.8670103,31.0359006 L39.8670103,37.0077349 Z M41.9493308,29.6453759 L37.4407923,13.1586856 C37.3541897,12.8483897 37.1447282,12.5996994 36.8512667,12.4597034 L36.7283179,12.4022714 C36.5883179,12.3393049 36.4381769,12.3067329 36.2852538,12.3067329 L28.1603179,12.3067329 C27.5598436,12.3067329 27.0895872,12.7822477 27.0895872,13.38923 C27.0895872,13.9962122 27.5598436,14.4716363 28.1603179,14.4716363 L35.5831,14.4716363 L39.5153051,28.8709972 L29.1483051,28.8709972 C28.5479205,28.8709972 28.0776641,29.346512 28.0776641,29.9534943 L28.0776641,31.1366107 C28.0776641,32.994303 26.5828051,34.505589 24.7453051,34.505589 L16.840959,34.505589 C15.003459,34.505589 13.5086,32.994303 13.5086,31.1366107 L13.5086,29.9534943 C13.5086,29.346512 13.0383436,28.8709972 12.437959,28.8709972 L2.4640359,28.8709972 L6.41571538,14.442512 L13.8384974,14.442512 C14.4387923,14.442512 14.9090487,13.967088 14.9090487,13.3601057 C14.9090487,12.7531235 14.4387923,12.2776994 13.8384974,12.2776994 L5.70386923,12.2776994 C5.55085641,12.2776994 5.40080513,12.3102714 5.25784359,12.3745081 L5.13606154,12.4313049 C4.83981795,12.5727527 4.62542051,12.8260702 4.54949744,13.1254785 L0.0398820513,29.6162517 C0.0134974359,29.7231314 3.58974359e-05,29.8193049 3.58974359e-05,29.9049538 L3.58974359e-05,36.7809105 C3.58974359e-05,41.8643187 4.09072821,45.9999637 9.11888205,45.9999637 L32.870241,45.9999637 C37.8983949,45.9999637 41.9890872,41.8643187 41.9890872,36.7809105 L41.9890872,29.9340781 C41.9890872,29.8125002 41.9784974,29.7286659 41.9547154,29.6622517 L41.9493308,29.6453759 Z" ic="Fill-4" fill="#9E66C4"></path>
            </g>
        </g>
    </g>
</svg>