<?xml version="1.0" encoding="UTF-8"?>
<svg viewBox="0 0 50 50" version="1.1" xmlns="http://www.w3.org/2000/svg" xmlns:xlink="http://www.w3.org/1999/xlink">
    <g stroke="none" stroke-width="1" fill="#000" fill-rule="evenodd" class="fill">
        <path d="M18.981227,2.20292365 C18.3675483,2.20292365 17.8386035,2.59512046 17.6588649,3.17832221 L10.2767467,27.6014873 C10.1534974,28.014058 10.2356636,28.4648296 10.4924329,28.8086385 C10.7543376,29.1549941 11.1651686,29.3612795 11.5991087,29.3612795 L18.311059,29.3612795 C18.6679684,29.3612795 19.0043362,29.5319106 19.2123194,29.8171446 C19.4228702,30.1049254 19.4767918,30.4742016 19.366381,30.8103703 L14.2797805,45.9965364 C14.0692297,46.6204859 14.3388375,47.305557 14.9191362,47.6238985 C15.4968672,47.9345999 16.2440659,47.7868894 16.6497615,47.29537 L39.0682917,20.2261498 C39.4046595,19.8186726 39.4765549,19.2507513 39.2505979,18.7745123 C39.0246409,18.2982733 38.5342115,17.9926654 38.0052667,17.9926654 L29.3521402,17.9926654 C28.9798247,17.9926654 28.6331861,17.8067539 28.4277706,17.4985993 C28.2223552,17.1904447 28.1838398,16.8007946 28.3301983,16.4595324 L33.6042403,4.10278613 C33.7839789,3.68257526 33.7377604,3.19869607 33.4809911,2.81668619 C33.2267894,2.43212958 32.7979846,2.20292365 32.3332322,2.20292365 L18.981227,2.20292365 Z M15.5841687,50 C14.9781931,50 14.3773529,49.8446493 13.8458404,49.5543218 C12.3257659,48.7215403 11.622218,46.933734 12.1717043,45.3012785 L16.7730107,31.5642031 L11.5991087,31.5642031 C10.466756,31.5642031 9.38832479,31.0268426 8.71045376,30.1252992 C8.03515042,29.2288494 7.82459957,28.0471655 8.15069662,26.9698976 L15.5328149,2.54673254 C15.992432,1.02378648 17.3789864,0 18.981227,0 L32.3332322,0 C33.5451834,0 34.6646977,0.598482147 35.3348656,1.59934804 C35.9998982,2.59766719 36.1205798,3.8506596 35.6532596,4.95848826 L31.028844,15.787195 L38.0052667,15.787195 C39.3892534,15.787195 40.6679646,16.5894158 41.2611018,17.8322213 C41.8516712,19.0750267 41.6642296,20.5648653 40.7835108,21.6268527 L18.3675483,48.6935262 C17.6819742,49.523761 16.6677353,50 15.5841687,50 Z"></path>
    </g>
</svg>