<?xml version="1.0" encoding="UTF-8"?>
<svg viewBox="0 0 25 24" version="1.1" xmlns="http://www.w3.org/2000/svg" xmlns:xlink="http://www.w3.org/1999/xlink">
    <g stroke="none" stroke-width="1" fill="#000" fill-rule="evenodd" class="fill">
        <g transform="translate(-1099.000000, -166.000000)">
            <g transform="translate(1099.890625, 166.000000)">
                <g transform="translate(0.000000, 0.162791)">
                    <path d="M14.7272533,8.22831086 L12.9369855,8.22831086 C12.7253881,8.22831086 12.4894806,8.50638904 12.4894806,8.87897906 L12.4894806,10.1716333 L14.7272533,10.1716333 L14.7272533,12.0142423 L12.4894806,12.0142423 L12.4894806,17.5472786 L10.3759872,17.5472786 L10.3759872,12.0142423 L8.46019978,12.0142423 L8.46019978,10.1716333 L10.3759872,10.1716333 L10.3759872,9.08710358 C10.3759872,7.53199914 11.4555557,6.26712795 12.9369855,6.26712795 L14.7272533,6.26712795 L14.7272533,8.22831086 Z M11.9070296,7.441878e-05 C5.33089008,7.441878e-05 2.480626e-05,5.33093969 2.480626e-05,11.9070792 C2.480626e-05,18.4834668 5.33089008,23.814084 11.9070296,23.814084 C18.4831691,23.814084 23.8140344,18.4834668 23.8140344,11.9070792 C23.8140344,5.33093969 18.4831691,7.441878e-05 11.9070296,7.441878e-05 Z"></path>
                </g>
            </g>
        </g>
    </g>
</svg>