<?xml version="1.0" encoding="iso-8859-1"?>
<!-- Generator: Adobe Illustrator 23.0.0, SVG Export Plug-In . SVG Version: 6.00 Build 0)  -->
<svg version="1.1" xmlns="http://www.w3.org/2000/svg" xmlns:xlink="http://www.w3.org/1999/xlink" x="0px" y="0px"
	 viewBox="0 0 84 81" style="enable-background:new 0 0 84 81;" xml:space="preserve">
<title>giving-back</title>
<desc>Created with Sketch.</desc>
<g>
	<g transform="translate(4.000000, -11.000000)">
		<g id="giving-back" transform="translate(-4.000000, 9.000000)">
			<g transform="translate(9.600000, 1.348560)">
				<g >
				</g>
				<defs>
					<filter id="Adobe_OpacityMaskFilter" filterUnits="userSpaceOnUse" x="1.678" y="1.051" width="28.457" height="25.14">
						<feColorMatrix  type="matrix" values="1 0 0 0 0  0 1 0 0 0  0 0 1 0 0  0 0 0 1 0"/>
					</filter>
				</defs>
				<mask maskUnits="userSpaceOnUse" x="1.678" y="1.051" width="28.457" height="25.14">
					<g style="filter:url(#Adobe_OpacityMaskFilter);">
						<path style="fill-rule:evenodd;clip-rule:evenodd;fill:#FFFFFF;" d="M26.254,1.051l-1.999,3.737l-0.389-0.151
							c-2.482-0.958-4.757-1.368-7.603-1.368c-0.175,0-0.449,0.005-0.79,0.046c-0.382,0.019-0.66,0.019-0.902,0.019h-0.247
							c-0.533,0-0.917,0.01-1.634,0.149c-0.444,0.334-0.811,0.626-1.15,0.917c-0.142,0.122-0.358,0.314-0.605,0.578
							C4.87,10.55,1.5,18.422,1.685,26.191c1.91-7.097,7.615-12.175,14.338-12.286l0.638-0.031l0.062,0.002
							c0.398,0.017,0.766,0.019,1.114,0.026c0.262,0.002,0.514,0.005,0.756,0.012l0.766,0.022l-2.04,3.816l12.816-3.881
							L26.254,1.051z"/>
					</g>
				</mask>
				
					<linearGradient gradientUnits="userSpaceOnUse" x1="15.9863" y1="58.6176" x2="15.9863" y2="55.92" gradientTransform="matrix(28.4568 0 0 -25.14 -439.0143 1475.4083)">
					<stop  offset="0" style="stop-color:#FFFFFF"/>
					<stop  offset="1" style="stop-color:#EBEBEB"/>
				</linearGradient>
				<path style="mask:url(#mask-2_1_);fill-rule:evenodd;clip-rule:evenodd;fill:url(#Fill-1_1_);" d="M26.254,1.051
					l-1.999,3.737l-0.389-0.151c-2.482-0.958-4.757-1.368-7.603-1.368c-0.175,0-0.449,0.005-0.79,0.046
					c-0.382,0.019-0.66,0.019-0.902,0.019h-0.247c-0.533,0-0.917,0.01-1.634,0.149c-0.444,0.334-0.811,0.626-1.15,0.917
					c-0.142,0.122-0.358,0.314-0.605,0.578C4.87,10.55,1.5,18.422,1.685,26.191c1.91-7.097,7.615-12.175,14.338-12.286l0.638-0.031
					l0.062,0.002c0.398,0.017,0.766,0.019,1.114,0.026c0.262,0.002,0.514,0.005,0.756,0.012l0.766,0.022l-2.04,3.816l12.816-3.881
					L26.254,1.051z"/>
			</g>
			<g transform="translate(40.800000, 3.748560)">
				<g>
				</g>
				<defs>
					<filter filterUnits="userSpaceOnUse" x="1.253" y="0.398" width="28.685" height="17.033">
						<feColorMatrix  type="matrix" values="1 0 0 0 0  0 1 0 0 0  0 0 1 0 0  0 0 0 1 0"/>
					</filter>
				</defs>
				<mask maskUnits="userSpaceOnUse" x="1.253" y="0.398" width="28.685" height="17.033" id="mask-5_1_">
					<g style="filter:url(#Adobe_OpacityMaskFilter_1_);">
						<path style="fill-rule:evenodd;clip-rule:evenodd;fill:#FFFFFF;" d="M16.567,0.398
							C10.932,0.494,5.64,2.486,1.253,6.168l3.869,11.263c0.912-1.248,1.884-2.407,2.899-3.454l0.42-0.422
							c5.789-5.741,13.591-9.103,21.497-9.288c-3.953-2.537-8.422-3.869-13.01-3.869H16.567z"/>
					</g>
				</mask>
				
					<linearGradient gradientUnits="userSpaceOnUse" x1="-15.2064" y1="56.78" x2="-15.2064" y2="52.7984" gradientTransform="matrix(28.6848 0 0 -17.0328 451.7878 966.4852)">
					<stop  offset="0" style="stop-color:#FFFFFF"/>
					<stop  offset="1" style="stop-color:#EBEBEB"/>
				</linearGradient>
				<path style="mask:url(#mask-5_1_);fill-rule:evenodd;clip-rule:evenodd;fill:url(#Fill-4_1_);" d="M16.567,0.398
					C10.932,0.494,5.64,2.486,1.253,6.168l3.869,11.263c0.912-1.248,1.884-2.407,2.899-3.454l0.42-0.422
					c5.789-5.741,13.591-9.103,21.497-9.288c-3.953-2.537-8.422-3.869-13.01-3.869H16.567z"/>
			</g>
			<g transform="translate(55.200000, 8.548560)">
				<g>
				</g>
				<defs>
					<filter filterUnits="userSpaceOnUse" x="2.218" y="2.215" width="26.172" height="49.087">
						<feColorMatrix  type="matrix" values="1 0 0 0 0  0 1 0 0 0  0 0 1 0 0  0 0 0 1 0"/>
					</filter>
				</defs>
				<mask maskUnits="userSpaceOnUse" x="2.218" y="2.215" width="26.172" height="49.087" id="mask-8_1_">
					<g style="filter:url(#Adobe_OpacityMaskFilter_2_);">
						<path id="path-7_1_" style="fill-rule:evenodd;clip-rule:evenodd;fill:#FFFFFF;" d="M2.218,6.199c0.029,0,0.058,0,0.089,0
							h0.221c8.29,0,15.139,7.747,15.262,17.27v0.259c0,5.99-1.594,10.673-5.501,16.164l-0.281,0.396l-3.002-2.242l1.92,13.255
							l13.255-1.92l-4.032-3.012l0.264-0.377c5.518-7.891,7.978-14.76,7.978-22.265v-0.331c-0.106-8.117-3.466-15.802-9.214-21.11
							c-0.838-0.048-1.615-0.072-2.366-0.072C11.638,2.215,7.522,3.317,2.218,6.199"/>
					</g>
				</mask>
				
					<linearGradient id="Fill-7_1_" gradientUnits="userSpaceOnUse" x1="-29.6934" y1="51.1166" x2="-29.6934" y2="49.7351" gradientTransform="matrix(26.172 0 0 -49.0872 792.4401 2503.7351)">
					<stop  offset="0" style="stop-color:#FFFFFF"/>
					<stop  offset="1" style="stop-color:#EBEBEB"/>
				</linearGradient>
				<path id="Fill-7" style="mask:url(#mask-8_1_);fill-rule:evenodd;clip-rule:evenodd;fill:url(#Fill-7_1_);" d="M2.218,6.199
					c0.029,0,0.058,0,0.089,0h0.221c8.29,0,15.139,7.747,15.262,17.27v0.259c0,5.99-1.594,10.673-5.501,16.164l-0.281,0.396
					l-3.002-2.242l1.92,13.255l13.255-1.92l-4.032-3.012l0.264-0.377c5.518-7.891,7.978-14.76,7.978-22.265v-0.331
					c-0.106-8.117-3.466-15.802-9.214-21.11c-0.838-0.048-1.615-0.072-2.366-0.072C11.638,2.215,7.522,3.317,2.218,6.199"/>
			</g>
			<g id="Group-12" transform="translate(26.400000, 56.548560)">
				<g id="Clip-11">
				</g>
				<defs>
					<filter id="Adobe_OpacityMaskFilter_3_" filterUnits="userSpaceOnUse" x="2.275" y="2.17" width="39.619" height="24.23">
						<feColorMatrix  type="matrix" values="1 0 0 0 0  0 1 0 0 0  0 0 1 0 0  0 0 0 1 0"/>
					</filter>
				</defs>
				<mask maskUnits="userSpaceOnUse" x="2.275" y="2.17" width="39.619" height="24.23" id="mask-11_1_">
					<g style="filter:url(#Adobe_OpacityMaskFilter_3_);">
						<path id="path-10_1_" style="fill-rule:evenodd;clip-rule:evenodd;fill:#FFFFFF;" d="M22.529,11.693
							c-5.563,5.165-12.926,8.148-20.162,8.148c-0.029,0-0.058-0.002-0.091-0.002c5.347,3.97,9.821,6.226,12.998,6.535l0.914,0.026
							l0.158-0.012c6.007-0.367,18.691-11.172,25.548-17.791L33.276,2.17C30.667,4.603,24.43,10.253,22.529,11.693"/>
					</g>
				</mask>
				
					<linearGradient id="Fill-10_1_" gradientUnits="userSpaceOnUse" x1="-0.5562" y1="5.7781" x2="-0.5562" y2="2.9793" gradientTransform="matrix(39.6192 0 0 -24.2304 44.1229 86.5689)">
					<stop  offset="0" style="stop-color:#FFFFFF"/>
					<stop  offset="1" style="stop-color:#EBEBEB"/>
				</linearGradient>
				<path id="Fill-10" style="mask:url(#mask-11_1_);fill-rule:evenodd;clip-rule:evenodd;fill:url(#Fill-10_1_);" d="
					M22.529,11.693c-5.563,5.165-12.926,8.148-20.162,8.148c-0.029,0-0.058-0.002-0.091-0.002c5.347,3.97,9.821,6.226,12.998,6.535
					l0.914,0.026l0.158-0.012c6.007-0.367,18.691-11.172,25.548-17.791L33.276,2.17C30.667,4.603,24.43,10.253,22.529,11.693"/>
			</g>
			<g id="Group-15" transform="translate(0.000000, 6.148560)">
				<g id="Clip-14">
				</g>
				<defs>
					<filter id="Adobe_OpacityMaskFilter_4_" filterUnits="userSpaceOnUse" x="0" y="0.547" width="16.219" height="42.931">
						<feColorMatrix  type="matrix" values="1 0 0 0 0  0 1 0 0 0  0 0 1 0 0  0 0 0 1 0"/>
					</filter>
				</defs>
				<mask maskUnits="userSpaceOnUse" x="0" y="0.547" width="16.219" height="42.931" id="mask-14_1_">
					<g style="filter:url(#Adobe_OpacityMaskFilter_4_);">
						<path id="path-13_1_" style="fill-rule:evenodd;clip-rule:evenodd;fill:#FFFFFF;" d="M0,26.566l0.002,0.557
							c0.13,6.274,2.885,12.78,4.673,16.356l9.317-4.992c-0.235-0.485-0.396-0.84-0.674-1.469c-0.266-0.593-0.643-1.433-1.298-2.854
							c-5.916-12.041-4.241-25.087,4.2-33.617C6.564,4.802,0,15.163,0,26.566"/>
					</g>
				</mask>
				
					<linearGradient id="Fill-13_1_" gradientUnits="userSpaceOnUse" x1="24.897" y1="53.5173" x2="24.897" y2="51.9376" gradientTransform="matrix(16.2192 0 0 -42.9312 -395.6992 2294.5229)">
					<stop  offset="0" style="stop-color:#FFFFFF"/>
					<stop  offset="1" style="stop-color:#EBEBEB"/>
				</linearGradient>
				<path id="Fill-13" style="mask:url(#mask-14_1_);fill-rule:evenodd;clip-rule:evenodd;fill:url(#Fill-13_1_);" d="M0,26.566
					l0.002,0.557c0.13,6.274,2.885,12.78,4.673,16.356l9.317-4.992c-0.235-0.485-0.396-0.84-0.674-1.469
					c-0.266-0.593-0.643-1.433-1.298-2.854c-5.916-12.041-4.241-25.087,4.2-33.617C6.564,4.802,0,15.163,0,26.566"/>
			</g>
			<g id="Group-18" transform="translate(9.600000, 1.348560)">
				<g id="Clip-17">
				</g>
				<defs>
					<filter id="Adobe_OpacityMaskFilter_5_" filterUnits="userSpaceOnUse" x="1.678" y="1.051" width="28.457" height="25.14">
						<feColorMatrix  type="matrix" values="1 0 0 0 0  0 1 0 0 0  0 0 1 0 0  0 0 0 1 0"/>
					</filter>
				</defs>
				<mask maskUnits="userSpaceOnUse" x="1.678" y="1.051" width="28.457" height="25.14" id="mask-17_1_">
					<g style="filter:url(#Adobe_OpacityMaskFilter_5_);">
						<path id="path-16_1_" style="fill-rule:evenodd;clip-rule:evenodd;fill:#FFFFFF;" d="M26.254,1.051l-1.999,3.737l-0.389-0.151
							c-2.482-0.958-4.757-1.368-7.603-1.368c-0.175,0-0.449,0.005-0.79,0.046c-0.382,0.019-0.66,0.019-0.902,0.019h-0.247
							c-0.533,0-0.917,0.01-1.634,0.149c-0.444,0.334-0.811,0.626-1.15,0.917c-0.142,0.122-0.358,0.314-0.605,0.578
							C4.87,10.55,1.5,18.422,1.685,26.191c1.91-7.097,7.615-12.175,14.338-12.286l0.638-0.031l0.062,0.002
							c0.398,0.017,0.766,0.019,1.114,0.026c0.262,0.002,0.514,0.005,0.756,0.012l0.766,0.022l-2.04,3.816l12.816-3.881
							L26.254,1.051z"/>
					</g>
				</mask>
				
					<linearGradient id="Fill-16_1_" gradientUnits="userSpaceOnUse" x1="15.9863" y1="58.6176" x2="15.9863" y2="55.92" gradientTransform="matrix(28.4568 0 0 -25.14 -439.0143 1475.4083)">
					<stop  offset="0" style="stop-color:#FFFFFF"/>
					<stop  offset="1" style="stop-color:#EBEBEB"/>
				</linearGradient>
				<path id="Fill-16" style="mask:url(#mask-17_1_);fill-rule:evenodd;clip-rule:evenodd;fill:url(#Fill-16_1_);" d="M26.254,1.051
					l-1.999,3.737l-0.389-0.151c-2.482-0.958-4.757-1.368-7.603-1.368c-0.175,0-0.449,0.005-0.79,0.046
					c-0.382,0.019-0.66,0.019-0.902,0.019h-0.247c-0.533,0-0.917,0.01-1.634,0.149c-0.444,0.334-0.811,0.626-1.15,0.917
					c-0.142,0.122-0.358,0.314-0.605,0.578C4.87,10.55,1.5,18.422,1.685,26.191c1.91-7.097,7.615-12.175,14.338-12.286l0.638-0.031
					l0.062,0.002c0.398,0.017,0.766,0.019,1.114,0.026c0.262,0.002,0.514,0.005,0.756,0.012l0.766,0.022l-2.04,3.816l12.816-3.881
					L26.254,1.051z"/>
			</g>
			<g id="Group-21" transform="translate(40.800000, 3.748560)">
				<g id="Clip-20">
				</g>
				<defs>
					<filter id="Adobe_OpacityMaskFilter_6_" filterUnits="userSpaceOnUse" x="1.253" y="0.398" width="28.685" height="17.033">
						<feColorMatrix  type="matrix" values="1 0 0 0 0  0 1 0 0 0  0 0 1 0 0  0 0 0 1 0"/>
					</filter>
				</defs>
				<mask maskUnits="userSpaceOnUse" x="1.253" y="0.398" width="28.685" height="17.033" id="mask-19_1_">
					<g style="filter:url(#Adobe_OpacityMaskFilter_6_);">
						<path id="path-18_1_" style="fill-rule:evenodd;clip-rule:evenodd;fill:#FFFFFF;" d="M16.567,0.398
							C10.932,0.494,5.64,2.486,1.253,6.168l3.869,11.263c0.912-1.248,1.884-2.407,2.899-3.454l0.42-0.422
							c5.789-5.741,13.591-9.103,21.497-9.288c-3.953-2.537-8.422-3.869-13.01-3.869H16.567z"/>
					</g>
				</mask>
				
					<linearGradient id="Fill-19_1_" gradientUnits="userSpaceOnUse" x1="-15.2064" y1="56.78" x2="-15.2064" y2="52.7984" gradientTransform="matrix(28.6848 0 0 -17.0328 451.7878 966.4852)">
					<stop  offset="0" style="stop-color:#FFFFFF"/>
					<stop  offset="1" style="stop-color:#EBEBEB"/>
				</linearGradient>
				<path id="Fill-19" style="mask:url(#mask-19_1_);fill-rule:evenodd;clip-rule:evenodd;fill:url(#Fill-19_1_);" d="M16.567,0.398
					C10.932,0.494,5.64,2.486,1.253,6.168l3.869,11.263c0.912-1.248,1.884-2.407,2.899-3.454l0.42-0.422
					c5.789-5.741,13.591-9.103,21.497-9.288c-3.953-2.537-8.422-3.869-13.01-3.869H16.567z"/>
			</g>
			<g id="Group-24" transform="translate(55.200000, 8.548560)">
				<g id="Clip-23">
				</g>
				<defs>
					<filter id="Adobe_OpacityMaskFilter_7_" filterUnits="userSpaceOnUse" x="2.218" y="2.215" width="26.172" height="49.087">
						<feColorMatrix  type="matrix" values="1 0 0 0 0  0 1 0 0 0  0 0 1 0 0  0 0 0 1 0"/>
					</filter>
				</defs>
				<mask maskUnits="userSpaceOnUse" x="2.218" y="2.215" width="26.172" height="49.087" id="mask-21_1_">
					<g style="filter:url(#Adobe_OpacityMaskFilter_7_);">
						<path id="path-20_1_" style="fill-rule:evenodd;clip-rule:evenodd;fill:#FFFFFF;" d="M2.218,6.199c0.029,0,0.058,0,0.089,0
							h0.221c8.29,0,15.139,7.747,15.262,17.27v0.259c0,5.99-1.594,10.673-5.501,16.164l-0.281,0.396l-3.002-2.242l1.92,13.255
							l13.255-1.92l-4.032-3.012l0.264-0.377c5.518-7.891,7.978-14.76,7.978-22.265v-0.331c-0.106-8.117-3.466-15.802-9.214-21.11
							c-0.838-0.048-1.615-0.072-2.366-0.072C11.638,2.215,7.522,3.317,2.218,6.199"/>
					</g>
				</mask>
				
					<linearGradient id="Fill-22_1_" gradientUnits="userSpaceOnUse" x1="-29.6934" y1="51.1166" x2="-29.6934" y2="49.7351" gradientTransform="matrix(26.172 0 0 -49.0872 792.4401 2503.7351)">
					<stop  offset="0" style="stop-color:#FFFFFF"/>
					<stop  offset="1" style="stop-color:#EBEBEB"/>
				</linearGradient>
				<path id="Fill-22" style="mask:url(#mask-21_1_);fill-rule:evenodd;clip-rule:evenodd;fill:url(#Fill-22_1_);" d="M2.218,6.199
					c0.029,0,0.058,0,0.089,0h0.221c8.29,0,15.139,7.747,15.262,17.27v0.259c0,5.99-1.594,10.673-5.501,16.164l-0.281,0.396
					l-3.002-2.242l1.92,13.255l13.255-1.92l-4.032-3.012l0.264-0.377c5.518-7.891,7.978-14.76,7.978-22.265v-0.331
					c-0.106-8.117-3.466-15.802-9.214-21.11c-0.838-0.048-1.615-0.072-2.366-0.072C11.638,2.215,7.522,3.317,2.218,6.199"/>
			</g>
			<g id="Group-27" transform="translate(26.400000, 56.548560)">
				<g id="Clip-26">
				</g>
				<defs>
					<filter id="Adobe_OpacityMaskFilter_8_" filterUnits="userSpaceOnUse" x="2.275" y="2.17" width="39.619" height="24.23">
						<feColorMatrix  type="matrix" values="1 0 0 0 0  0 1 0 0 0  0 0 1 0 0  0 0 0 1 0"/>
					</filter>
				</defs>
				<mask maskUnits="userSpaceOnUse" x="2.275" y="2.17" width="39.619" height="24.23" id="mask-23_1_">
					<g style="filter:url(#Adobe_OpacityMaskFilter_8_);">
						<path id="path-22_1_" style="fill-rule:evenodd;clip-rule:evenodd;fill:#FFFFFF;" d="M22.529,11.693
							c-5.563,5.165-12.926,8.148-20.162,8.148c-0.029,0-0.058-0.002-0.091-0.002c5.347,3.97,9.821,6.226,12.998,6.535l0.914,0.026
							l0.158-0.012c6.007-0.367,18.691-11.172,25.548-17.791L33.276,2.17C30.667,4.603,24.43,10.253,22.529,11.693"/>
					</g>
				</mask>
				
					<linearGradient id="Fill-25_1_" gradientUnits="userSpaceOnUse" x1="-0.5562" y1="5.7781" x2="-0.5562" y2="2.9793" gradientTransform="matrix(39.6192 0 0 -24.2304 44.1229 86.5689)">
					<stop  offset="0" style="stop-color:#FFFFFF"/>
					<stop  offset="1" style="stop-color:#EBEBEB"/>
				</linearGradient>
				<path id="Fill-25" style="mask:url(#mask-23_1_);fill-rule:evenodd;clip-rule:evenodd;fill:url(#Fill-25_1_);" d="
					M22.529,11.693c-5.563,5.165-12.926,8.148-20.162,8.148c-0.029,0-0.058-0.002-0.091-0.002c5.347,3.97,9.821,6.226,12.998,6.535
					l0.914,0.026l0.158-0.012c6.007-0.367,18.691-11.172,25.548-17.791L33.276,2.17C30.667,4.603,24.43,10.253,22.529,11.693"/>
			</g>
			<g id="Group-30" transform="translate(0.000000, 6.148560)">
				<g id="Clip-29">
				</g>
				<defs>
					<filter id="Adobe_OpacityMaskFilter_9_" filterUnits="userSpaceOnUse" x="0" y="0.547" width="16.219" height="42.931">
						<feColorMatrix  type="matrix" values="1 0 0 0 0  0 1 0 0 0  0 0 1 0 0  0 0 0 1 0"/>
					</filter>
				</defs>
				<mask maskUnits="userSpaceOnUse" x="0" y="0.547" width="16.219" height="42.931" id="mask-25_1_">
					<g style="filter:url(#Adobe_OpacityMaskFilter_9_);">
						<path id="path-24_1_" style="fill-rule:evenodd;clip-rule:evenodd;fill:#FFFFFF;" d="M0,26.566l0.002,0.557
							c0.13,6.274,2.885,12.78,4.673,16.356l9.317-4.992c-0.235-0.485-0.396-0.84-0.674-1.469c-0.266-0.593-0.643-1.433-1.298-2.854
							c-5.916-12.041-4.241-25.087,4.2-33.617C6.564,4.802,0,15.163,0,26.566"/>
					</g>
				</mask>
				
					<linearGradient id="Fill-28_1_" gradientUnits="userSpaceOnUse" x1="24.897" y1="53.5173" x2="24.897" y2="51.9376" gradientTransform="matrix(16.2192 0 0 -42.9312 -395.6992 2294.5229)">
					<stop  offset="0" style="stop-color:#FFFFFF"/>
					<stop  offset="1" style="stop-color:#EBEBEB"/>
				</linearGradient>
				<path id="Fill-28" style="mask:url(#mask-25_1_);fill-rule:evenodd;clip-rule:evenodd;fill:url(#Fill-28_1_);" d="M0,26.566
					l0.002,0.557c0.13,6.274,2.885,12.78,4.673,16.356l9.317-4.992c-0.235-0.485-0.396-0.84-0.674-1.469
					c-0.266-0.593-0.643-1.433-1.298-2.854c-5.916-12.041-4.241-25.087,4.2-33.617C6.564,4.802,0,15.163,0,26.566"/>
			</g>
			<g id="Group-33" transform="translate(7.200000, 49.348560)">
				<g id="Clip-32">
				</g>
				<defs>
					<filter id="Adobe_OpacityMaskFilter_10_" filterUnits="userSpaceOnUse" x="1.226" y="0.902" width="30.926" height="23.172">
						<feColorMatrix  type="matrix" values="1 0 0 0 0  0 1 0 0 0  0 0 1 0 0  0 0 0 1 0"/>
					</filter>
				</defs>
				<mask maskUnits="userSpaceOnUse" x="1.226" y="0.902" width="30.926" height="23.172" id="mask-27_1_">
					<g style="filter:url(#Adobe_OpacityMaskFilter_10_);">
						<path id="path-26_1_" style="fill-rule:evenodd;clip-rule:evenodd;fill:#FFFFFF;" d="M1.226,13.999l3.802-2.465l0.269,0.324
							c1.742,2.078,3.6,4.109,5.525,6.031c0.149,0.146,0.324,0.319,0.523,0.518c1.169,1.164,3.118,3.108,6.005,5.484
							c4.913,0.595,10.102-0.276,14.803-2.458c-2.306-1.298-7.07-4.421-13.877-11.081c-1.356-1.351-2.678-2.77-3.941-4.214
							l-0.358-0.41l3.137-2.038L4.015,0.902L1.226,13.999z"/>
					</g>
				</mask>
				
					<linearGradient id="Fill-31_1_" gradientUnits="userSpaceOnUse" x1="18.4593" y1="12.7646" x2="18.4593" y2="9.838" gradientTransform="matrix(30.9264 0 0 -23.1721 -554.1899 249.5467)">
					<stop  offset="0" style="stop-color:#FFFFFF"/>
					<stop  offset="1" style="stop-color:#EBEBEB"/>
				</linearGradient>
				<path id="Fill-31" style="mask:url(#mask-27_1_);fill-rule:evenodd;clip-rule:evenodd;fill:url(#Fill-31_1_);" d="M1.226,13.999
					l3.802-2.465l0.269,0.324c1.742,2.078,3.6,4.109,5.525,6.031c0.149,0.146,0.324,0.319,0.523,0.518
					c1.169,1.164,3.118,3.108,6.005,5.484c4.913,0.595,10.102-0.276,14.803-2.458c-2.306-1.298-7.07-4.421-13.877-11.081
					c-1.356-1.351-2.678-2.77-3.941-4.214l-0.358-0.41l3.137-2.038L4.015,0.902L1.226,13.999z"/>
			</g>
		</g>
	</g>
</g>
</svg>
