<?xml version="1.0" encoding="UTF-8"?>
<svg viewBox="0 0 50 50" version="1.1" xmlns="http://www.w3.org/2000/svg" xmlns:xlink="http://www.w3.org/1999/xlink">
    <g stroke="none" stroke-width="1" fill="none" fill-rule="evenodd" stroke-linejoin="round">
        <g transform="translate(3.000000, 3.000000)" stroke="#000" class="stroke" stroke-width="2.25">
            <path d="M43.3886,21.7568 C43.3886,33.7028 33.7016,43.3868 21.7556,43.3868 C9.8096,43.3868 0.1256,33.7028 0.1256,21.7568 C0.1256,9.8108 9.8096,0.1268 21.7556,0.1268 C33.7016,0.1268 43.3886,9.8108 43.3886,21.7568 Z"></path>
            <path d="M31.2743,21.7568 C31.2743,33.7028 27.0113,43.3868 21.7553,43.3868 C16.4993,43.3868 12.2363,33.7028 12.2363,21.7568 C12.2363,9.8108 16.4993,0.1268 21.7553,0.1268 C27.0113,0.1268 31.2743,9.8108 31.2743,21.7568 Z"></path>
            <path d="M0.1259,21.7568 L43.3889,21.7568" id="Stroke-5"></path>
            <path d="M40.2362,10.508 L3.2792,10.508" id="Stroke-7"></path>
            <path d="M3.2783,33.0053 L40.2353,33.0053" id="Stroke-9"></path>
        </g>
    </g>
</svg>