<?xml version="1.0" encoding="UTF-8"?>
<svg viewBox="0 0 24 25" version="1.1" xmlns="http://www.w3.org/2000/svg" xmlns:xlink="http://www.w3.org/1999/xlink">
    <g stroke="none" stroke-width="1" fill="#000000" fill-rule="evenodd" class="fill">
        <g transform="translate(-1210.000000, -166.000000)">
            <g transform="translate(1099.890625, 166.000000)">
                <g transform="translate(110.159641, 0.162791)">
                    <g transform="translate(0.000000, 0.213681)">
                        <path d="M11.8898141,0.0344807014 C8.66053514,0.0344807014 8.25594503,0.0481241444 6.98760096,0.10592273 C5.72223364,0.163721316 4.85773548,0.364652022 4.10164067,0.658606203 C3.31974736,0.962482888 2.65642796,1.36905749 1.9955892,2.02989626 C1.33450237,2.69098308 0.92817583,3.35405441 0.624299145,4.13594773 C0.330096902,4.8922906 0.129414258,5.75629263 0.07136761,7.02215608 C0.0135690242,8.29025209 -7.441878e-05,8.69509026 -7.441878e-05,11.9243692 C-7.441878e-05,15.153152 0.0135690242,15.5582382 0.07136761,16.8263342 C0.129414258,18.0919496 0.330096902,18.9561997 0.624299145,19.7125426 C0.92817583,20.4944359 1.33450237,21.1572592 1.9955892,21.818346 C2.65642796,22.4791848 3.31974736,22.8860074 4.10164067,23.1898841 C4.85773548,23.4835902 5.72223364,23.684769 6.98760096,23.7423195 C8.25594503,23.8003662 8.66053514,23.8140096 11.8898141,23.8140096 C15.119093,23.8140096 15.5236831,23.8003662 16.7920272,23.7423195 C18.0573945,23.684769 18.9218926,23.4835902 19.6779875,23.1898841 C20.4598808,22.8860074 21.1232002,22.4791848 21.7840389,21.818346 C22.4451258,21.1572592 22.8514523,20.4944359 23.155329,19.7125426 C23.4495312,18.9561997 23.6502139,18.0919496 23.7082605,16.8263342 C23.7660591,15.5582382 23.7797025,15.153152 23.7797025,11.9243692 C23.7797025,8.69509026 23.7660591,8.29025209 23.7082605,7.02215608 C23.6502139,5.75629263 23.4495312,4.8922906 23.155329,4.13594773 C22.8514523,3.35405441 22.4451258,2.69098308 21.7840389,2.02989626 C21.1232002,1.36905749 20.4598808,0.962482888 19.6779875,0.658606203 C18.9218926,0.364652022 18.0573945,0.163721316 16.7920272,0.10592273 C15.5236831,0.0481241444 15.119093,0.0344807014 11.8898141,0.0344807014 M11.8898141,2.17674932 C15.0645192,2.17674932 15.4403341,2.18890438 16.6942905,2.24595878 C17.853487,2.29879611 18.4830699,2.492533 18.9022957,2.65526207 C19.4572117,2.87107653 19.8533677,3.12881357 20.2691206,3.54481455 C20.6851216,3.96081553 20.9428586,4.35697151 21.158425,4.91188754 C21.3214022,5.33111334 21.5151391,5.96044815 21.5679764,7.11964468 C21.6252789,8.37335306 21.6374339,8.74941596 21.6374339,11.9243692 C21.6374339,15.0990743 21.6252789,15.4748892 21.5679764,16.7288456 C21.5151391,17.8880421 21.3214022,18.517625 21.158425,18.9363547 C20.9428586,19.4915188 20.6851216,19.8874267 20.2691206,20.3036757 C19.8533677,20.7196767 19.4572117,20.9774138 18.9022957,21.1929802 C18.4830699,21.3557092 17.853487,21.5494461 16.6942905,21.6022835 C15.4405821,21.6595859 15.0647673,21.671741 11.8898141,21.671741 C8.71486084,21.671741 8.33904601,21.6595859 7.08533763,21.6022835 C5.9261411,21.5494461 5.29655822,21.3557092 4.87733242,21.1929802 C4.32241639,20.9774138 3.92626041,20.7196767 3.5105075,20.3036757 C3.09450652,19.8874267 2.83676947,19.4915188 2.62120308,18.9363547 C2.45822595,18.517625 2.26448906,17.8880421 2.21140366,16.7288456 C2.15434926,15.4748892 2.14219419,15.0990743 2.14219419,11.9243692 C2.14219419,8.74941596 2.15434926,8.37335306 2.21140366,7.11964468 C2.26448906,5.96044815 2.45822595,5.33111334 2.62120308,4.91188754 C2.83676947,4.35697151 3.09450652,3.96081553 3.5105075,3.54481455 C3.92626041,3.12881357 4.32241639,2.87107653 4.87733242,2.65526207 C5.29655822,2.492533 5.9261411,2.29879611 7.08533763,2.24595878 C8.33904601,2.18890438 8.71510891,2.17674932 11.8898141,2.17674932"></path>
                    </g>
                    <path d="M7.9265179,12.1378519 C7.9265179,9.94894747 9.70090968,8.1745557 11.8898141,8.1745557 C14.0787184,8.1745557 15.8531102,9.94894747 15.8531102,12.1378519 C15.8531102,14.3267562 14.0787184,16.101148 11.8898141,16.101148 C9.70090968,16.101148 7.9265179,14.3267562 7.9265179,12.1378519 Z M5.78424929,12.1378519 C5.78424929,15.5097668 8.51765108,18.2434166 11.8898141,18.2434166 C15.261977,18.2434166 17.9953788,15.5097668 17.9953788,12.1378519 C17.9953788,8.76593693 15.261977,6.03228708 11.8898141,6.03228708 C8.51765108,6.03228708 5.78424929,8.76593693 5.78424929,12.1378519 Z"></path>
                    <path d="M19.663327,5.7910462 C19.663327,6.57914108 19.0245658,7.21790228 18.2367189,7.21790228 C17.4486241,7.21790228 16.8098629,6.57914108 16.8098629,5.7910462 C16.8098629,5.00295132 17.4486241,4.36419013 18.2367189,4.36419013 C19.0245658,4.36419013 19.663327,5.00295132 19.663327,5.7910462"></path>
                </g>
            </g>
        </g>
    </g>
</svg>