<?xml version="1.0" encoding="UTF-8"?>
<svg width="64px" height="80px" viewBox="0 0 64 80" version="1.1" xmlns="http://www.w3.org/2000/svg" xmlns:xlink="http://www.w3.org/1999/xlink">
    <!-- Generator: Sketch 49.3 (51167) - http://www.bohemiancoding.com/sketch -->
    <title>Page 1</title>
    <desc>Created with Sketch.</desc>
    <defs>
        <polygon points="0 0 38.6213379 0 38.6213379 68.5211056 0 68.5211056"></polygon>
    </defs>
    <g stroke="none" stroke-width="1" fill="none" fill-rule="evenodd">
        <g transform="translate(-624.000000, -1643.000000)">
            <g transform="translate(624.000000, 1643.683594)">
                <path d="M35.3826272,48.5887577 C34.8992376,48.5887577 34.4183396,48.4031261 34.0520599,48.0318629 C33.3282212,47.2968116 33.3344505,46.1145004 34.0707476,45.3894159 L39.6708416,39.8678104 L21.8028665,39.8678104 C20.7700572,39.8678104 19.9340921,39.0305995 19.9340921,37.999036 C19.9340921,36.9662267 20.7700572,36.1302616 21.8028665,36.1302616 L39.6695958,36.1302616 L34.0707476,30.6086561 C33.3356963,29.8835717 33.3282212,28.7000145 34.0520599,27.9649633 C34.7771443,27.229912 35.9594556,27.221191 36.6945069,27.9462755 L45.5387933,36.6672228 C45.5400391,36.6684686 45.5400391,36.6684686 45.5400391,36.6684686 L45.541285,36.6697145 C45.541285,36.6697145 45.5425308,36.6709603 45.5425308,36.6709603 C45.5437767,36.6722062 45.5437767,36.6722062 45.5450225,36.673452 C45.5450225,36.673452 45.5462684,36.6746979 45.5462684,36.6746979 L45.5475142,36.6746979 C45.5475142,36.6759437 45.5450225,36.6746979 45.5500059,36.6771896 L45.5500059,36.6784354 C45.5512518,36.6784354 45.5512518,36.6784354 45.5512518,36.6796813 C45.5512518,36.6796813 45.5524976,36.6796813 45.5524976,36.6809271 L45.5537435,36.6809271 C45.5537435,36.682173 45.5537435,36.682173 45.5549893,36.682173 C45.5549893,36.682173 45.5549893,36.6834188 45.5562352,36.6834188 L45.5562352,36.6846647 C45.557481,36.6846647 45.557481,36.6859105 45.557481,36.6859105 L45.5587269,36.6859105 C45.5587269,36.6871564 45.5599727,36.6871564 45.5599727,36.6884022 C45.8926146,37.0247816 46.0969339,37.4869918 46.0969339,37.9965443 L46.0969339,37.999036 C46.095688,38.0002819 46.095688,38.0002819 46.0969339,38.0027736 L46.0969339,38.0040194 C46.095688,38.512326 45.8913687,38.9720446 45.5612186,39.308424 C45.5599727,39.308424 45.5599727,39.308424 45.5599727,39.308424 C45.5599727,39.3096698 45.5587269,39.3096698 45.5587269,39.3109156 L45.557481,39.3109156 C45.557481,39.3109156 45.557481,39.3121615 45.5562352,39.3121615 L45.5562352,39.3134073 C45.5537435,39.3146532 45.5537435,39.3146532 45.5537435,39.315899 L45.5524976,39.315899 C45.5524976,39.3171449 45.5562352,39.315899 45.5500059,39.3183907 L45.5500059,39.3196366 C45.5462684,39.3221283 45.5475142,39.3208824 45.5475142,39.3221283 C45.5475142,39.3221283 45.5462684,39.3221283 45.5462684,39.3233741 C45.5462684,39.3221283 45.5475142,39.3221283 45.5437767,39.32462 C45.5425308,39.3258658 45.5425308,39.3283575 45.541285,39.3271117 C45.541285,39.3271117 45.5400391,39.3283575 45.5400391,39.3283575 L45.5387933,39.3283575 L45.5387933,39.3296034 L36.6945069,48.0505507 C36.3307188,48.4093553 35.8572959,48.5887577 35.3826272,48.5887577" ic="Fill-1" fill="#318BF4"></path>
                <g transform="translate(0.000000, 0.000623)">
                    <mask fill="white">
                        <use xlink:href="#path-1"></use>
                    </mask>
                    <g></g>
                    <path d="M3.73754883,9.96617395 L34.8837891,9.96617395 L34.8837891,6.22862512 C34.8837891,4.854453 33.766262,3.7369259 32.3920898,3.7369259 L6.22924805,3.7369259 C4.85507593,3.7369259 3.73754883,4.854453 3.73754883,6.22862512 L3.73754883,9.96617395 Z M3.73754883,56.0626095 L3.73754883,62.2918575 C3.73754883,63.6660297 4.85507593,64.7835568 6.22924805,64.7835568 L32.3920898,64.7835568 C33.766262,64.7835568 34.8837891,63.6660297 34.8837891,62.2918575 L34.8837891,56.0626095 L3.73754883,56.0626095 Z M32.3920898,68.5211056 L6.22924805,68.5211056 C2.79444067,68.5211056 0,65.7266649 0,62.2918575 L0,6.22862512 C0,2.79381775 2.79444067,-0.000622924805 6.22924805,-0.000622924805 L32.3920898,-0.000622924805 C35.8268972,-0.000622924805 38.6213379,2.79381775 38.6213379,6.22862512 L38.6213379,21.8017452 C38.6213379,22.8345546 37.784127,23.6705197 36.7525635,23.6705197 C35.721,23.6705197 34.8837891,22.8345546 34.8837891,21.8017452 L34.8837891,13.7037228 L3.73754883,13.7037228 L3.73754883,52.3250607 L36.7525635,52.3250607 C37.784127,52.3250607 38.6213379,53.1622716 38.6213379,54.1938351 L38.6213379,62.2918575 C38.6213379,65.7266649 35.8268972,68.5211056 32.3920898,68.5211056 Z" ic="Fill-3" fill="#318BF4" mask="url(#mask-2)"></path>
                </g>
                <path d="M57.309082,78.4891483 L31.1462402,78.4891483 C27.7114329,78.4891483 24.9169922,75.6947076 24.9169922,72.2599003 L24.9169922,66.653577 C24.9169922,65.6220135 25.7529573,64.7848026 26.7857666,64.7848026 C27.8185759,64.7848026 28.654541,65.6220135 28.654541,66.653577 L28.654541,72.2599003 C28.654541,73.6340724 29.7720681,74.7515995 31.1462402,74.7515995 L57.309082,74.7515995 C58.6832542,74.7515995 59.8007812,73.6340724 59.8007812,72.2599003 L59.8007812,66.0306522 L36.7525635,66.0306522 C35.721,66.0306522 34.8837891,65.1934413 34.8837891,64.1618778 C34.8837891,63.1303143 35.721,62.2931034 36.7525635,62.2931034 L59.8007812,62.2931034 L59.8007812,23.6717655 L36.7525635,23.6717655 C35.721,23.6717655 34.8837891,22.8345546 34.8837891,21.8029911 C34.8837891,20.7701818 35.721,19.9342167 36.7525635,19.9342167 L59.8007812,19.9342167 L59.8007812,16.1966678 C59.8007812,14.8212499 58.6832542,13.7049686 57.309082,13.7049686 L36.7525635,13.7049686 C35.721,13.7049686 34.8837891,12.8677577 34.8837891,11.8361942 C34.8837891,10.8033849 35.721,9.9674198 36.7525635,9.9674198 L57.309082,9.9674198 C60.7438894,9.9674198 63.5383301,12.7618605 63.5383301,16.1966678 L63.5383301,72.2599003 C63.5383301,75.6947076 60.7438894,78.4891483 57.309082,78.4891483" ic="Fill-6" fill="#318BF4"></path>
            </g>
        </g>
    </g>
</svg>