<?xml version="1.0" encoding="UTF-8"?>
<svg viewBox="0 0 50 50" version="1.1" xmlns="http://www.w3.org/2000/svg" xmlns:xlink="http://www.w3.org/1999/xlink">
    <g stroke="none" stroke-width="1" fill="#000" fill-rule="evenodd" class="fill">
        <path d="M12.3076923,6.34920635 L37.6923077,6.34920635 L37.6923077,3.57142857 C37.6923077,2.91507937 37.1746154,2.38095238 36.5384615,2.38095238 L13.4615385,2.38095238 C12.8253846,2.38095238 12.3076923,2.91507937 12.3076923,3.57142857 L12.3076923,6.34920635 Z M12.3076923,38.0952381 L37.6923077,38.0952381 L37.6923077,8.73015873 L12.3076923,8.73015873 L12.3076923,38.0952381 Z M12.3076923,40.4761905 L12.3076923,46.4285714 C12.3076923,47.0857143 12.8253846,47.6190476 13.4615385,47.6190476 L36.5384615,47.6190476 C37.1746154,47.6190476 37.6923077,47.0857143 37.6923077,46.4285714 L37.6923077,40.4761905 L12.3076923,40.4761905 Z M36.5384615,50 L13.4615385,50 C11.5530769,50 10,48.3984127 10,46.4285714 L10,3.57142857 C10,1.60238095 11.5530769,0 13.4615385,0 L36.5384615,0 C38.4469231,0 40,1.60238095 40,3.57142857 L40,46.4285714 C40,48.3984127 38.4469231,50 36.5384615,50 Z" transform="translate(25.000000, 25.000000) rotate(-360.000000) translate(-25.000000, -25.000000)"></path>
        <path d="M24.5,42 C23.672,42 23,42.672 23,43.5 C23,44.328 23.672,45 24.5,45 C25.328,45 26,44.328 26,43.5 C26,42.672 25.328,42 24.5,42" transform="translate(24.500000, 43.500000) rotate(-360.000000) translate(-24.500000, -43.500000)"></path>
    </g>
</svg>