<?xml version="1.0" encoding="iso-8859-1"?>
<!-- Generator: Adobe Illustrator 21.1.0, SVG Export Plug-In . SVG Version: 6.00 Build 0)  -->
<svg version="1.1" id="Layer_1" xmlns="http://www.w3.org/2000/svg" xmlns:xlink="http://www.w3.org/1999/xlink"
	 viewBox="0 0 71 71" width="71px" height="71px" xml:space="preserve">
<g id="Elements">
	<g id="Icon-3-Copy" transform="translate(-2.000000, -15.000000)">
		<g id="Money" transform="translate(2.000000, 15.000000)">
			<g id="Group-3" transform="translate(25.000000, 16.000000)">
				<g id="Clip-2">
				</g>
				<defs>
					<filter id="Adobe_OpacityMaskFilter" filterUnits="userSpaceOnUse" x="-4.687" y="-4.407" width="30.307" height="47.599">
						<feColorMatrix  type="matrix" values="1 0 0 0 0  0 1 0 0 0  0 0 1 0 0  0 0 0 1 0"/>
					</filter>
				</defs>
				<mask maskUnits="userSpaceOnUse" x="-4.687" y="-4.407" width="30.307" height="47.599" id="mask-2">
					<g style="filter:url(#Adobe_OpacityMaskFilter);">
						<path id="path-1" style="fill:#FFFFFF;" d="M8.682,2.393v3.675H7.857c-4.155,0-7.544,3.388-7.544,7.543
							s3.389,7.544,7.544,7.544h5.234c2.175,0,3.945,1.77,3.945,3.944c0,2.175-1.77,3.945-3.945,3.945H3.688
							c-0.99,0-1.8,0.809-1.8,1.799c0,0.991,0.81,1.8,1.8,1.8h4.979v3.749c0,0.991,0.81,1.801,1.8,1.801s1.799-0.81,1.799-1.801
							v-3.749h0.87h0.045c4.109-0.06,7.439-3.42,7.439-7.544c0-4.169-3.375-7.543-7.529-7.543H7.857
							c-2.175,0-3.944-1.77-3.944-3.945s1.769-3.944,3.944-3.944h9.238c0.99,0,1.8-0.81,1.8-1.8s-0.81-1.799-1.8-1.799h-4.814V2.393
							c0-0.99-0.81-1.8-1.8-1.8C9.492,0.593,8.682,1.403,8.682,2.393z"/>
					</g>
				</mask>
				<polygon id="Fill-1" style="mask:url(#mask-2);fill:#FFFFFF;" points="-4.687,43.192 25.62,43.192 25.62,-4.407 -4.687,-4.407 
									"/>
			</g>
			<g id="Group-6">
				<g id="Clip-5">
				</g>
				<defs>
					<filter id="Adobe_OpacityMaskFilter_1_" filterUnits="userSpaceOnUse" x="-4.778" y="-4.889" width="80.488" height="80.488">
						<feColorMatrix  type="matrix" values="1 0 0 0 0  0 1 0 0 0  0 0 1 0 0  0 0 0 1 0"/>
					</filter>
				</defs>
				<mask maskUnits="userSpaceOnUse" x="-4.778" y="-4.889" width="80.488" height="80.488" id="mask-4">
					<g style="filter:url(#Adobe_OpacityMaskFilter_1_);">
						<path id="path-3" style="fill:#FFFFFF;" d="M10.54,10.429C3.881,17.088,0.222,25.937,0.222,35.355
							c0,9.419,3.659,18.268,10.318,24.926c6.659,6.659,15.508,10.318,24.927,10.318c9.418,0,18.267-3.659,24.925-10.318
							c6.659-6.658,10.319-15.507,10.319-24.926c0-9.418-3.66-18.267-10.319-24.926C53.734,3.77,44.885,0.111,35.467,0.111
							C26.048,0.111,17.199,3.77,10.54,10.429z M3.822,35.355c0-17.441,14.203-31.644,31.645-31.644s31.644,14.203,31.644,31.644
							C67.111,52.797,52.909,67,35.467,67S3.822,52.797,3.822,35.355z"/>
					</g>
				</mask>
				<polygon id="Fill-4" style="mask:url(#mask-4);fill:#318BF4;" points="-4.778,75.599 75.71,75.599 75.71,-4.889 -4.778,-4.889 
									"/>
			</g>
		</g>
	</g>
</g>
</svg>
