<?xml version="1.0" encoding="UTF-8"?>
<svg width="51px" height="52px" viewBox="0 0 51 52" version="1.1" xmlns="http://www.w3.org/2000/svg" xmlns:xlink="http://www.w3.org/1999/xlink">
    <!-- Generator: Sketch 52.1 (67048) - http://www.bohemiancoding.com/sketch -->
    <title>Group 11</title>
    <desc>Created with Sketch.</desc>
    <defs>
        <polygon points="0.0730172225 -3.97660819e-05 19.623007 -3.97660819e-05 19.623007 31.8128655 0.0730172225 31.8128655"></polygon>
        <polygon points="0.0100822989 0.0297251462 35.6801149 0.0297251462 35.6801149 35.6324887 0.0100822989 35.6324887"></polygon>
    </defs>
    <g stroke="none" stroke-width="1" fill="none" fill-rule="evenodd">
        <g transform="translate(-650.000000, -1595.000000)">
            <g transform="translate(650.000000, 1595.273438)">
                <path d="M35.2622068,23.8233029 L33.14999,23.8233029 L33.14999,17.8849345 C33.14999,17.6598585 33.0603416,17.4441275 32.9009666,17.2850632 L30.8890564,15.2770749 L33.5580896,11.9464667 L36.5500564,11.9464667 L36.5500564,18.7332444 C36.5500564,19.2017883 36.9305643,19.5815544 37.4000232,19.5815544 L38.2984002,19.5815544 L35.2622068,23.8233029 Z M40.7064568,18.3447298 C40.5606287,18.0620924 40.268574,17.8845368 39.9500232,17.8849345 L38.24999,17.8849345 L38.24999,11.0981567 C38.24999,10.6297123 37.8694822,10.2498468 37.4000232,10.2498468 L33.14999,10.2498468 C32.8918025,10.249648 32.6475604,10.3667591 32.4861932,10.5679754 L29.0861268,14.8096246 C28.8154881,15.1472386 28.8426814,15.6339754 29.1490799,15.9396772 L31.4500564,18.236069 L31.4500564,24.6716129 C31.4500564,25.1401567 31.8305643,25.5199228 32.3000232,25.5199228 L35.7000896,25.5199228 C35.9743143,25.519724 36.2316053,25.3873029 36.3910799,25.1645135 L40.6410135,19.226145 C40.8264861,18.9676655 40.8517869,18.6274667 40.7064568,18.3447298 Z" ic="Fill-1" fill="#9E66C4"></path>
                <g transform="translate(31.376953, 19.157409)">
                    <mask fill="white">
                        <use xlink:href="#path-1"></use>
                    </mask>
                    <g></g>
                    <path d="M17.9230734,17.1475918 L9.80132344,30.1161064 L1.77297287,30.1161064 L1.77300703,25.6267146 C1.76394258,22.459048 3.55940156,19.5614924 6.40305,18.1545684 C6.50445234,18.1035684 6.59469844,18.0331825 6.66910664,17.947586 L10.4873332,13.4997497 C10.9172473,13.0023754 11.6591379,12.920855 12.1872668,13.313048 C12.7399992,13.7262175 12.8523586,14.508317 12.438382,15.0599719 C12.4157707,15.0900947 12.3919641,15.1193228 12.3666633,15.1471591 L7.93295039,20.232048 C7.62426094,20.5851708 7.66091719,21.1211181 8.01453047,21.4291064 C8.36834297,21.7371942 8.90533711,21.7007088 9.21392695,21.3476854 L15.1639934,14.5609076 C15.3001594,14.4049251 15.3745676,14.2045041 15.3729738,13.9976211 L15.3729738,2.96919415 C15.3729738,2.26642807 15.9439348,1.69667953 16.6480734,1.69667953 C17.3522121,1.69667953 17.9230734,2.26642807 17.9230734,2.96919415 L17.9230734,17.1475918 Z M16.6480734,-3.97660819e-05 C15.0050168,-3.97660819e-05 13.6730402,1.32934035 13.6730402,2.96919415 L13.6730402,12.3858023 C13.5342844,12.2239544 13.3780969,12.0776152 13.2072668,11.9497673 C11.96205,11.0226211 10.2105188,11.2140947 9.19609688,12.3883871 L5.48664375,16.712352 C2.15042695,18.4360129 0.0605226563,21.8773696 0.0730734375,25.6267146 L0.0730734375,30.9645158 C0.0730734375,31.4329602 0.45358125,31.8129251 0.923040234,31.8129251 L10.2730734,31.8129251 C10.5661242,31.8129251 10.8385559,31.6622117 10.9939465,31.4141708 L19.4939133,17.8407146 C19.5782824,17.7058082 19.623007,17.5500246 19.623007,17.3909602 L19.623007,2.96919415 C19.623007,1.32934035 18.2910305,-3.97660819e-05 16.6480734,-3.97660819e-05 Z" ic="Fill-3" fill="#9E66C4" mask="url(#mask-2)"></path>
                </g>
                <g transform="translate(7.669922, 0.069690)">
                    <mask ic="mask-4" fill="white">
                        <use xlink:href="#path-3"></use>
                    </mask>
                    <g></g>
                    <path d="M30.7075084,27.5678462 C27.6514928,31.5864076 22.8848854,33.9427468 17.830108,33.9337 C8.9411666,33.9642205 1.71072129,26.7971795 1.68014121,17.9255655 C1.67506113,16.4549164 1.87248691,14.9905304 2.26664121,13.5734661 L5.9300748,13.5734661 L5.9300748,16.9669047 C5.9299752,17.2244895 6.04731504,17.468355 6.2488248,17.6294076 L10.180108,20.7682439 L10.180108,23.753583 C10.1799088,24.1189339 10.41419,24.4432263 10.7614283,24.5586474 L12.7300084,25.2135947 L12.7300084,27.9953316 C12.7300084,28.3423901 12.9416783,28.6547526 13.2647115,28.7834953 L17.5147447,30.4801152 C17.7765182,30.5847994 18.0732545,30.5529865 18.3069381,30.3952146 C18.5406217,30.2373433 18.6803736,29.9737936 18.6800748,29.6919515 L18.6800748,20.3602439 C18.6800748,19.8917994 18.299567,19.5119339 17.830108,19.5119339 L11.8800416,19.5119339 L11.8800416,16.1184953 L16.9800416,16.1184953 C17.4495006,16.1184953 17.830108,15.7387292 17.830108,15.2701854 L17.830108,11.0284368 C17.830108,10.8034602 17.74036,10.5877292 17.580985,10.4286649 L14.1810182,7.03532573 C13.8490201,6.70407427 13.3108307,6.70417368 12.9789322,7.03552456 C12.8196568,7.19458889 12.7300084,7.41031988 12.7300084,7.63509766 L12.7300084,9.33171754 L11.0300748,9.33171754 L11.0300748,3.21519708 C13.1578307,2.21776433 15.4793268,1.69931404 17.830108,1.69672924 C18.1172818,1.69672924 18.396985,1.72466491 18.6800748,1.73997485 L18.6800748,5.93837836 C18.6800748,6.2054076 18.8061803,6.45682865 19.0200416,6.61708596 L22.420108,9.1621152 C22.7584811,9.41532573 23.2319244,9.38172339 23.5310514,9.08317953 L27.6110514,5.01113275 C34.7071236,10.3866123 36.0934869,20.4856064 30.7075084,27.5678462 Z M13.8486217,23.7968287 L11.8800416,23.1419807 L11.8800416,21.2085538 L16.9800416,21.2085538 L16.9800416,28.4390216 L14.4300416,27.4209105 L14.4300416,24.6019924 C14.4301412,24.2366415 14.19586,23.9122497 13.8486217,23.7968287 Z M9.3300416,4.13568246 L9.3300416,10.1801269 C9.3300416,10.6486708 9.71064902,11.0284368 10.180108,11.0284368 L13.5800748,11.0284368 C14.0495338,11.0284368 14.4300416,10.6486708 14.4300416,10.1801269 L14.4300416,9.68305088 L16.1300748,11.3796708 L16.1300748,14.4218754 L11.0300748,14.4218754 C10.5607154,14.4218754 10.180108,14.8016415 10.180108,15.2701854 L10.180108,18.5948287 L7.63010801,16.5588053 L7.63010801,12.7251561 C7.63010801,12.2566123 7.24950059,11.8768462 6.78014121,11.8768462 L2.83013145,11.8768462 C4.11429551,8.67070585 6.39186387,5.9582614 9.3300416,4.13568246 Z M20.3800084,1.9181269 C22.43236,2.24410936 24.4012389,2.96596316 26.1770748,4.04322632 L22.8501217,7.36359474 L20.3800084,5.5142731 L20.3800084,1.9181269 Z M27.4954049,2.85978772 L27.4291646,2.79357719 L27.4130279,2.80968246 C19.1007252,-2.46359825 8.07914707,-0.0131128655 2.79546738,8.28298655 C-2.4881127,16.579086 -0.0327416016,27.5791795 8.27946152,32.8524602 C16.5917643,38.1258404 27.613442,35.6752556 32.8969225,27.3792556 C34.7176822,24.5204719 35.6830963,21.2026883 35.680108,17.8152146 C35.6748287,11.7659982 32.592317,6.13333158 27.4954049,2.85978772 Z" ic="Fill-6" fill="#9E66C4" mask="url(#mask-4)"></path>
                </g>
                <path d="M17.8500645,49.2735456 L9.82170352,49.2735456 L1.70005312,36.305031 L1.70005312,22.1266333 C1.70005312,21.4238673 2.27091445,20.8541187 2.97505312,20.8541187 C3.67909219,20.8541187 4.24995352,21.4238673 4.24995352,22.1266333 L4.24995352,33.1550602 C4.2497543,33.3607503 4.32436172,33.5593819 4.45993008,33.7140719 L10.4099965,40.5008497 C10.7185863,40.8539725 11.2555805,40.8903585 11.6092934,40.5822708 C11.9630063,40.2742825 11.9995629,39.7383351 11.6908734,39.3853117 L7.2513832,34.2952532 C6.79288125,33.7798848 6.83969766,32.9911246 7.35607266,32.5335164 C7.3820707,32.5105515 7.40896523,32.4886801 7.43665664,32.4679023 C7.9642875,32.0739199 8.70747305,32.1555398 9.13659023,32.6545047 L12.9557133,37.1023409 C13.0299223,37.1881363 13.120268,37.2585222 13.2217699,37.3094228 C16.065518,38.7173409 17.8603793,41.6159901 17.8500199,44.7841538 L17.8500645,49.2735456 Z M14.1363832,35.8697912 L10.4261332,31.5492064 C9.41181094,30.3750135 7.66077773,30.1835398 6.41576016,31.1105865 C6.24522891,31.2373409 6.0889418,31.3824871 5.94998672,31.5431421 L5.94998672,22.1266333 C5.94998672,20.4867795 4.61810977,19.1573994 2.97505312,19.1573994 C1.33189687,19.1573994 1.9921875e-05,20.4867795 1.9921875e-05,22.1266333 L1.9921875e-05,36.5483994 C1.9921875e-05,36.7074637 0.0447445312,36.8632474 0.129213281,36.9980544 L8.62918008,50.5716099 C8.7845707,50.8196509 9.05700234,50.9702649 9.35005312,50.9702649 L18.6999867,50.9702649 C19.1694457,50.9702649 19.5499535,50.5903994 19.5499535,50.121955 L19.5499535,44.7841538 C19.5625043,41.0347094 17.4726,37.593452 14.1363832,35.8697912 Z" ic="Fill-9" fill="#9E66C4"></path>
            </g>
        </g>
    </g>
</svg>