<?xml version="1.0" encoding="iso-8859-1"?>
<!-- Generator: Adobe Illustrator 21.1.0, SVG Export Plug-In . SVG Version: 6.00 Build 0)  -->
<svg version="1.1" xmlns="http://www.w3.org/2000/svg" xmlns:xlink="http://www.w3.org/1999/xlink"
	 viewBox="0 0 75 100" xml:space="preserve">
<title>Sim</title>
<desc>Created with Sketch.</desc>
<g>
	<g>
		<g transform="translate(0.937500, 0.925781)">
			<path class="fill" style="fill:#318BF4;" d="M69.685,90.181c0,2.26-1.839,4.099-4.099,4.099H8.198
				c-2.26,0-4.099-1.839-4.099-4.099V8.198c0-2.26,1.839-4.099,4.099-4.099h42.184l19.303,19.295V90.181z M73.184,21.096L52.68,0.6
				C52.296,0.216,51.776,0,51.231,0H8.198C3.677,0,0,3.677,0,8.198v81.982c0,4.521,3.677,8.198,8.198,8.198h57.388
				c4.521,0,8.198-3.677,8.198-8.198V22.545C73.784,22.001,73.568,21.48,73.184,21.096z"/>
			<path class="fill" style="fill:#318BF4;" d="M37.121,64.339c1.198,0,2.174-1.07,2.174-2.385V42.007h17.023l-0.004,20.525
				c0,10.725-8.725,19.451-19.45,19.451c-10.725,0-19.451-8.726-19.451-19.451V42.007h6.593v20.631
				c0,7.09,5.768,12.858,12.858,12.858c7.09,0,12.858-5.768,12.858-12.858V48.159h-4.347v14.479c0,4.693-3.818,8.512-8.512,8.512
				c-4.694,0-8.512-3.818-8.512-8.512V37.661H13.066v24.872c0,13.122,10.675,23.797,23.797,23.797
				c13.122,0,23.797-10.675,23.797-23.796l0.005-24.872H34.948v24.293C34.948,63.269,35.923,64.339,37.121,64.339"/>
		</g>
	</g>
</g>
</svg>
