<?xml version="1.0" encoding="iso-8859-1"?>
<!-- Generator: Adobe Illustrator 21.1.0, SVG Export Plug-In . SVG Version: 6.00 Build 0)  -->
<svg version="1.1" xmlns="http://www.w3.org/2000/svg" xmlns:xlink="http://www.w3.org/1999/xlink"
	 viewBox="0 0 76 101" xml:space="preserve">
<title>Sim3</title>
<desc>Created with Sketch.</desc>
<g>
	<g>
		<g transform="translate(0.779523, 0.425781)">
			<path style="fill:#018AFF;" d="M70.826,91.657c0,2.297-1.87,4.166-4.166,4.166H8.333
				c-2.297,0-4.166-1.87-4.166-4.166V8.333c0-2.297,1.87-4.166,4.166-4.166h42.875l19.619,19.61V91.657z M74.382,21.442L53.543,0.61
				C53.152,0.22,52.623,0,52.07,0H8.333C3.737,0,0,3.737,0,8.333v83.325c0,4.595,3.737,8.332,8.333,8.332H66.66
				c4.595,0,8.332-3.737,8.332-8.333V22.914C74.992,22.361,74.772,21.832,74.382,21.442z"/>
			<path style="fill:#FFFFFF;" d="M65.943,89.793H10.22c-0.304,0-0.553-0.249-0.553-0.554V71.208
				c0-0.305,0.249-0.554,0.553-0.554h55.723c0.305,0,0.554,0.249,0.554,0.554V89.24C66.497,89.544,66.248,89.793,65.943,89.793"/>
			<path style="fill:#FFFFFF;" d="M65.943,66.798H10.22c-0.304,0-0.553-0.249-0.553-0.554V48.213
				c0-0.304,0.249-0.553,0.553-0.553h55.723c0.305,0,0.554,0.249,0.554,0.553v18.032C66.497,66.549,66.248,66.798,65.943,66.798"/>
			<path style="fill:#018AFF;" d="M56.256,23.589H10.221c-0.304,0-0.554,0.261-0.554,0.579v18.859
				c0,0.319,0.249,0.579,0.554,0.579h55.723c0.305,0,0.554-0.261,0.554-0.579v-8.727L56.256,23.589z M54.586,27.495l8.005,8.373
				v3.833H13.573V27.495H54.586z"/>
		</g>
	</g>
</g>
</svg>
