<?xml version="1.0" encoding="iso-8859-1"?>
<!-- Generator: Adobe Illustrator 21.1.0, SVG Export Plug-In . SVG Version: 6.00 Build 0)  -->
<svg version="1.1" xmlns="http://www.w3.org/2000/svg" xmlns:xlink="http://www.w3.org/1999/xlink"
	 viewBox="0 0 166 129" xml:space="preserve">
<title>Sim2</title>
<desc>Created with Sketch.</desc>
<g>
	<g transform="translate(45.000000, 14.000000)">
		<g transform="translate(-44.157038, -13.901627)">
			<path style="fill:#018AFF;" d="M115.491,105.843c0,2.296-1.869,4.164-4.164,4.164H53.028
				c-2.296,0-4.164-1.869-4.164-4.164V22.559c0-2.296,1.869-4.164,4.164-4.164h42.854l19.609,19.601V105.843z M119.045,35.662
				L98.216,14.841c-0.39-0.39-0.919-0.61-1.472-0.61H53.028c-4.593,0-8.328,3.735-8.328,8.328v83.284
				c0,4.593,3.735,8.328,8.328,8.328h58.299c4.593,0,8.328-3.735,8.328-8.328V37.134C119.655,36.581,119.435,36.052,119.045,35.662z
				"/>
			<path style="fill:#FFFFFF;" d="M82.41,79.591c1.217,0,2.208-1.087,2.208-2.423V56.905h17.293l-0.004,20.851
				c0,10.895-8.864,19.759-19.759,19.759c-10.896,0-19.76-8.864-19.76-19.76V56.905h6.697v20.958c0,7.202,5.86,13.062,13.062,13.062
				c7.203,0,13.062-5.859,13.062-13.062V63.154h-4.416v14.709c0,4.768-3.879,8.647-8.647,8.647c-4.768,0-8.647-3.879-8.647-8.647
				V52.489H57.973v25.266c0,13.33,10.845,24.175,24.175,24.175c13.33,0,24.175-10.844,24.175-24.174l0.005-25.267H80.203v24.679
				C80.203,78.504,81.193,79.591,82.41,79.591"/>
			<path style="fill:#FFFFFF;" d="M162.403,66.153h-25.961c-1.078,0-1.952-0.874-1.952-1.952
				c0-1.078,0.874-1.952,1.952-1.952h25.961c1.078,0,1.952,0.874,1.952,1.952C164.355,65.279,163.481,66.153,162.403,66.153"/>
			<path style="fill:#FFFFFF;" d="M27.913,66.153H1.952C0.874,66.153,0,65.279,0,64.201
				c0-1.078,0.874-1.952,1.952-1.952h25.961c1.078,0,1.952,0.874,1.952,1.952C29.865,65.279,28.991,66.153,27.913,66.153"/>
			<path style="fill:#FFFFFF;" d="M38.286,22.261c-0.5,0-0.999-0.191-1.38-0.572L18.548,3.332
				c-0.762-0.762-0.762-1.998,0-2.761c0.762-0.762,1.998-0.762,2.761,0l18.357,18.357c0.762,0.762,0.762,1.998,0,2.76
				C39.285,22.071,38.785,22.261,38.286,22.261"/>
			<path style="fill:#FFFFFF;" d="M144.426,128.402c-0.5,0-0.999-0.191-1.38-0.572l-18.357-18.357
				c-0.762-0.762-0.762-1.998,0-2.76c0.762-0.762,1.998-0.762,2.76,0l18.357,18.357c0.762,0.762,0.762,1.998,0,2.76
				C145.425,128.211,144.926,128.402,144.426,128.402"/>
			<path style="fill:#FFFFFF;" d="M19.928,128.402c-0.5,0-0.999-0.191-1.38-0.572c-0.762-0.762-0.762-1.998,0-2.76
				l18.357-18.357c0.762-0.762,1.998-0.762,2.761,0c0.762,0.762,0.762,1.998,0,2.76L21.309,127.83
				C20.928,128.211,20.428,128.402,19.928,128.402"/>
			<path style="fill:#FFFFFF;" d="M126.069,22.261c-0.5,0-0.999-0.191-1.38-0.572c-0.762-0.762-0.762-1.998,0-2.76
				l18.357-18.357c0.762-0.762,1.998-0.762,2.76,0c0.762,0.762,0.762,1.998,0,2.76L127.45,21.69
				C127.068,22.071,126.569,22.261,126.069,22.261"/>
		</g>
	</g>
</g>
</svg>
