<?xml version="1.0" encoding="UTF-8"?>
<svg width="51px" height="51px" viewBox="0 0 51 51" version="1.1" xmlns="http://www.w3.org/2000/svg" xmlns:xlink="http://www.w3.org/1999/xlink">
    <!-- Generator: Sketch 52.1 (67048) - http://www.bohemiancoding.com/sketch -->
    <title>Group 10</title>
    <desc>Created with Sketch.</desc>
    <defs>
        <polygon points="0 0 50.9999004 0 50.9999004 51 0 51"></polygon>
        <polygon points="0 51 50.9999004 51 50.9999004 0 0 0"></polygon>
    </defs>
    <g stroke="none" stroke-width="1" fill="none" fill-rule="evenodd">
        <g transform="translate(-289.000000, -1723.000000)">
            <g transform="translate(289.000000, 1723.000000)">
                <g>
                    <mask fill="white">
                        <use xlink:href="#path-1"></use>
                    </mask>
                    <g></g>
                    <path d="M25.4999502,2.12505645 C12.6109951,2.12505645 2.1250166,12.611035 2.1250166,25.49999 C2.1250166,38.3889451 12.6109951,48.8750232 25.4999502,48.8750232 C38.3889053,48.8750232 48.8749834,38.3890447 48.8749834,25.49999 C48.8749834,12.6109354 38.3890049,2.12505645 25.4999502,2.12505645 M25.4999502,51.0000896 C11.4394893,51.0000896 -4.98046875e-05,39.5615467 -4.98046875e-05,25.49999 C-4.98046875e-05,11.4395291 11.4394893,-9.9609375e-06 25.4999502,-9.9609375e-06 C39.5615068,-9.9609375e-06 50.9999502,11.4395291 50.9999502,25.49999 C50.9999502,39.5615467 39.5615068,51.0000896 25.4999502,51.0000896" ic="Fill-1" fill="#9E66C4" mask="url(#mask-2)"></path>
                </g>
                <path d="M25.4999502,23.3750232 C24.3285439,23.3750232 23.3748838,24.3285838 23.3748838,25.49999 C23.3748838,26.672492 24.3284443,27.6250564 25.4999502,27.6250564 C26.6724521,27.6249568 27.624917,26.672492 27.624917,25.49999 C27.624917,24.3285838 26.6724521,23.3750232 25.4999502,23.3750232 M25.4999502,29.7500232 C23.1559424,29.7500232 21.249917,27.8430018 21.249917,25.49999 C21.249917,23.1560818 23.1559424,21.2500564 25.4999502,21.2500564 C27.8428623,21.2500564 29.7499834,23.1560818 29.7499834,25.49999 C29.7499834,27.8429021 27.8428623,29.7500232 25.4999502,29.7500232" ic="Fill-4" fill="#9E66C4"></path>
                <path d="M25.3785562,11.0202932 C24.7912594,11.0202932 24.316023,10.5450568 24.316023,9.95775996 L24.316023,5.70782637 C24.316023,5.12052949 24.7912594,4.64529316 25.3785562,4.64529316 C25.964857,4.64529316 26.4420855,5.12052949 26.4420855,5.70782637 L26.4420855,9.95775996 C26.4420855,10.5450568 25.964857,11.0202932 25.3785562,11.0202932 M31.5990621,11.8358947 C31.4620992,11.8358947 31.3251363,11.8099963 31.192357,11.7550119 C30.6506812,11.5297951 30.3933902,10.9082326 30.6175113,10.3666564 L32.2444312,6.4445373 C32.4706441,5.90186543 33.0932027,5.64557051 33.6327867,5.8696916 C34.1743629,6.0949084 34.4316539,6.7164709 34.2075328,7.25804707 L32.5806129,11.1801662 C32.4103805,11.5889631 32.0161266,11.8358947 31.5990621,11.8358947 M19.4009977,11.8358947 C18.9848297,11.8358947 18.588484,11.5889631 18.4194469,11.1801662 L16.7946187,7.25595527 C16.5704977,6.71338301 16.8277887,6.0917209 17.3693648,5.8675998 C17.9078531,5.64557051 18.5335992,5.90086934 18.7577203,6.44244551 L20.382648,10.3666564 C20.6067691,10.9093283 20.3493785,11.5308908 19.8078023,11.7550119 C19.6749234,11.8099963 19.5368648,11.8358947 19.4009977,11.8358947 M14.2285816,15.2910451 C13.9567477,15.2910451 13.6848141,15.1872521 13.4774273,14.9798654 L10.4756988,11.9760451 C10.0606266,11.5609729 10.0606266,10.8875139 10.4756988,10.4735373 C10.8906715,10.0585646 11.5630348,10.0585646 11.978107,10.4735373 L14.9798355,13.4773576 C15.3949078,13.8924299 15.3949078,14.5658889 14.9798355,14.9798654 C14.7722496,15.1872521 14.5004156,15.2910451 14.2285816,15.2910451 M40.2235406,20.4634611 C39.8063766,20.4634611 39.412023,20.2165295 39.2419898,19.8078322 C39.0178687,19.2650607 39.2751598,18.6435979 39.8168355,18.4194768 L43.7430387,16.794549 C44.2868062,16.5725197 44.907273,16.8288146 45.1313941,17.3693947 C45.3555152,17.9120666 45.0981246,18.5336291 44.5565484,18.7577502 L40.6303453,20.3825783 C40.4974664,20.4375627 40.3584117,20.4634611 40.2235406,20.4634611 M10.7733316,20.4634611 C10.6374645,20.4634611 10.4995055,20.4375627 10.3656305,20.3825783 L6.44351133,18.7545627 C5.90193516,18.5294455 5.64454453,17.907883 5.86976133,17.3652111 C6.09597422,16.8225393 6.71544492,16.56734 7.25911289,16.7914611 L11.181232,18.4194768 C11.7228082,18.6445939 11.9801988,19.2661564 11.754982,19.8088283 C11.5847496,20.2176252 11.1894996,20.4634611 10.7733316,20.4634611 M27.7536422,24.3077854 C27.4818082,24.3077854 27.2099742,24.2039924 27.0023883,23.9965061 C26.587316,23.5815334 26.587316,22.9091701 27.0023883,22.4940979 L37.5194449,11.9780373 C37.9345172,11.5630646 38.6068805,11.5630646 39.0218531,11.9780373 C39.4369254,12.3931096 39.4369254,13.0654729 39.0218531,13.4805451 L28.5047965,23.9965061 C28.2973102,24.2039924 28.0254762,24.3077854 27.7536422,24.3077854 M45.6854215,26.5645354 L41.4374801,26.5624436 C40.8501832,26.5624436 40.3749469,26.0873068 40.3749469,25.4989143 C40.3749469,24.9126135 40.8501832,24.4373771 41.4374801,24.4373771 L45.6854215,24.4394689 C46.2727184,24.4394689 46.7479547,24.915801 46.7479547,25.5020021 C46.7479547,26.089299 46.2727184,26.5645354 45.6854215,26.5645354 M9.44115586,26.9567971 L5.19112266,26.9567971 C4.60382578,26.9567971 4.12858945,26.4815607 4.12858945,25.8942639 C4.12858945,25.306967 4.60382578,24.8317307 5.19112266,24.8317307 L9.44115586,24.8317307 C10.0284527,24.8317307 10.5035895,25.306967 10.5035895,25.8942639 C10.5035895,26.4815607 10.0283531,26.9567971 9.44115586,26.9567971 M6.84922031,34.2863537 C6.43205625,34.2863537 6.03670664,34.0395217 5.86766953,33.6306252 C5.64354844,33.089049 5.90083945,32.4664904 6.44251523,32.2423693 L10.3666266,30.6174416 C10.9092984,30.3891369 11.5308609,30.6507111 11.754982,31.1922873 C11.9791031,31.7338635 11.7218121,32.3565217 11.1801363,32.5806428 L7.256025,34.2055705 C7.12304648,34.2613518 6.98518711,34.2863537 6.84922031,34.2863537 M44.147652,34.2885451 C44.0106891,34.2885451 43.8737262,34.2636428 43.7409469,34.2075627 L39.8168355,32.5806428 C39.2751598,32.3565217 39.0178687,31.7338635 39.2419898,31.1922873 C39.4682027,30.6486193 40.0948453,30.3891369 40.6303453,30.6174416 L44.5544566,32.2443615 C45.0961324,32.4684826 45.3534234,33.0911408 45.1293023,33.6328166 C44.9591695,34.0414143 44.564816,34.2885451 44.147652,34.2885451" ic="Fill-6" fill="#9E66C4"></path>
                <mask fill="white">
                    <use xlink:href="#path-3"></use>
                </mask>
                <g></g>
                <path d="M17.0000332,40.3749668 L34.0000664,40.3749668 L34.0000664,36.1249336 L17.0000332,36.1249336 L17.0000332,40.3749668 Z M35.0625,42.4999336 L15.9375,42.4999336 C15.3502031,42.4999336 14.8749668,42.0247969 14.8749668,41.4375 L14.8749668,35.0624004 C14.8749668,34.4751035 15.3502031,33.9998672 15.9375,33.9998672 L35.0625996,33.9998672 C35.6497969,33.9998672 36.1250332,34.4752031 36.1250332,35.0624004 L36.1250332,41.4375 C36.1249336,42.0247969 35.6497969,42.4999336 35.0625,42.4999336 Z" ic="Fill-8" fill="#9E66C4" mask="url(#mask-4)"></path>
            </g>
        </g>
    </g>
</svg>