<?xml version="1.0" encoding="UTF-8"?>
<svg viewBox="0 0 50 50" version="1.1" xmlns="http://www.w3.org/2000/svg" xmlns:xlink="http://www.w3.org/1999/xlink">
    <g stroke="none" stroke-width="1" fill="#000" fill-rule="evenodd" class="fill">
        <path d="M24.816,47.6122 L24.792,47.6122 L24.792,47.6362 C20.237,47.6002 15.798,46.1882 12.061,43.5842 C11.863,43.4472 11.629,43.3722 11.389,43.3682 C11.239,43.3392 11.084,43.3392 10.934,43.3682 L3.429,46.5812 L6.57,39.1002 C6.73,38.7212 6.685,38.2872 6.45,37.9502 C3.81,34.2382 2.394,29.7962 2.398,25.2422 C2.384,12.8742 12.4,2.8372 24.768,2.8232 C37.136,2.8102 47.173,12.8262 47.187,25.1942 C47.2,37.5622 37.184,47.5992 24.816,47.6122 M38.383,4.5262 C34.345,1.8782 29.621,0.4692 24.792,0.4732 C11.115,0.4872 0.026,11.5642 1.43164323e-15,25.2422 C-0.005,30.0562 1.422,34.7632 4.1,38.7642 L0.096,48.3552 C-0.15,48.9702 0.149,49.6682 0.763,49.9142 C1.049,50.0282 1.368,50.0282 1.654,49.9142 L11.245,45.9102 C22.673,53.4042 38.012,50.2152 45.506,38.7872 C53,27.3592 49.811,12.0192 38.383,4.5262 M32.4269,18.7499 C31.9059,14.9559 28.6209,12.1569 24.7919,12.2459 C20.6569,12.2329 17.2899,15.5669 17.2629,19.7029 C17.2629,20.3649 17.8009,20.9019 18.4629,20.9019 C19.1249,20.9019 19.6609,20.3649 19.6609,19.7029 C19.7139,16.8699 22.0539,14.6159 24.8869,14.6689 C27.7209,14.7219 29.9749,17.0619 29.9219,19.8959 C29.8689,22.6899 27.5889,24.9299 24.7919,24.9309 C24.1299,24.9309 23.5939,25.4669 23.5939,26.1289 L23.5939,31.4999 C23.5939,32.1619 24.1299,32.6989 24.7919,32.6989 C25.4539,32.6989 25.9909,32.1619 25.9909,31.4999 L25.9909,27.2319 C30.1109,26.6669 32.9919,22.8689 32.4269,18.7499 M24.692,35.6884 C25.417,35.6884 26.004,36.2754 26.004,37.0004 C26.004,37.7254 25.417,38.3124 24.692,38.3124 C23.967,38.3124 23.38,37.7254 23.38,37.0004 C23.38,36.2754 23.967,35.6884 24.692,35.6884"></path>
    </g>
</svg>