<?xml version="1.0" encoding="UTF-8"?>
<svg viewBox="0 0 24 20" version="1.1" xmlns="http://www.w3.org/2000/svg" xmlns:xlink="http://www.w3.org/1999/xlink">
    <g stroke="none" stroke-width="1" fill="#000" fill-rule="evenodd" class="fill">
        <g transform="translate(-1155.000000, -168.000000)">
            <g transform="translate(1099.890625, 166.000000)">
                <g transform="translate(55.575946, 2.767448)">
                    <path d="M20.1323141,2.93284412 C21.0992621,2.35336989 21.8414654,1.43553827 22.1914817,0.342326388 C21.2863013,0.878637729 20.2843765,1.26859214 19.2179554,1.4784531 C18.3638758,0.568311417 17.1468807,0 15.8003969,0 C13.2145924,0 11.1182153,2.09637703 11.1182153,4.68193351 C11.1182153,5.04906616 11.1593937,5.4062763 11.239518,5.74885076 C7.34840801,5.55387355 3.89711306,3.68968311 1.5886425,0.85680822 C1.18554078,1.54865481 0.954346435,2.35287376 0.954346435,3.21092229 C0.954346435,4.8352362 1.78113908,6.26804578 3.03732809,7.10798574 C2.27031853,7.08367561 1.54796024,6.87331852 0.91664092,6.522558 C0.916144794,6.54190689 0.916144794,6.56150383 0.916144794,6.58134884 C0.916144794,8.84988132 2.5305362,10.7423509 4.67206062,11.1722434 C4.27937753,11.2794064 3.86585717,11.3369569 3.43844531,11.3369569 C3.13704925,11.3369569 2.84383926,11.3074375 2.55757502,11.2528637 C3.15366945,13.1128371 4.88316189,14.4667628 6.93166284,14.5042202 C5.32893039,15.7604092 3.31069307,16.5088141 1.11657938,16.5088141 C0.738780035,16.5088141 0.366438073,16.4864885 4.961252e-05,16.4428294 C2.07186845,17.7717008 4.53240138,18.5471445 7.17749288,18.5471445 C15.7892341,18.5471445 20.4989506,11.4121199 20.4989506,5.22469448 C20.4989506,5.0222754 20.4947336,4.82010438 20.4855552,4.61892561 C21.4001621,3.9590791 22.1937143,3.13451901 22.8218088,2.19535401 C21.9816208,2.56794404 21.0796652,2.81947951 20.1323141,2.93284412 Z"></path>
                </g>
            </g>
        </g>
    </g>
</svg>