<?xml version="1.0" encoding="iso-8859-1"?>
<!-- Generator: Adobe Illustrator 23.0.0, SVG Export Plug-In . SVG Version: 6.00 Build 0)  -->
<svg version="1.1" ic="Layer_1" xmlns="http://www.w3.org/2000/svg" xmlns:xlink="http://www.w3.org/1999/xlink" x="0px" y="0px"
	 viewBox="0 0 39 30" style="enable-background:new 0 0 39 30;" xml:space="preserve">
<title>upoint-insurance</title>
<desc>Created with Sketch.</desc>
<g>
	<g transform="translate(-255.000000, -1303.000000)">
		<g transform="translate(255.000000, 1303.000000)">
			<path class="stroke" style="fill:none;stroke:#FFFFFF;stroke-width:1.5;stroke-linecap:round;stroke-linejoin:round;" d="
				M13.635,26.153c0,1.494,1.208,2.706,2.706,2.706c1.496,0,2.704-1.212,2.706-2.706l-0.002-12.372"/>
			<path class="stroke" style="fill:none;stroke:#FFFFFF;stroke-width:1.5;stroke-linecap:round;stroke-linejoin:round;" d="
				M6.651,13.782c2.828,0,5.1,0.738,5.936,1.82c0.974-1.188,3.784-1.82,6.458-1.82c2.676,0,5.486,0.632,6.462,1.82
				c0.834-1.082,3.106-1.82,5.936-1.82c2.788,0,5.036,0.718,5.9,1.776C36.809,7.306,28.825,0.75,19.045,0.75
				c-9.778,0-17.762,6.556-18.294,14.808C1.611,14.5,3.861,13.782,6.651,13.782z"/>
			<path class="stroke" style="fill:none;stroke:#FFFFFF;stroke-width:1.5;stroke-linejoin:round;" d="M12.58,15.596
				c0,0-1.484-9.728,6.464-14.846"/>
			<path class="stroke" style="fill:none;stroke:#FFFFFF;stroke-width:1.5;stroke-linejoin:round;" d="M25.512,15.596
				c0,0,1.484-9.728-6.464-14.846"/>
		</g>
	</g>
</g>
</svg>
