<?xml version="1.0" encoding="utf-8"?>
<!-- Generator: Adobe Illustrator 23.0.1, SVG Export Plug-In . SVG Version: 6.00 Build 0)  -->
<svg version="1.1" ic="Layer_1" xmlns="http://www.w3.org/2000/svg" xmlns:xlink="http://www.w3.org/1999/xlink" x="0px" y="0px"
	 viewBox="0 0 43 43" style="enable-background:new 0 0 43 43;" xml:space="preserve">
<style type="text/css">
	.fill {fill:#FFFFFF;}
</style>
<path class="fill" d="M21.5,10.5c-6,0-10.8,4.8-10.8,10.6s4.8,10.6,10.8,10.6c6,0,10.8-4.8,10.8-10.6S27.5,10.5,21.5,10.5z M21.5,30
	c-5,0-9-4-9-8.9s4-8.9,9-8.9c5,0,9,4,9,8.9S26.5,30,21.5,30z M20.7,19h3.1c0.5,0,0.9-0.4,0.9-0.9c0-0.5-0.4-0.9-0.9-0.9h-1.4v-1.4
	c0-0.5-0.4-0.9-0.9-0.9s-0.9,0.4-0.9,0.9v1.4c-1.3,0.1-2.3,1.1-2.3,2.4c0,1.3,1.1,2.4,2.4,2.4h1.5c0.3,0,0.6,0.3,0.6,0.6
	c0,0.3-0.3,0.6-0.6,0.6h-3c-0.5,0-0.9,0.4-0.9,0.9s0.4,0.9,0.9,0.9h1.4v1.4c0,0.5,0.4,0.9,0.9,0.9s0.9-0.4,0.9-0.9V25
	c1.3-0.1,2.3-1.1,2.3-2.4c0-1.3-1.1-2.4-2.4-2.4h-1.5c-0.3,0-0.6-0.3-0.6-0.6C20.1,19.3,20.4,19,20.7,19z M42.1,20.2h-2.2
	c-0.5-9.3-8-16.7-17.5-17.2V0.9C22.4,0.4,22,0,21.5,0s-0.9,0.4-0.9,0.9v2.2c-9.5,0.5-17,7.9-17.5,17.2H0.9c-0.5,0-0.9,0.4-0.9,0.9
	S0.4,22,0.9,22h2.2c0.5,9.3,8,16.7,17.5,17.2v2.2c0,0.5,0.4,0.9,0.9,0.9s0.9-0.4,0.9-0.9v-2.2c9.5-0.5,17-7.9,17.5-17.2h2.2
	c0.5,0,0.9-0.4,0.9-0.9S42.6,20.2,42.1,20.2z M36,22h2.1c-0.5,8.3-7.2,15-15.7,15.4v-2.1c0-0.5-0.4-0.9-0.9-0.9s-0.9,0.4-0.9,0.9
	v2.1C12.1,37,5.4,30.4,4.9,22H7c0.5,0,0.9-0.4,0.9-0.9S7.5,20.2,7,20.2H4.9c0.5-8.3,7.2-15,15.7-15.4v2.1c0,0.5,0.4,0.9,0.9,0.9
	s0.9-0.4,0.9-0.9V4.8c8.5,0.5,15.2,7.1,15.7,15.4H36c-0.5,0-0.9,0.4-0.9,0.9S35.5,22,36,22z"/>
</svg>
