<?xml version="1.0" encoding="UTF-8"?>
<svg width="38px" height="47px" viewBox="0 0 38 47" version="1.1" xmlns="http://www.w3.org/2000/svg" xmlns:xlink="http://www.w3.org/1999/xlink">
    <!-- Generator: Sketch 52 (66869) - http://www.bohemiancoding.com/sketch -->
    <title>Group 8</title>
    <desc>Created with Sketch.</desc>
    <defs>
        <polygon points="0 0 38 0 38 46.9999816 0 46.9999816"></polygon>
    </defs>
    <g stroke="none" stroke-width="1" fill="none" fill-rule="evenodd">
        <g transform="translate(-673.000000, -1292.000000)">
            <g transform="translate(673.000000, 1292.000000)">
                <g>
                    <path d="M28.047619,39.380841 C27.5481905,39.380841 27.1428571,39.792091 27.1428571,40.2988098 C27.1428571,40.8056203 27.5481905,41.2167785 28.047619,41.2167785 C28.5470476,41.2167785 28.952381,40.8056203 28.952381,40.2988098 C28.952381,39.792091 28.5470476,39.380841 28.047619,39.380841" fill="#8986CA"></path>
                    <path d="M9.95238095,39.380841 C9.45295238,39.380841 9.04761905,39.792091 9.04761905,40.2988098 C9.04761905,40.8056203 9.45295238,41.2167785 9.95238095,41.2167785 C10.4518095,41.2167785 10.8571429,40.8056203 10.8571429,40.2988098 C10.8571429,39.792091 10.4518095,39.380841 9.95238095,39.380841" fill="#8986CA"></path>
                    <g>
                        <mask fill="white">
                            <use xlink:href="#path-1"></use>
                        </mask>
                        <g></g>
                        <path d="M36.1904762,45.1640441 L32.5714286,45.1640441 L32.5714286,33.2415578 C34.7806762,34.8302863 36.1904762,37.5065324 36.1904762,40.2988098 L36.1904762,45.1640441 Z M30.7619048,45.1640441 L28.952381,45.1640441 L28.952381,43.052716 C28.952381,42.5458137 28.547319,42.1347473 28.047619,42.1347473 C27.547919,42.1347473 27.1428571,42.5458137 27.1428571,43.052716 L27.1428571,45.1640441 L19.9047619,45.1640441 L19.9047619,36.9941223 L24.8162619,31.7617004 L27.1428571,31.7617004 L27.1428571,37.5449035 C27.1428571,38.0518977 27.547919,38.4628723 28.047619,38.4628723 C28.547319,38.4628723 28.952381,38.0518977 28.952381,37.5449035 L28.952381,31.8160441 C29.5697905,31.8898488 30.1746238,32.0396613 30.7619048,32.2643801 L30.7619048,45.1640441 Z M14.4761905,30.4765441 L14.4761905,28.7667355 C15.8723286,29.5281906 17.4100619,29.9257629 19,29.9257629 C20.5900286,29.9257629 22.1278524,29.5280988 23.5238095,28.7668273 L23.5238095,30.4765441 L19,35.2958801 L14.4761905,30.4765441 Z M18.0952381,45.1640441 L10.8571429,45.1640441 L10.8571429,43.052716 C10.8571429,42.5458137 10.452081,42.1347473 9.95238095,42.1347473 C9.45268095,42.1347473 9.04761905,42.5458137 9.04761905,43.052716 L9.04761905,45.1640441 L7.23809524,45.1640441 L7.23809524,32.2642883 C7.82528571,32.0395695 8.43020952,31.8898488 9.04761905,31.8160441 L9.04761905,37.5449035 C9.04761905,38.0518977 9.45268095,38.4628723 9.95238095,38.4628723 C10.452081,38.4628723 10.8571429,38.0518977 10.8571429,37.5449035 L10.8571429,31.7617004 L13.1837381,31.7617004 L18.0952381,36.9941223 L18.0952381,45.1640441 Z M11.0215381,21.2218586 C11.0197286,21.2118527 11.0180095,21.2019387 11.0158381,21.1921164 C10.9107952,20.6533605 10.8571429,20.1019367 10.8571429,19.552716 L10.8571429,16.7988098 L27.1428571,16.7988098 L27.1428571,19.552716 C27.1428571,20.1014777 27.0892048,20.6525344 26.9841619,21.1917492 C26.9819905,21.2016633 26.9802714,21.2116691 26.9784619,21.221675 C26.5741238,23.2693879 25.4551143,25.1023879 23.8256381,26.384423 C22.4100476,27.5001223 20.7413952,28.0898254 19,28.0898254 C17.2586048,28.0898254 15.5899524,27.5001223 14.1730048,26.3834133 C13.8486476,26.1287688 13.5399429,25.8470441 13.2551238,25.545675 C12.1137667,24.3393723 11.3418238,22.8447355 11.0215381,21.2218586 Z M9.04761905,14.9628723 L8.14285714,14.9628723 C7.64397143,14.9628723 7.23809524,14.5510715 7.23809524,14.0449035 C7.23809524,13.7999895 7.33228095,13.5694875 7.50328095,13.3960832 C7.67437143,13.2224953 7.90146667,13.1269348 8.14285714,13.1269348 L29.8571429,13.1269348 C30.3560286,13.1269348 30.7619048,13.5387355 30.7619048,14.0449035 C30.7619048,14.2898176 30.667719,14.5203195 30.496719,14.6937238 C30.325719,14.8673117 30.0985333,14.9628723 29.8571429,14.9628723 L28.952381,14.9628723 L28.047619,14.9628723 L9.95238095,14.9628723 L9.04761905,14.9628723 Z M9.04761905,20.4706848 C8.04984762,20.4706848 7.23809524,19.6470832 7.23809524,18.6347473 C7.23809524,17.6224113 8.04984762,16.7988098 9.04761905,16.7988098 L9.04761905,19.552716 C9.04761905,19.8587668 9.06191429,20.1653684 9.08887619,20.4706848 L9.04761905,20.4706848 Z M14.4761905,4.41899141 L14.4761905,8.53709102 C14.4761905,9.04408516 14.8812524,9.45505977 15.3809524,9.45505977 C15.8806524,9.45505977 16.2857143,9.04408516 16.2857143,8.53709102 L16.2857143,3.21865547 L16.2857143,3.21149531 L16.2857143,3.02927852 C16.2857143,2.46050508 16.7592667,1.83591914 17.1904762,1.83591914 L20.8095238,1.83591914 C21.2407333,1.83591914 21.7142857,2.46050508 21.7142857,3.02927852 L21.7142857,3.21149531 L21.7142857,3.21865547 L21.7142857,8.53709102 C21.7142857,9.04408516 22.1193476,9.45505977 22.6190476,9.45505977 C23.1187476,9.45505977 23.5238095,9.04408516 23.5238095,8.53709102 L23.5238095,4.41899141 C26.4452857,5.4679543 28.5542857,8.15025898 28.9018048,11.2909973 L9.09819524,11.2909973 C9.44571429,8.15025898 11.5547143,5.4679543 14.4761905,4.41899141 Z M28.952381,20.4706848 L28.9111238,20.4706848 C28.9380857,20.1652766 28.952381,19.8587668 28.952381,19.552716 L28.952381,16.7988098 C29.9501524,16.7988098 30.7619048,17.6224113 30.7619048,18.6347473 C30.7619048,19.6470832 29.9501524,20.4706848 28.952381,20.4706848 Z M5.42857143,45.1640441 L1.80952381,45.1640441 L1.80952381,40.2988098 C1.80952381,37.5066242 3.21932381,34.8303781 5.42857143,33.2416496 L5.42857143,45.1640441 Z M36.3393095,34.6266809 C35.320819,33.0272121 33.9212429,31.7562844 32.2817238,30.9355285 C32.1434762,30.8052687 31.9656905,30.7179699 31.768,30.6956633 C30.5821286,30.1849055 29.3321095,29.9257629 28.047619,29.9257629 L25.3333333,29.9257629 L25.3333333,27.5038859 C26.9040905,26.1364797 28.0333238,24.3253273 28.5808857,22.3066223 L28.952381,22.3066223 C30.9479238,22.3066223 32.5714286,20.6594191 32.5714286,18.6347473 C32.5714286,17.6752863 32.2064476,16.8010129 31.6103905,16.146134 C31.6673,16.0971145 31.7228524,16.0460754 31.7762333,15.992007 C32.2890524,15.4717023 32.5714286,14.7801965 32.5714286,14.0449035 C32.5714286,12.8365812 31.8000286,11.8081809 30.7308714,11.4382395 C30.411219,7.21705195 27.491281,3.60980195 23.4709714,2.47923164 C23.2327476,1.21684102 22.2059333,-1.8359375e-05 20.8095238,-1.8359375e-05 L17.1904762,-1.8359375e-05 C15.7940667,-1.8359375e-05 14.7672524,1.21684102 14.5290286,2.47923164 C10.509081,3.60971016 7.58941429,7.21631758 7.26921905,11.4369543 C6.87999048,11.5708859 6.5230619,11.7942277 6.22376667,12.0978 C5.71094762,12.6181047 5.42857143,13.3096105 5.42857143,14.0449035 C5.42857143,14.8860383 5.8026,15.6398742 6.39033333,16.1453996 C5.79391429,16.8002785 5.42857143,17.6749191 5.42857143,18.6347473 C5.42857143,20.6594191 7.05207619,22.3066223 9.04761905,22.3066223 L9.41658095,22.3066223 C9.87366667,23.9917375 10.7403381,25.5387902 11.9493714,26.8166945 C12.1765571,27.0570187 12.4174048,27.2859602 12.6666667,27.5031516 L12.6666667,29.9257629 L9.95238095,29.9257629 C8.6678,29.9257629 7.41778095,30.1849055 6.232,30.6955715 C6.0344,30.7179699 5.85652381,30.805177 5.71836667,30.9354367 C4.07866667,31.7562844 2.67918095,33.0272121 1.66069048,34.6265891 C0.574252381,36.3328176 0,38.2942414 0,40.2988098 L0,46.0820129 C0,46.5889152 0.405061905,46.9999816 0.904761905,46.9999816 L37.0952381,46.9999816 C37.5949381,46.9999816 38,46.5889152 38,46.0820129 L38,40.2988098 C38,38.2942414 37.4257476,36.3328176 36.3393095,34.6266809 Z" fill="#8986CA" mask="url(#mask-2)"></path>
                    </g>
                </g>
            </g>
        </g>
    </g>
</svg>