<?xml version="1.0" encoding="UTF-8"?>
<svg width="46px" height="46px" viewBox="0 0 46 46" version="1.1" xmlns="http://www.w3.org/2000/svg" xmlns:xlink="http://www.w3.org/1999/xlink">
    <!-- Generator: Sketch 52 (66869) - http://www.bohemiancoding.com/sketch -->
    <title>Group 6</title>
    <desc>Created with Sketch.</desc>
    <defs>
        <polygon points="0 0 46 0 46 45.999982 0 45.999982"></polygon>
    </defs>
    <g stroke="none" stroke-width="1" fill="none" fill-rule="evenodd">
        <g transform="translate(-924.000000, -1291.000000)">
            <g transform="translate(924.000000, 1291.000000)">
                <g>
                    <g>
                        <g >
                            <mask fill="white">
                                <use xlink:href="#path-1"></use>
                            </mask>
                            <g></g>
                            <path d="M23,44.0048219 C11.4168945,44.0048219 1.99516016,34.5831773 1.99516016,22.999982 C1.99516016,11.4168766 11.4168945,1.99523203 23,1.99523203 C34.5831953,1.99523203 44.0048398,11.4168766 44.0048398,22.999982 C44.0048398,34.5831773 34.5831953,44.0048219 23,44.0048219 M23,-1.796875e-05 C10.3084023,-1.796875e-05 0,10.3083844 0,22.999982 C0,35.6915797 10.3084023,45.999982 23,45.999982 C35.6915977,45.999982 46,35.6915797 46,22.999982 C46,10.3083844 35.6915977,-1.796875e-05 23,-1.796875e-05" fill="#8986CA" mask="url(#mask-2)"></path>
                        </g>
                        <path d="M34.0289312,25.9927313 L33.9734977,25.9927313 L26.9903023,25.9927313 C26.4361461,25.9927313 25.9927672,26.4362 25.9927672,26.9903563 L25.9927672,33.9734617 L20.0071969,33.9734617 L20.0071969,26.9903563 C20.0071969,26.4362 19.5639078,25.9928211 19.0096617,25.9928211 L12.0265562,25.9928211 L12.0265562,20.0072508 L19.0096617,20.0072508 C19.5639078,20.0072508 20.0071969,19.5638719 20.0071969,19.0096258 L20.0071969,12.0265203 L26.0482008,12.0265203 L26.0482008,19.0096258 C26.0482008,19.5638719 26.4914898,20.0072508 27.0457359,20.0072508 L34.0289312,20.0072508 L34.0289312,25.9927313 Z M34.9710328,18.0120008 L27.9880172,18.0120008 L27.9880172,11.0288953 C27.9880172,10.4746492 27.5445484,10.0313602 26.9903023,10.0313602 L19.0096617,10.0313602 C18.4554156,10.0313602 18.0120367,10.4746492 18.0120367,11.0288953 L18.0120367,18.0120008 L11.0289312,18.0120008 C10.4746852,18.0120008 10.0313063,18.4553797 10.0313063,19.0096258 L10.0313063,26.9903563 C10.0313063,27.5445125 10.4746852,27.9879813 11.0289312,27.9879813 L18.0120367,27.9879813 L18.0120367,34.9710867 C18.0120367,35.5253328 18.4554156,35.9686219 19.0096617,35.9686219 L26.9903023,35.9686219 C27.5445484,35.9686219 27.9879273,35.5253328 27.9879273,34.9710867 L27.9879273,27.9879813 L34.9710328,27.9879813 C35.5252789,27.9879813 35.9686578,27.5445125 35.9686578,26.9903563 L35.9686578,19.0096258 C35.9133141,18.4553797 35.4698453,18.0120008 34.9710328,18.0120008 Z" fill="#8986CA"></path>
                    </g>
                </g>
            </g>
        </g>
    </g>
</svg>