<?xml version="1.0" encoding="iso-8859-1"?>
<!-- Generator: Adobe Illustrator 23.0.0, SVG Export Plug-In . SVG Version: 6.00 Build 0)  -->
<svg version="1.1" xmlns="http://www.w3.org/2000/svg" xmlns:xlink="http://www.w3.org/1999/xlink" x="0px" y="0px"
	 viewBox="0 0 26 33" style="enable-background:new 0 0 26 33;" xml:space="preserve">
<title>upoint-gas</title>
<desc>Created with Sketch.</desc>
<g>
	<g transform="translate(-260.000000, -1304.000000)">
		<g transform="translate(239.000000, 1292.000000)">
			<g transform="translate(21.000000, 12.000000)">
				<g>
				</g>
				<defs>
					<filter filterUnits="userSpaceOnUse" x="-0.001" y="-0.001" width="25.444" height="32.544">
						<feColorMatrix  type="matrix" values="1 0 0 0 0  0 1 0 0 0  0 0 1 0 0  0 0 0 1 0"/>
					</filter>
				</defs>
				<mask maskUnits="userSpaceOnUse" x="-0.001" y="-0.001" width="25.444" height="32.544">
					<g style="filter:url(#Adobe_OpacityMaskFilter);">
						<polygon style="fill-rule:evenodd;clip-rule:evenodd;fill:#FFFFFF;" points="0,0 25.444,0 25.444,32.542 
							0,32.542 						"/>
					</g>
				</mask>
				<path style="mask:url(#mask-2_1_);fill-rule:evenodd;clip-rule:evenodd;fill:#FFFFFF;" d="M12.233,2.113
					c-0.878,5.872-3.862,9.074-6.514,11.918c-2.332,2.5-4.168,4.468-4.218,7.822c-0.046,3.178,1.42,5.642,4.358,7.324
					c2.296,1.314,5.02,1.82,6.29,1.838l1.772,0.026c1.6,0.026,4.122-0.66,6.298-2.234c1.674-1.21,3.676-3.342,3.724-6.626
					c0.042-2.78-1.098-4.842-1.86-5.902c-0.968,1.936-2.794,3.888-5.272,3.888h-0.04c-0.384-0.004-0.754-0.134-1.038-0.368
					c-0.566-0.462-0.758-1.224-0.48-1.898c0.012-0.028,1.316-3.282,0.888-7.16C15.683,6.579,13.525,3.575,12.233,2.113z
					 M14.005,32.543c-0.034,0-0.07-0.002-0.106-0.002l-1.774-0.026c-1.224-0.018-4.268-0.466-7.012-2.038
					c-3.398-1.944-5.166-4.934-5.112-8.644c0.058-3.934,2.27-6.304,4.612-8.816c2.784-2.986,5.652-6.062,6.258-12.114
					c0.034-0.382,0.284-0.702,0.644-0.838c0.354-0.138,0.758-0.054,1.038,0.214c0.002,0,0.002,0.002,0.004,0.002
					c1.032,0.998,4.458,4.688,5.076,10.296c0.47,4.28-0.932,7.752-0.992,7.896l0.136,0.944l0.006-0.75h0.026
					c1.924,0,3.508-1.862,4.224-3.714c0.13-0.332,0.414-0.562,0.76-0.622c0.35-0.06,0.692,0.062,0.92,0.326
					c0.654,0.742,2.788,3.486,2.73,7.546c-0.044,3.048-1.588,5.824-4.346,7.818C18.973,31.559,16.203,32.543,14.005,32.543z"/>
			</g>
		</g>
	</g>
</g>
</svg>
