<?xml version="1.0" encoding="UTF-8"?>
<svg width="46px" height="42px" viewBox="0 0 46 42" version="1.1" xmlns="http://www.w3.org/2000/svg" xmlns:xlink="http://www.w3.org/1999/xlink">
    <!-- Generator: Sketch 52 (66869) - http://www.bohemiancoding.com/sketch -->
    <title>Group 6</title>
    <desc>Created with Sketch.</desc>
    <defs>
        <polygon points="0 0.0334394904 46 0.0334394904 46 41.9108013 0 41.9108013"></polygon>
    </defs>
    <g stroke="none" stroke-width="1" fill="none" fill-rule="evenodd">
        <g transform="translate(-668.000000, -1389.000000)">
            <g transform="translate(668.000000, 1386.000000)">
                <g transform="translate(0.000000, 3.000000)">
                    <g >
                        <g transform="translate(0.000000, 0.055732)">
                            <mask fill="white">
                                <use xlink:href="#path-1"></use>
                            </mask>
                            <g ></g>
                            <path d="M39.8196484,6.16755287 C35.8350781,2.2127758 30.5349258,0.0334127389 24.9036094,0.0334127389 C19.1680742,0.0334127389 13.801707,2.27849554 9.79817969,6.35543822 C9.36279688,6.79692866 9.37223047,7.51083949 9.81713672,7.95232994 C10.2619531,8.38445732 10.9812422,8.37509427 11.4260586,7.93360382 C15.0036367,4.29824076 19.7832344,2.29731083 24.9036094,2.29731083 C35.2861328,2.28794777 43.7285703,10.6671707 43.7285703,20.9720624 C43.7285703,31.2770433 35.2861328,39.6562662 24.9036094,39.6562662 C14.5209961,39.6562662 6.07855859,31.2770433 6.07855859,20.9720624 L6.07855859,20.7372726 L7.95260938,22.5973108 C8.17030078,22.8132854 8.46364063,22.9259987 8.75707031,22.9259987 C9.05041016,22.9259987 9.33440625,22.8132854 9.56153125,22.5973108 C10.0064375,22.1557312 10.0064375,21.4418204 9.56153125,21.0002408 L5.75682813,17.2146229 C5.31201172,16.7731325 4.59263281,16.7731325 4.14781641,17.2146229 L0.333589844,21.0002408 C-0.111226562,21.4418204 -0.111226562,22.1557312 0.333589844,22.5973108 C0.778496094,23.0388013 1.49778516,23.0388013 1.94260156,22.5973108 L3.8165625,20.7372726 L3.8165625,20.9720624 C3.8165625,26.561451 6.01234375,31.8219732 9.99691406,35.7766611 C13.9814844,39.7314382 19.2816367,41.9108013 24.913043,41.9108013 C30.5444492,41.9108013 35.8446016,39.7314382 39.829082,35.7766611 C43.8136523,31.8219732 46,26.561451 46,20.9720624 C46,15.3828522 43.8043086,10.1223299 39.8196484,6.16755287" fill="#8986CA" mask="url(#mask-2)"></path>
                        </g>
                        <path d="M30.9419629,13.4095121 L16.9912051,27.2465057 C16.5463887,27.6879962 16.5463887,28.4019962 16.9912051,28.8434866 C17.2088965,29.0595503 17.5023262,29.1722637 17.795666,29.1722637 C18.0890957,29.1722637 18.3730918,29.0595503 18.600127,28.8434866 L32.5508848,14.9970408 C32.9957012,14.5555503 32.9957012,13.8416395 32.5508848,13.400149 C32.1060684,12.9680217 31.3867793,12.9680217 30.9419629,13.4095121" fill="#8986CA"></path>
                        <path d="M31.434082,26.8426102 C31.0933945,27.1807503 30.6485781,27.3592726 30.1658477,27.3592726 C29.683207,27.3592726 29.2383906,27.1713873 28.8976133,26.8426102 C28.1972813,26.1474255 28.1972813,25.0202025 28.8976133,24.325107 C29.2383906,23.9869669 29.683207,23.8084446 30.1658477,23.8084446 C30.6485781,23.8084446 31.0933945,23.9962408 31.434082,24.325107 C32.1345039,25.0202025 32.1345039,26.1474255 31.434082,26.8426102 M27.2886016,22.7281261 C25.7080703,24.2968395 25.7080703,26.8614255 27.2886016,28.4301389 C28.0553281,29.1910433 29.0774805,29.6137185 30.1658477,29.6137185 C31.2542148,29.6137185 32.276457,29.1910433 33.0430039,28.4301389 C34.623625,26.8614255 34.623625,24.2968395 33.0430039,22.7281261 C32.276457,21.9672217 31.2542148,21.5445465 30.1658477,21.5445465 C29.0774805,21.5445465 28.0646719,21.9672217 27.2886016,22.7281261" fill="#8986CA"></path>
                        <path d="M20.9473668,17.7024828 C20.6066793,18.0406229 20.161773,18.2191452 19.6791324,18.2191452 C19.196402,18.2191452 18.7515855,18.0312599 18.410898,17.7024828 C18.0702105,17.3643427 17.8903434,16.9227631 17.8903434,16.4437312 C17.8903434,15.9646102 18.0796441,15.5231197 18.410898,15.1849796 C18.7515855,14.8467503 19.196402,14.6683172 19.6791324,14.6683172 C20.161773,14.6683172 20.6066793,14.8562025 20.9473668,15.1849796 C21.2880543,15.5231197 21.4679215,15.9646102 21.4679215,16.4437312 C21.4679215,16.9134 21.2880543,17.3643427 20.9473668,17.7024828 M19.6791324,12.4043299 C18.5907652,12.4043299 17.568523,12.8270943 16.8018863,13.5879987 C16.0352496,14.3489032 15.6093902,15.3634127 15.6093902,16.4437312 C15.6093902,17.5239605 16.0352496,18.5384701 16.8018863,19.2993745 C17.568523,20.060279 18.5907652,20.4830433 19.6791324,20.4830433 C20.7675895,20.4830433 21.7897418,20.060279 22.5563785,19.2993745 C23.3229254,18.5384701 23.7488746,17.5239605 23.7488746,16.4437312 C23.7488746,15.3634127 23.3229254,14.3489032 22.5563785,13.5879987 C21.7803082,12.8270943 20.7675895,12.4043299 19.6791324,12.4043299" fill="#8986CA"></path>
                    </g>
                </g>
            </g>
        </g>
    </g>
</svg>