<?xml version="1.0" encoding="UTF-8"?>
<svg width="34px" height="35px" viewBox="0 0 34 35" version="1.1" xmlns="http://www.w3.org/2000/svg" xmlns:xlink="http://www.w3.org/1999/xlink">
    <!-- Generator: Sketch 52 (66869) - http://www.bohemiancoding.com/sketch -->
    <title>Fill 4</title>
    <desc>Created with Sketch.</desc>
    <g stroke="none" stroke-width="1" fill="none" fill-rule="evenodd">
        <g transform="translate(-444.000000, -1299.000000)" fill="#8986CA" stroke="#FFFFFF" stroke-width="0.8">
            <g transform="translate(445.000000, 1292.000000)">
                <g transform="translate(0.000000, 8.000000)">
                    <path d="M16.1722215,18.0884703 C16.9773051,18.0884703 17.6329918,17.3622527 17.6329918,16.4707002 L17.6329918,2.94672755 L29.0784593,2.94672755 L29.0743094,16.8641553 C29.0743094,24.1347032 23.2104785,30.0511796 16,30.0511796 C8.78952146,30.0511796 2.92361561,24.1347032 2.92361561,16.8641553 L2.92361561,2.94672755 L7.35572559,2.94672755 L7.35572559,16.935312 C7.35572559,21.7425799 11.2338218,25.6541096 16,25.6541096 C20.7661782,25.6541096 24.6442744,21.7425799 24.6442744,16.935312 L24.6442744,7.11777017 L21.7206588,7.11777017 L21.7206588,16.935312 C21.7206588,20.1164384 19.1539359,22.707382 15.997925,22.707382 C12.8439891,22.707382 10.2772662,20.1185312 10.2772662,16.935312 L10.2772662,0 L0,0 L0,16.8641553 C0,25.7608447 7.17727921,33 15.997925,33 C24.8206458,33 31.9958501,25.7608447 31.9958501,16.8641553 L32,0 L14.7114512,0 L14.7114512,16.472793 C14.7114512,17.3622527 15.3671379,18.0884703 16.1722215,18.0884703"></path>
                </g>
            </g>
        </g>
    </g>
</svg>