<?xml version="1.0" encoding="UTF-8"?>
<svg width="46px" height="31px" viewBox="0 0 46 31" version="1.1" xmlns="http://www.w3.org/2000/svg" xmlns:xlink="http://www.w3.org/1999/xlink">
    <!-- Generator: Sketch 52 (66869) - http://www.bohemiancoding.com/sketch -->
    <title>Group 6</title>
    <desc>Created with Sketch.</desc>
    <defs>
        <polygon points="0 0.0601924198 45.9104211 0.0601924198 45.9104211 30.9096029 0 30.9096029"></polygon>
    </defs>
    <g stroke="none" stroke-width="1" fill="none" fill-rule="evenodd">
        <g transform="translate(-438.000000, -1395.000000)">
            <g transform="translate(438.000000, 1386.000000)">
                <g transform="translate(0.000000, 9.000000)">
                    <g >
                        <g transform="translate(0.000000, 0.030187)">
                            <mask fill="white">
                                <use xlink:href="#path-1"></use>
                            </mask>
                            <g ></g>
                            <path d="M41.1280351,28.9814571 L4.7822963,28.9814571 C3.2002729,28.9814571 1.91290058,27.6839761 1.91290058,26.0893289 L1.91290058,13.5568332 L43.9974308,13.5568332 L43.9973411,26.0893289 L43.9974308,26.0893289 C43.9974308,27.6839761 42.7100585,28.9814571 41.1280351,28.9814571 Z M4.7822963,1.98832012 L41.1279454,1.98832012 C42.7099688,1.98832012 43.9973411,3.28589155 43.9973411,4.8804484 L43.9973411,5.8444309 L1.91290058,5.8444309 L1.91290058,4.8804484 C1.91290058,3.28589155 3.2002729,1.98832012 4.7822963,1.98832012 Z M1.91290058,11.6286875 L43.9973411,11.6286875 L43.9973411,7.7724863 L1.91290058,7.7724863 L1.91290058,11.6286875 Z M45.9104211,6.80850379 C45.9104211,6.80732886 45.9102417,6.80624431 45.9102417,6.80497901 L45.9102417,4.8804484 C45.9103314,2.2234863 43.7640234,0.060174344 41.1280351,0.060174344 L4.7822963,0.060174344 C2.14630799,0.060174344 0,2.2234863 0,4.8804484 L0,6.80850379 L0,12.5927603 L0,26.0894192 C0,28.746291 2.14630799,30.9096029 4.7822963,30.9096029 L41.1279454,30.9096029 C43.7639337,30.9096029 45.9102417,28.746291 45.9102417,26.0894192 L45.9102417,12.5962851 C45.9102417,12.5951102 45.9104211,12.5939353 45.9104211,12.5927603 L45.9104211,6.80850379 Z" fill="#8986CA" mask="url(#mask-2)"></path>
                        </g>
                        <path d="M18.1728694,19.3712764 L6.69528655,19.3712764 C6.16731774,19.3712764 5.73879142,19.8031977 5.73879142,20.3353493 C5.73879142,20.8675009 6.16731774,21.2993318 6.69528655,21.2993318 L18.1728694,21.2993318 C18.7008382,21.2993318 19.1293645,20.8674105 19.1293645,20.3352589 C19.1293645,19.8031073 18.7008382,19.3712764 18.1728694,19.3712764" fill="#8986CA"></path>
                        <path d="M18.1728694,23.2273872 L6.69528655,23.2273872 C6.16731774,23.2273872 5.73879142,23.6593085 5.73879142,24.1914601 C5.73879142,24.7236117 6.16731774,25.1555329 6.69528655,25.1555329 L18.1728694,25.1555329 C18.7008382,25.1555329 19.1293645,24.7236117 19.1293645,24.1914601 C19.1292749,23.6593085 18.7008382,23.2273872 18.1728694,23.2273872" fill="#8986CA"></path>
                        <path d="M38.2586394,22.2634047 C38.2586394,22.7955563 37.8301131,23.2274776 37.3021442,23.2274776 L35.3892437,23.2274776 C34.8612749,23.2274776 34.4327485,22.7955563 34.4327485,22.2634047 L34.4327485,20.3353493 C34.4327485,19.8031977 34.8612749,19.3712764 35.3892437,19.3712764 L37.3021442,19.3712764 C37.8301131,19.3712764 38.2586394,19.8031977 38.2586394,20.3353493 L38.2586394,22.2634047 Z M37.3021442,17.4431306 L35.3892437,17.4431306 C33.8072203,17.4431306 32.519848,18.740702 32.519848,20.3352589 L32.519848,22.2633143 C32.519848,23.8579615 33.8072203,25.1554426 35.3892437,25.1554426 L37.3021442,25.1554426 C38.8841676,25.1554426 40.17154,23.8579615 40.17154,22.2633143 L40.17154,20.3352589 C40.17154,18.7407924 38.8841676,17.4431306 37.3021442,17.4431306 Z" fill="#8986CA"></path>
                    </g>
                </g>
            </g>
        </g>
    </g>
</svg>