<?xml version="1.0" encoding="UTF-8"?>
<svg width="51px" height="50px" viewBox="0 0 51 50" version="1.1" xmlns="http://www.w3.org/2000/svg" xmlns:xlink="http://www.w3.org/1999/xlink">
    <!-- Generator: Sketch 52.1 (67048) - http://www.bohemiancoding.com/sketch -->
    <title>Group 6</title>
    <desc>Created with Sketch.</desc>
    <g stroke="none" stroke-width="1" fill="none" fill-rule="evenodd">
        <g transform="translate(-650.000000, -1725.000000)" fill="#9E66C4">
            <g transform="translate(650.000000, 1725.000000)">
                <path d="M13.6000664,24.252505 L22.1000332,24.252505 L22.1000332,23.3973948 L13.6000664,23.3973948 L13.6000664,24.252505 Z M13.5999668,28.5277555 L22.0999336,28.5277555 L22.0999336,25.9625251 L13.5999668,25.9625251 L13.5999668,28.5277555 Z M11.9000332,30.2377756 L23.7999668,30.2377756 L23.7999668,21.6873747 L11.9000332,21.6873747 L11.9000332,30.2377756 Z"></path>
                <path d="M18.7000664,37.9331663 L22.1000332,37.9331663 L22.1000332,35.3680361 L18.7000664,35.3680361 L18.7000664,37.9331663 Z M18.6999668,42.2084168 L22.0999336,42.2084168 L22.0999336,39.6431864 L18.6999668,39.6431864 L18.6999668,42.2084168 Z M13.5999668,42.2084168 L16.9999336,42.2084168 L16.9999336,39.6431864 L13.5999668,39.6431864 L13.5999668,42.2084168 Z M13.6000664,37.9331663 L17.0000332,37.9331663 L17.0000332,35.3680361 L13.6000664,35.3680361 L13.6000664,37.9331663 Z M11.9000332,43.9184369 L23.7999668,43.9184369 L23.7999668,33.6579158 L11.9000332,33.6579158 L11.9000332,43.9184369 Z" ></path>
                <path d="M28.9000664,25.9625251 L37.4000332,25.9625251 L37.4000332,23.3973948 L28.9000664,23.3973948 L28.9000664,25.9625251 Z M28.9000664,28.5276553 L37.4000332,28.5276553 L37.4000332,27.6725451 L28.9000664,27.6725451 L28.9000664,28.5276553 Z M27.1999336,30.2377756 L39.0999668,30.2377756 L39.0999668,21.6873747 L27.1999336,21.6873747 L27.1999336,30.2377756 Z"></path>
                <path d="M48.45,46.4835671 L49.2999668,46.4835671 L49.2999668,43.9184369 L48.45,43.9184369 L48.45,46.4835671 Z M45.9,46.4835671 L46.7499668,46.4835671 L46.7499668,43.9184369 L45.9,43.9184369 L45.9,46.4835671 Z M44.1999668,48.1936874 L39.0999668,48.1936874 L39.0999668,33.6579158 L27.1999336,33.6579158 L27.1999336,48.1936874 L6.8000332,48.1936874 L6.8000332,23.7470942 L25.5,9.24639279 L44.1999668,23.7470942 L44.1999668,48.1936874 Z M28.9000664,48.1936874 L37.4000332,48.1936874 L37.4000332,35.3680361 L28.9000664,35.3680361 L28.9000664,48.1936874 Z M4.2500332,46.4835671 L5.10009961,46.4835671 L5.10009961,43.9184369 L4.2500332,43.9184369 L4.2500332,46.4835671 Z M1.7000332,46.4835671 L2.55,46.4835671 L2.55,43.9184369 L1.7000332,43.9184369 L1.7000332,46.4835671 Z M2.47519336,22.9809619 C2.14797656,22.6261523 1.989,22.1652305 2.02725,21.6830661 C2.0655,21.2008016 2.29410352,20.7707415 2.67411328,20.4723447 L24.3440332,3.41422846 L25.5007969,2.33256513 L26.71125,3.46032064 L48.3267832,20.4723447 C48.7058965,20.7707415 48.9352969,21.2008016 48.9735469,21.6830661 C49.0118965,22.1652305 48.852123,22.6269539 48.5256035,22.9809619 C47.9238633,23.6325651 46.9438066,23.7146293 46.2425566,23.1716433 L45.9,22.9066132 L25.5,7.08827655 L5.4315,22.6501002 L5.43070313,22.651002 L4.75833984,23.1716433 C4.05619336,23.7146293 3.0770332,23.6325651 2.47519336,22.9809619 Z M50.1500332,40.4981964 C49.6799766,40.4981964 49.3000664,40.8813627 49.3000664,41.3534068 L49.3000664,42.2084168 L48.45,42.2084168 L48.45,41.3534068 C48.45,40.8813627 48.0700898,40.4981964 47.5999336,40.4981964 C47.129877,40.4981964 46.7499668,40.8813627 46.7499668,41.3534068 L46.7499668,42.2084168 L45.9,42.2084168 L45.9,24.9330661 C46.3428633,25.1331663 46.8120234,25.2433868 47.2820801,25.2433868 C48.1941035,25.2433868 49.10025,24.8706413 49.7700234,24.1455912 C50.4160898,23.4461924 50.7433066,22.4995992 50.6685,21.5478958 C50.5927969,20.5971944 50.1211465,19.7139279 49.374873,19.1256513 L27.8137266,2.16072144 L25.5,0 L23.2415566,2.11362725 L1.62602344,19.1256513 C0.878853516,19.7139279 0.407103516,20.5971944 0.332296875,21.5478958 C0.257490234,22.4995992 0.584806641,23.4461924 1.23077344,24.1455912 C2.24569336,25.2451904 3.79860352,25.5221443 5.10079687,24.9338677 L5.10079687,42.2092184 L4.2500332,42.2092184 L4.2500332,41.3541082 C4.2500332,40.8821643 3.87002344,40.4990982 3.3999668,40.4990982 C2.93000977,40.4990982 2.55,40.8821643 2.55,41.3541082 L2.55,42.2092184 L1.7000332,42.2092184 L1.7000332,41.3541082 C1.7000332,40.8821643 1.32002344,40.4990982 0.849966797,40.4990982 C0.379910156,40.4990982 0,40.8821643 0,41.3541082 L0,49.049499 C0,49.5215431 0.379910156,49.9046092 0.849966797,49.9046092 C1.32002344,49.9046092 1.7000332,49.5215431 1.7000332,49.049499 L1.7000332,48.194489 L2.55,48.194489 L2.55,49.049499 C2.55,49.5215431 2.93000977,49.9046092 3.3999668,49.9046092 C3.87002344,49.9046092 4.2500332,49.5215431 4.2500332,49.049499 L4.2500332,48.194489 L5.1,48.194489 L5.1,49.9046092 L27.1999336,49.9046092 L39.0999668,49.9046092 L45.9,49.9046092 L45.9,48.194489 L46.7499668,48.194489 L46.7499668,49.049499 C46.7499668,49.5215431 47.129877,49.9046092 47.5999336,49.9046092 C48.0700898,49.9046092 48.45,49.5215431 48.45,49.049499 L48.45,48.194489 L49.3000664,48.194489 L49.3000664,49.049499 C49.3000664,49.5215431 49.6799766,49.9046092 50.1500332,49.9046092 C50.6200898,49.9046092 51,49.5215431 51,49.049499 L51,41.3541082 C51,40.8813627 50.6200898,40.4981964 50.1500332,40.4981964 Z" ></path>
            </g>
        </g>
    </g>
</svg>