<?xml version="1.0" encoding="UTF-8"?>
<svg viewBox="0 0 78 60" width="78px" height="60px" version="1.1" xmlns="http://www.w3.org/2000/svg" xmlns:xlink="http://www.w3.org/1999/xlink" xml:space="preserve">
    <defs>
        <polygon points="0.270612964 0.643837384 15.5588928 0.643837384 15.5588928 13.5986908 0.270612964 13.5986908"></polygon>
        <polygon points="0 0.646432309 77.8834107 0.646432309 77.8834107 23.7640763 0 23.7640763"></polygon>
    </defs>
    <g stroke="none" stroke-width="1" fill="none" fill-rule="evenodd">
        <g transform="translate(-329.000000, -1649.000000)">
            <g transform="translate(329.000000, 1648.683594)">
                <g transform="translate(30.906115, 46.331358)">
                    <mask fill="white">
                        <use xlink:href="#path-1"></use>
                    </mask>
                    <g></g>
                    <path d="M3.79638358,5.40374883 L3.79885607,5.40745757 C3.79761983,5.40622132 3.79761983,5.40498508 3.79638358,5.40374883 Z M12.0223552,5.40993005 L12.0198828,5.41240254 L12.0223552,5.40993005 Z M3.86684953,6.19618163 C3.85943206,6.20236285 3.85201459,6.21101656 3.84583337,6.21843403 C3.85325084,6.21101656 3.8606683,6.2035991 3.86684953,6.19618163 Z M11.9976304,6.23945019 C12.0075203,6.25057639 12.0174103,6.26046635 12.0273002,6.27035631 C12.0174103,6.2592301 12.0075203,6.24934015 11.9976304,6.23945019 Z M4.22288798,5.84137942 L7.91307815,9.63294166 L11.5995596,5.84385191 C10.590784,4.93397588 9.32239701,4.41104441 8.00456025,4.35417715 C6.60142261,4.36777585 5.2514435,4.90306976 4.22288798,5.84137942 Z M7.89947946,13.5988144 C7.11817286,13.5988144 6.34181124,13.3070606 5.74965007,12.7260257 L1.14340264,7.99615379 C-0.0211397829,6.80812271 -0.0211397829,4.86721867 1.14834762,3.67424262 C2.86920012,1.77537089 5.39608411,0.652860781 8.03052139,0.645443313 C8.05401003,0.641734579 8.07873493,0.645443313 8.10222357,0.646679557 C10.6216901,0.739397904 13.0348396,1.86190801 14.7260222,3.72863738 C15.8448236,4.86721867 15.8448236,6.80812271 14.6753362,8.00109877 L10.1061761,12.6938833 C9.49052628,13.2984069 8.69191226,13.5988144 7.89947946,13.5988144 Z" fill="#318BF4" mask="url(#mask-2)"></path>
                </g>
                <path d="M38.9412108,39.5839344 C43.0344168,39.5839344 47.1288589,40.830069 50.5866351,43.3223381 L53.0764318,40.5234803 C44.7354893,34.3385485 33.175366,34.3558559 24.856676,40.5791113 L27.2957866,43.3223381 C30.7535628,40.830069 34.8480049,39.5839344 38.9412108,39.5839344 M50.8079229,47.718424 C50.3764735,47.718424 49.9413154,47.5676021 49.5902219,47.2610135 C43.5214971,41.9637053 34.363397,41.9637053 28.293436,47.2610135 C27.5269643,47.9298218 26.3648944,47.8581196 25.6874323,47.0953567 L20.7424539,41.5322559 C20.257846,40.987072 20.1379303,40.2082379 20.4371015,39.5419021 C20.6287194,39.1141615 20.9711591,38.7840841 21.3840648,38.6023562 C31.6288239,29.9585338 46.8457589,30.0599059 56.9730748,38.9039999 C57.3464206,39.2303685 57.5738897,39.6902514 57.6047958,40.183513 C57.6369381,40.6780109 57.4688089,41.1626188 57.1399678,41.5322559 L52.1949893,47.0953567 C51.8290609,47.5082624 51.3197282,47.718424 50.8079229,47.718424" fill="#318BF4"></path>
                <path d="M14.7010501,28.8132768 L17.1327432,31.5490862 C29.9402374,21.48111 48.1921529,21.48111 60.9984109,31.5490862 L63.48079,28.7564096 C49.263977,17.4818587 28.8993195,17.5016386 14.7010501,28.8132768 M61.1925013,35.9736056 C60.7610519,35.9736056 60.3246575,35.8227838 59.9735641,35.5149589 C48.0549298,25.099598 30.0774606,25.0971255 18.15759,35.5161951 C17.3898821,36.1850035 16.2278122,36.1145375 15.5503501,35.3517746 L10.6053717,29.7886738 C10.1207638,29.24349 10.0008481,28.4634196 10.3000192,27.7970838 C10.4916372,27.3718156 10.8303682,27.0429746 11.2408014,26.8612466 C27.3367063,13.0944266 51.3791915,13.1933261 67.3601256,27.1604178 C67.730999,27.4855501 67.958468,27.9466694 67.9893742,28.439931 C68.0215165,28.9331926 67.8533872,29.4190367 67.5245462,29.7886738 L62.5795677,35.3517746 C62.2148756,35.7646803 61.7043065,35.9736056 61.1925013,35.9736056" fill="#318BF4"></path>
                <g transform="translate(0.000000, 0.590307)">
                    <mask fill="white">
                        <use xlink:href="#path-3"></use>
                    </mask>
                    <g ></g>
                    <path d="M4.50685336,16.5383568 L6.98676006,19.3273247 C25.5477367,4.26739278 52.4372933,4.26368405 71.0032149,19.313726 L73.3953482,16.5531918 C63.6920643,8.67213234 51.5620321,4.35516615 39.0240392,4.35516615 C38.9943694,4.35516615 38.9684082,4.35887488 38.9399746,4.35516615 L38.8596187,4.35516615 C26.3290433,4.35516615 14.2076648,8.66718736 4.50685336,16.5383568 M6.80008712,23.7629703 C6.28828185,23.7629703 5.78018532,23.5528088 5.41302067,23.1411393 L0.468042211,17.5780385 C0.139201144,17.2084014 -0.0276918793,16.721321 0.003214236,16.2268232 C0.035356596,15.7335616 0.26406185,15.2724423 0.637407723,14.94731 C11.236969,5.72245269 24.8096987,0.646432309 38.8596187,0.646432309 C38.9152497,0.646432309 38.9684082,0.646432309 39.0240392,0.646432309 C53.0751955,0.646432309 66.6466889,5.72245269 77.2462502,14.94731 C78.0176668,15.6185908 78.1004952,16.7880782 77.4304506,17.5607311 L72.6090966,23.1238319 C72.2852006,23.4959415 71.8277901,23.7246468 71.3357647,23.7592616 C70.8499206,23.7951127 70.3578952,23.6294559 69.9882581,23.3055598 C52.324795,7.8784633 25.6837236,7.87722705 8.01902431,23.3055598 C7.66793084,23.6121485 7.23277274,23.7629703 6.80008712,23.7629703" fill="#318BF4" mask="url(#mask-4)"></path>
                </g>
            </g>
        </g>
    </g>
</svg>