<?xml version="1.0" encoding="UTF-8"?>
<svg width="127px" height="22px" viewBox="0 0 127 22" version="1.1" xmlns="http://www.w3.org/2000/svg" xmlns:xlink="http://www.w3.org/1999/xlink">
    <g stroke="none" stroke-width="1" fill="#FFFFFF" fill-rule="evenodd" class="fill">
        <g transform="translate(-331.000000, -355.000000)">
            <g transform="translate(240.000000, 305.000000)">
                <g transform="translate(26.000000, 27.000000)">
                    <g transform="translate(65.862069, 23.341463)">
                        <path d="M97.9335801,7.16560793 C97.9335801,7.0219372 98.0623011,6.9064372 98.2036143,6.9064372 L98.419082,6.9064372 C98.5184211,6.9064372 98.5897773,6.93460793 98.6625326,7.00785183 L104.488556,13.2617543 L104.516539,13.2617543 L104.516539,7.32336402 C104.516539,7.17969329 104.631268,7.05010793 104.787972,7.05010793 L106.103165,7.05010793 C106.244478,7.05010793 106.373199,7.17969329 106.373199,7.32336402 L106.373199,17.0000104 C106.373199,17.1436811 106.244478,17.2591811 106.103165,17.2591811 L105.901689,17.2591811 C105.80235,17.2591811 105.730993,17.2310104 105.659637,17.159175 L99.8042317,10.6587787 L99.7748498,10.6587787 L99.7748498,16.8422543 C99.7748498,16.985925 99.6601202,17.1155104 99.5034164,17.1155104 L98.2036143,17.1155104 C98.0623011,17.1155104 97.9335801,16.985925 97.9335801,16.8422543 L97.9335801,7.16560793 Z"></path>
                        <path d="M112.39902,15.4186463 C113.112582,15.4186463 113.655449,14.8580488 113.655449,14.1101159 C113.655449,13.3917622 113.112582,12.8593354 112.39902,12.8593354 L110.641699,12.8593354 L110.641699,15.4186463 L112.39902,15.4186463 Z M112.197544,11.2775488 C112.926496,11.2775488 113.398007,10.7028659 113.398007,9.98310366 C113.398007,9.26475 112.926496,8.7604939 112.197544,8.7604939 L110.641699,8.7604939 L110.641699,11.2775488 L112.197544,11.2775488 Z M113.926882,12.0254817 C114.755174,12.3128232 115.64083,12.9889207 115.64083,14.3397073 C115.64083,15.9510732 114.269672,17.1159329 112.527741,17.1159329 L109.070463,17.1159329 C108.91376,17.1159329 108.800429,16.9863476 108.800429,16.8426768 L108.800429,7.32378659 C108.800429,7.18011585 108.91376,7.05053049 109.070463,7.05053049 L112.341655,7.05053049 C114.041612,7.05053049 115.355405,8.19989634 115.355405,9.70984756 C115.355405,10.7887866 114.669826,11.5789756 113.926882,11.9536463 L113.926882,12.0254817 Z"></path>
                        <g transform="translate(117.527851, 6.705057)">
                            <path d="M0.0674386005,0.46055122 C0.0674386005,0.316880488 0.196159581,0.201380488 0.337472831,0.201380488 L0.552940558,0.201380488 C0.652279576,0.201380488 0.723635771,0.22955122 0.796391108,0.302795122 L6.6224146,6.55669756 L6.65039742,6.55669756 L6.65039742,0.618307317 C6.65039742,0.474636585 6.76512699,0.34505122 6.92183079,0.34505122 L8.23702342,0.34505122 C8.37833667,0.34505122 8.50705765,0.474636585 8.50705765,0.618307317 L8.50705765,10.2949537 C8.50705765,10.4386244 8.37833667,10.5541244 8.23702342,10.5541244 L8.0355471,10.5541244 C7.93620808,10.5541244 7.86485189,10.5259537 7.79349569,10.4541183 L1.93809024,3.95372195 L1.90870827,3.95372195 L1.90870827,10.1371976 C1.90870827,10.2808683 1.7939787,10.4104537 1.6372749,10.4104537 L0.337472831,10.4104537 C0.196159581,10.4104537 0.0674386005,10.2808683 0.0674386005,10.1371976 L0.0674386005,0.46055122 Z"></path>
                        </g>
                        <g transform="translate(0.000000, 0.266032)">
                            <path d="M20.2101733,10.9553159 C20.2101733,16.5641085 15.6769562,21.1277671 10.1041772,21.1277671 C4.53279739,21.1277671 0.000979398762,16.5641085 0.000979398762,10.9553159 L0.000979398762,0.337767073 L6.91973208,0.337767073 L6.91973208,10.9989805 C6.91973208,12.7666939 8.34825513,14.2048098 10.1041772,14.2048098 C11.8600993,14.2048098 13.2900215,12.7666939 13.2900215,10.9989805 L13.2900215,4.68451098 L15.7091364,4.68451098 L15.7091364,10.9989805 C15.7091364,14.1090293 13.1948799,16.641578 10.1041772,16.641578 C7.01347454,16.641578 4.499218,14.1090293 4.499218,10.9989805 L4.499218,2.77312683 L2.4186952,2.77312683 L2.4186952,10.9553159 C2.4186952,15.2217732 5.86757798,18.6924073 10.1041772,18.6924073 C14.3421756,18.6924073 17.7896592,15.2217732 17.7896592,10.9553159 L17.7910583,2.77312683 L11.420769,2.77312683 L11.420769,10.7172732 C11.420769,11.4370354 10.8779022,12.021578 10.2119111,12.021578 C9.54172248,12.021578 9.00025488,11.4370354 9.00025488,10.7172732 L9.00025488,0.337767073 L20.2115724,0.337767073 L20.2101733,10.9553159 Z"></path>
                        </g>
                        <path d="M26.351843,1.27553049 C26.351843,1.04312195 26.5365296,0.834658537 26.788375,0.834658537 L32.1974545,0.834658537 C35.0265178,0.834658537 37.349092,3.15170122 37.349092,5.95328049 C37.349092,8.82669512 35.0265178,11.1662744 32.2198407,11.1662744 L29.3446058,11.1662744 L29.3446058,16.6088598 C29.3446058,16.8398598 29.1361338,17.0483232 28.9052755,17.0483232 L26.788375,17.0483232 C26.5365296,17.0483232 26.351843,16.8398598 26.351843,16.6088598 L26.351843,1.27553049 Z M32.103712,8.33934146 C33.3937201,8.33934146 34.3815137,7.29702439 34.3815137,5.9307439 C34.3815137,4.65742683 33.3937201,3.68271951 32.103712,3.68271951 L29.3446058,3.68271951 L29.3446058,8.33934146 L32.103712,8.33934146 Z"></path>
                        <g transform="translate(37.776809, 0.266032)">
                            <path d="M8.98696304,0.33762622 C13.5887381,0.33762622 17.2712774,4.06602256 17.2712774,8.69869939 C17.2712774,13.3313762 13.5887381,17.0146994 8.98696304,17.0146994 C4.38658714,17.0146994 0.727833194,13.3313762 0.727833194,8.69869939 C0.727833194,4.06602256 4.38658714,0.33762622 8.98696304,0.33762622 M8.98696304,14.0032482 C11.8859834,14.0032482 14.2785146,11.6171872 14.2785146,8.69869939 C14.2785146,5.78021159 11.8859834,3.34907744 8.98696304,3.34907744 C6.08794271,3.34907744 3.7177977,5.78021159 3.7177977,8.69869939 C3.7177977,11.6171872 6.08794271,14.0032482 8.98696304,14.0032482"></path>
                        </g>
                        <path d="M57.4061992,1.27482622 C57.4061992,1.04241768 57.611873,0.833954268 57.8427312,0.833954268 L59.982018,0.833954268 C60.2128762,0.833954268 60.41855,1.04241768 60.41855,1.27482622 L60.41855,16.6081555 C60.41855,16.840564 60.2128762,17.0490274 59.982018,17.0490274 L57.8427312,17.0490274 C57.611873,17.0490274 57.4061992,16.840564 57.4061992,16.6081555 L57.4061992,1.27482622 Z"></path>
                        <g transform="translate(62.961349, 0.266032)">
                            <path d="M0.761552495,0.754412195 C0.761552495,0.522003659 0.967226235,0.337485366 1.19808451,0.337485366 L1.54367236,0.337485366 C1.70457359,0.337485366 1.81930316,0.383967073 1.93403273,0.499467073 L11.3208703,10.5761378 L11.3670419,10.5761378 L11.3670419,1.00935732 C11.3670419,0.77694878 11.5517286,0.568485366 11.8049731,0.568485366 L13.9218736,0.568485366 C14.1513327,0.568485366 14.3598047,0.77694878 14.3598047,1.00935732 L14.3598047,16.5976317 C14.3598047,16.8300402 14.1513327,17.0145585 13.9218736,17.0145585 L13.6000711,17.0145585 C13.4391699,17.0145585 13.3244403,16.9694854 13.2083116,16.8525768 L3.77390326,6.38292439 L3.72913074,6.38292439 L3.72913074,16.3426866 C3.72913074,16.5750951 3.54304498,16.7835585 3.29259872,16.7835585 L1.19808451,16.7835585 C0.967226235,16.7835585 0.761552495,16.5750951 0.761552495,16.3426866 L0.761552495,0.754412195 Z"></path>
                        </g>
                        <path d="M83.0689652,3.6146872 L79.5487263,3.6146872 C79.2968809,3.6146872 79.1135934,3.40622378 79.1135934,3.17381524 L79.1135934,1.27510793 C79.1135934,1.04269939 79.2968809,0.834235976 79.5487263,0.834235976 L89.6029541,0.834235976 C89.8589969,0.834235976 90.0408853,1.04269939 90.0408853,1.27510793 L90.0408853,3.17381524 C90.0408853,3.40622378 89.8589969,3.6146872 89.6029541,3.6146872 L86.0841143,3.6146872 L86.0841143,16.6098457 C86.0841143,16.8408457 85.8770414,17.0493091 85.6475823,17.0493091 L83.5068964,17.0493091 C83.2760381,17.0493091 83.0689652,16.8408457 83.0689652,16.6098457 L83.0689652,3.6146872 Z"></path>
                    </g>
                </g>
            </g>
        </g>
    </g>
</svg>