<?xml version="1.0" encoding="UTF-8"?>
<svg width="260px" height="46px" viewBox="0 0 260 46" version="1.1" xmlns="http://www.w3.org/2000/svg" xmlns:xlink="http://www.w3.org/1999/xlink">
    <g stroke="none" stroke-width="1" fill="#FFFFFF" fill-rule="evenodd" class="fill">
        <g transform="translate(-239.000000, -2519.000000)">
            <g transform="translate(-90.000000, 1842.000000)">
                <g transform="translate(89.697439, 642.697439)">
                    <g transform="translate(240.000000, 34.000000)">
                        <path d="M57.2655869,38.543361 C58.1937665,38.543361 59.0810337,38.9044581 59.782238,39.5024918 C59.8651302,39.5850283 59.8750915,39.708833 59.7929108,39.7913695 L59.1532531,40.4619783 C59.0707166,40.5441591 58.9775073,40.5441591 58.8850095,40.4619783 C58.441376,40.0699301 57.8949276,39.8635889 57.3274893,39.8635889 C56.0382126,39.8635889 55.0171794,40.9668027 55.0171794,42.2564352 C55.0171794,43.5353948 56.0382126,44.6183304 57.3378063,44.6183304 C57.9152059,44.6183304 58.3588395,44.4429403 58.5648249,44.3607596 L58.5648249,43.4838095 L57.7401717,43.4838095 C57.626684,43.4838095 57.5441475,43.4012731 57.5441475,43.2981025 L57.5441475,42.4834105 C57.5441475,42.3699229 57.626684,42.2870306 57.7401717,42.2870306 L59.7203356,42.2870306 C59.8231504,42.2870306 59.9060427,42.3802399 59.9060427,42.4834105 L59.9060427,45.1238663 C59.9060427,45.2064028 59.8651302,45.2576323 59.8231504,45.2885835 C59.8231504,45.2885835 58.7612048,45.9591923 57.2655869,45.9591923 C55.2128478,45.9591923 53.5628298,44.3298084 53.5628298,42.2667523 C53.5628298,40.2040518 55.2128478,38.543361 57.2655869,38.543361" ></path>
                        <path d="M61.3901695,38.8424846 C61.3901695,38.739314 61.472706,38.6464604 61.5861936,38.6464604 L65.7845254,38.6464604 C65.8976573,38.6464604 65.9801938,38.739314 65.9801938,38.8424846 L65.9801938,39.6881277 C65.9801938,39.7912983 65.8976573,39.8841518 65.7845254,39.8841518 L62.7313873,39.8841518 L62.7313873,41.5757939 L65.2786337,41.5757939 C65.3821601,41.5757939 65.4743021,41.6682916 65.4743021,41.7714622 L65.4743021,42.6277782 C65.4743021,42.7412659 65.3821601,42.8234466 65.2786337,42.8234466 L62.7313873,42.8234466 L62.7313873,44.6285763 L65.7845254,44.6285763 C65.8976573,44.6285763 65.9801938,44.7214298 65.9801938,44.8246004 L65.9801938,45.6702435 C65.9801938,45.7734141 65.8976573,45.8662677 65.7845254,45.8662677 L61.5861936,45.8662677 C61.472706,45.8662677 61.3901695,45.7734141 61.3901695,45.6702435 L61.3901695,38.8424846 Z"></path>
                        <path d="M68.495991,39.8840451 L66.9178366,39.8840451 C66.804349,39.8840451 66.7221682,39.7911916 66.7221682,39.688021 L66.7221682,38.8423778 C66.7221682,38.7392072 66.804349,38.6463537 66.9178366,38.6463537 L71.4249687,38.6463537 C71.5388121,38.6463537 71.6209928,38.7392072 71.6209928,38.8423778 L71.6209928,39.688021 C71.6209928,39.7911916 71.5388121,39.8840451 71.4249687,39.8840451 L69.8471701,39.8840451 L69.8471701,45.6704926 C69.8471701,45.7736632 69.7543165,45.8661609 69.6511459,45.8661609 L68.6920151,45.8661609 C68.5888445,45.8661609 68.495991,45.7736632 68.495991,45.6704926 L68.495991,39.8840451 Z"></path>
                        <path d="M78.8401597,43.4013798 L77.8088094,41.1319824 L77.7778583,41.1319824 L76.7671422,43.4013798 L78.8401597,43.4013798 Z M74.3846129,45.598202 L77.5917954,38.6565996 C77.6231024,38.5946973 77.6746877,38.5434677 77.7675412,38.5434677 L77.870356,38.5434677 C77.9735266,38.5434677 78.0151506,38.5946973 78.0461018,38.6565996 L81.2223332,45.598202 C81.2845913,45.7323238 81.2024106,45.8664455 81.0472989,45.8664455 L80.1500705,45.8664455 C79.9953146,45.8664455 79.9230952,45.8045432 79.8508757,45.6601043 L79.3456956,44.5462177 L76.2616062,44.5462177 L75.7560703,45.6601043 C75.7151578,45.7632749 75.6219485,45.8664455 75.4572314,45.8664455 L74.5596472,45.8664455 C74.4048913,45.8664455 74.3227105,45.7323238 74.3846129,45.598202 Z"></path>
                        <path d="M87.9047639,38.543361 C88.9467869,38.543361 89.6995765,38.8735069 90.4011366,39.5024918 C90.4936343,39.5850283 90.4936343,39.708833 90.4110979,39.7913695 L89.782113,40.4409885 C89.7098936,40.5235249 89.606723,40.5235249 89.5241865,40.4409885 C89.09087,40.059613 88.5134704,39.8326377 87.9360708,39.8326377 C86.6158429,39.8326377 85.6357223,40.9362073 85.6357223,42.2358011 C85.6357223,43.5250778 86.6258042,44.6183304 87.9460321,44.6183304 C88.5646999,44.6183304 89.09087,44.381038 89.5241865,44.0306137 C89.606723,43.9583943 89.7202106,43.9683556 89.782113,44.0306137 L90.4214149,44.6905498 C90.5043072,44.7624134 90.4833173,44.8965352 90.4110979,44.9691104 C89.7098936,45.6500363 88.8229822,45.9695094 87.9047639,45.9695094 C85.8420635,45.9695094 84.1813726,44.3298084 84.1813726,42.2667523 C84.1813726,40.2040518 85.8420635,38.543361 87.9047639,38.543361"></path>
                        <path d="M94.8143122,44.6284695 C96.113906,44.6284695 97.1865244,43.5665239 97.1865244,42.2665744 C97.1865244,40.9669806 96.113906,39.8840451 94.8143122,39.8840451 C93.5147184,39.8840451 92.4524171,40.9669806 92.4524171,42.2665744 C92.4524171,43.5665239 93.5147184,44.6284695 94.8143122,44.6284695 M94.8143122,38.5435389 C96.8773684,38.5435389 98.5277422,40.203874 98.5277422,42.2665744 C98.5277422,44.3296306 96.8773684,45.9696873 94.8143122,45.9696873 C92.7516118,45.9696873 91.1115551,44.3296306 91.1115551,42.2665744 C91.1115551,40.203874 92.7516118,38.5435389 94.8143122,38.5435389"></path>
                        <path d="M99.8567929,38.8424846 C99.8567929,38.739314 99.9393294,38.6464604 100.052817,38.6464604 L101.001987,38.6464604 C101.105157,38.6464604 101.198011,38.739314 101.198011,38.8424846 L101.198011,44.6285763 L103.827794,44.6285763 C103.941281,44.6285763 104.023818,44.7214298 104.023818,44.8246004 L104.023818,45.6702435 C104.023818,45.7734141 103.941281,45.8662677 103.827794,45.8662677 L100.052817,45.8662677 C99.9393294,45.8662677 99.8567929,45.7734141 99.8567929,45.6702435 L99.8567929,38.8424846 Z"></path>
                        <path d="M105.064667,38.8424846 C105.064667,38.739314 105.147203,38.6464604 105.260691,38.6464604 L106.20986,38.6464604 C106.313031,38.6464604 106.405885,38.739314 106.405885,38.8424846 L106.405885,44.6285763 L109.035667,44.6285763 C109.149155,44.6285763 109.231692,44.7214298 109.231692,44.8246004 L109.231692,45.6702435 C109.231692,45.7734141 109.149155,45.8662677 109.035667,45.8662677 L105.260691,45.8662677 C105.147203,45.8662677 105.064667,45.7734141 105.064667,45.6702435 L105.064667,38.8424846 Z"></path>
                        <path d="M110.272505,38.8424846 C110.272505,38.739314 110.355042,38.6464604 110.468529,38.6464604 L114.666505,38.6464604 C114.779993,38.6464604 114.862174,38.739314 114.862174,38.8424846 L114.862174,39.6881277 C114.862174,39.7912983 114.779993,39.8841518 114.666505,39.8841518 L111.613723,39.8841518 L111.613723,41.5757939 L114.161325,41.5757939 C114.264496,41.5757939 114.356993,41.6682916 114.356993,41.7714622 L114.356993,42.6277782 C114.356993,42.7412659 114.264496,42.8234466 114.161325,42.8234466 L111.613723,42.8234466 L111.613723,44.6285763 L114.666505,44.6285763 C114.779993,44.6285763 114.862174,44.7214298 114.862174,44.8246004 L114.862174,45.6702435 C114.862174,45.7734141 114.779993,45.8662677 114.666505,45.8662677 L110.468529,45.8662677 C110.355042,45.8662677 110.272505,45.7734141 110.272505,45.6702435 L110.272505,38.8424846 Z"></path>
                        <path d="M119.400008,38.543361 C120.442031,38.543361 121.19482,38.8735069 121.89638,39.5024918 C121.988878,39.5850283 121.988878,39.708833 121.906342,39.7913695 L121.277357,40.4409885 C121.205137,40.5235249 121.101967,40.5235249 121.01943,40.4409885 C120.586114,40.059613 120.008714,39.8326377 119.431315,39.8326377 C118.111087,39.8326377 117.130966,40.9362073 117.130966,42.2358011 C117.130966,43.5250778 118.121048,44.6183304 119.441276,44.6183304 C120.059944,44.6183304 120.586114,44.381038 121.01943,44.0306137 C121.101967,43.9583943 121.215454,43.9683556 121.277357,44.0306137 L121.916659,44.6905498 C121.999551,44.7624134 121.978561,44.8965352 121.906342,44.9691104 C121.205137,45.6500363 120.318226,45.9695094 119.400008,45.9695094 C117.337307,45.9695094 115.676616,44.3298084 115.676616,42.2667523 C115.676616,40.2040518 117.337307,38.543361 119.400008,38.543361"></path>
                        <path d="M124.360165,39.8840451 L122.782011,39.8840451 C122.668523,39.8840451 122.586343,39.7911916 122.586343,39.688021 L122.586343,38.8423778 C122.586343,38.7392072 122.668523,38.6463537 122.782011,38.6463537 L127.289143,38.6463537 C127.402987,38.6463537 127.485167,38.7392072 127.485167,38.8423778 L127.485167,39.688021 C127.485167,39.7911916 127.402987,39.8840451 127.289143,39.8840451 L125.711345,39.8840451 L125.711345,45.6704926 C125.711345,45.7736632 125.618491,45.8661609 125.51532,45.8661609 L124.55619,45.8661609 C124.453019,45.8661609 124.360165,45.7736632 124.360165,45.6704926 L124.360165,39.8840451 Z"></path>
                        <path d="M128.629294,38.8424846 C128.629294,38.739314 128.722503,38.6464604 128.825673,38.6464604 L129.784449,38.6464604 C129.887619,38.6464604 129.980473,38.739314 129.980473,38.8424846 L129.980473,45.6702435 C129.980473,45.7734141 129.887619,45.8662677 129.784449,45.8662677 L128.825673,45.8662677 C128.722503,45.8662677 128.629294,45.7734141 128.629294,45.6702435 L128.629294,38.8424846 Z"></path>
                        <path d="M130.867384,38.9147396 C130.805482,38.7806178 130.888018,38.646496 131.042418,38.646496 L132.094758,38.646496 C132.187612,38.646496 132.249514,38.7083984 132.269793,38.7596279 L134.260629,43.1948963 L134.312215,43.1948963 L136.302696,38.7596279 C136.32333,38.7083984 136.385588,38.646496 136.478086,38.646496 L137.530426,38.646496 C137.684826,38.646496 137.767718,38.7806178 137.705816,38.9147396 L134.507883,45.8559862 C134.476932,45.9178885 134.425702,45.9694738 134.332849,45.9694738 L134.229678,45.9694738 C134.136825,45.9694738 134.085239,45.9178885 134.054288,45.8559862 L130.867384,38.9147396 Z"></path>
                        <path d="M138.591624,38.8424846 C138.591624,38.739314 138.674161,38.6464604 138.787648,38.6464604 L142.985624,38.6464604 C143.099112,38.6464604 143.181293,38.739314 143.181293,38.8424846 L143.181293,39.6881277 C143.181293,39.7912983 143.099112,39.8841518 142.985624,39.8841518 L139.932842,39.8841518 L139.932842,41.5757939 L142.480444,41.5757939 C142.583615,41.5757939 142.676113,41.6682916 142.676113,41.7714622 L142.676113,42.6277782 C142.676113,42.7412659 142.583615,42.8234466 142.480444,42.8234466 L139.932842,42.8234466 L139.932842,44.6285763 L142.985624,44.6285763 C143.099112,44.6285763 143.181293,44.7214298 143.181293,44.8246004 L143.181293,45.6702435 C143.181293,45.7734141 143.099112,45.8662677 142.985624,45.8662677 L138.787648,45.8662677 C138.674161,45.8662677 138.591624,45.7734141 138.591624,45.6702435 L138.591624,38.8424846 Z"></path>
                        <path d="M149.606295,44.6493171 C150.121792,44.6493171 150.513841,44.2469518 150.513841,43.7104647 C150.513841,43.1949674 150.121792,42.813592 149.606295,42.813592 L148.337653,42.813592 L148.337653,44.6493171 L149.606295,44.6493171 Z M149.461856,41.6787154 C149.987671,41.6787154 150.328134,41.266033 150.328134,40.7505358 C150.328134,40.2350386 149.987671,39.8739415 149.461856,39.8739415 L148.337653,39.8739415 L148.337653,41.6787154 L149.461856,41.6787154 Z M150.709865,42.2152025 C151.307898,42.421188 151.947556,42.9064455 151.947556,43.8755376 C151.947556,45.0306926 150.957474,45.8663744 149.699149,45.8663744 L147.202776,45.8663744 C147.089644,45.8663744 147.006752,45.7735209 147.006752,45.6703503 L147.006752,38.8425913 C147.006752,38.7394207 147.089644,38.6465672 147.202776,38.6465672 L149.565027,38.6465672 C150.792401,38.6465672 151.741215,39.4715762 151.741215,40.5545117 C151.741215,41.3279354 151.245996,41.8953737 150.709865,42.1636172 L150.709865,42.2152025 Z"></path>
                        <path d="M156.887258,43.4013798 L155.856263,41.1319824 L155.825312,41.1319824 L154.81424,43.4013798 L156.887258,43.4013798 Z M152.431711,45.598202 L155.639249,38.6565996 C155.6702,38.5946973 155.722141,38.5434677 155.814639,38.5434677 L155.91781,38.5434677 C156.02098,38.5434677 156.062249,38.5946973 156.0932,38.6565996 L159.269787,45.598202 C159.331689,45.7323238 159.249509,45.8664455 159.094397,45.8664455 L158.197524,45.8664455 C158.042413,45.8664455 157.970549,45.8045432 157.898329,45.6601043 L157.392794,44.5462177 L154.30906,44.5462177 L153.803524,45.6601043 C153.762256,45.7632749 153.669402,45.8664455 153.504329,45.8664455 L152.607101,45.8664455 C152.452345,45.8664455 152.369808,45.7323238 152.431711,45.598202 Z"></path>
                        <path d="M163.209303,41.9366419 C163.755751,41.9366419 164.230336,41.4620572 164.230336,40.8846576 C164.230336,40.3378534 163.755751,39.8839028 163.209303,39.8839028 L161.527622,39.8839028 L161.527622,41.9366419 L163.209303,41.9366419 Z M160.176799,38.8425913 C160.176799,38.7394207 160.259335,38.6465672 160.372823,38.6465672 L163.322435,38.6465672 C164.560482,38.6465672 165.571198,39.6366491 165.571198,40.8640235 C165.571198,41.8128372 164.941857,42.5862609 164.044629,42.947358 L165.457354,45.5671797 C165.529574,45.7013014 165.457354,45.8663744 165.28232,45.8663744 L164.199385,45.8663744 C164.106175,45.8663744 164.054946,45.8147891 164.034312,45.7735209 L162.662499,43.0405673 L161.517661,43.0405673 L161.517661,45.6703503 C161.517661,45.7735209 161.424807,45.8663744 161.321637,45.8663744 L160.372823,45.8663744 C160.259335,45.8663744 160.176799,45.7735209 160.176799,45.6703503 L160.176799,38.8425913 Z"></path>
                        <path d="M170.263005,38.543361 C171.191185,38.543361 172.078452,38.9044581 172.779656,39.5024918 C172.862193,39.5850283 172.87251,39.708833 172.789973,39.7913695 L172.150671,40.4619783 C172.067779,40.5441591 171.974926,40.5441591 171.882428,40.4619783 C171.438794,40.0699301 170.892346,39.8635889 170.324908,39.8635889 C169.035631,39.8635889 168.014598,40.9668027 168.014598,42.2564352 C168.014598,43.5353948 169.035631,44.6183304 170.335225,44.6183304 C170.912624,44.6183304 171.356258,44.4429403 171.562599,44.3607596 L171.562599,43.4838095 L170.73759,43.4838095 C170.624102,43.4838095 170.541566,43.4012731 170.541566,43.2981025 L170.541566,42.4834105 C170.541566,42.3699229 170.624102,42.2870306 170.73759,42.2870306 L172.717754,42.2870306 C172.820925,42.2870306 172.903461,42.3802399 172.903461,42.4834105 L172.903461,45.1238663 C172.903461,45.2064028 172.862193,45.2576323 172.820925,45.2885835 C172.820925,45.2885835 171.758623,45.9591923 170.263005,45.9591923 C168.210266,45.9591923 166.560248,44.3298084 166.560248,42.2667523 C166.560248,40.2040518 168.210266,38.543361 170.263005,38.543361"></path>
                        <path d="M177.987246,43.4013798 L176.956251,41.1319824 L176.9253,41.1319824 L175.914228,43.4013798 L177.987246,43.4013798 Z M173.531699,45.598202 L176.739237,38.6565996 C176.770188,38.5946973 176.822129,38.5434677 176.914627,38.5434677 L177.017798,38.5434677 C177.120968,38.5434677 177.162237,38.5946973 177.193188,38.6565996 L180.369775,45.598202 C180.431677,45.7323238 180.349496,45.8664455 180.194741,45.8664455 L179.297512,45.8664455 C179.142401,45.8664455 179.070537,45.8045432 178.998317,45.6601043 L178.492782,44.5462177 L175.408692,44.5462177 L174.903512,45.6601043 C174.862244,45.7632749 174.76939,45.8664455 174.604317,45.8664455 L173.707089,45.8664455 C173.552333,45.8664455 173.469796,45.7323238 173.531699,45.598202 Z"></path>
                        <path d="M181.276644,38.8424846 C181.276644,38.739314 181.369854,38.6464604 181.472669,38.6464604 L182.431799,38.6464604 C182.53497,38.6464604 182.628179,38.739314 182.628179,38.8424846 L182.628179,45.6702435 C182.628179,45.7734141 182.53497,45.8662677 182.431799,45.8662677 L181.472669,45.8662677 C181.369854,45.8662677 181.276644,45.7734141 181.276644,45.6702435 L181.276644,38.8424846 Z"></path>
                        <path d="M184.38087,38.7288902 C184.38087,38.6257196 184.474079,38.5435389 184.57725,38.5435389 L184.73165,38.5435389 C184.803869,38.5435389 184.855455,38.5638172 184.90704,38.6157583 L189.115333,43.1022562 L189.135611,43.1022562 L189.135611,38.8423778 C189.135611,38.7392072 189.218503,38.6467095 189.331635,38.6467095 L190.280805,38.6467095 C190.383975,38.6467095 190.476829,38.7392072 190.476829,38.8423778 L190.476829,45.7839802 C190.476829,45.8867951 190.383975,45.9696873 190.280805,45.9696873 L190.136366,45.9696873 C190.064147,45.9696873 190.012561,45.9486974 189.960976,45.8971121 L185.732049,41.2352242 L185.711415,41.2352242 L185.711415,45.6704926 C185.711415,45.7736632 185.629234,45.8661609 185.515391,45.8661609 L184.57725,45.8661609 C184.474079,45.8661609 184.38087,45.7736632 184.38087,45.6704926 L184.38087,38.7288902 Z"></path>
                        <path d="M197.983842,44.6284695 C199.283436,44.6284695 200.356054,43.5665239 200.356054,42.2665744 C200.356054,40.9669806 199.283436,39.8840451 197.983842,39.8840451 C196.684248,39.8840451 195.621947,40.9669806 195.621947,42.2665744 C195.621947,43.5665239 196.684248,44.6284695 197.983842,44.6284695 M197.983842,38.5435389 C200.046898,38.5435389 201.697272,40.203874 201.697272,42.2665744 C201.697272,44.3296306 200.046898,45.9696873 197.983842,45.9696873 C195.921141,45.9696873 194.281085,44.3296306 194.281085,42.2665744 C194.281085,40.203874 195.921141,38.5435389 197.983842,38.5435389"></path>
                        <path d="M203.026358,38.7288902 C203.026358,38.6257196 203.119567,38.5435389 203.222738,38.5435389 L203.377138,38.5435389 C203.449358,38.5435389 203.500943,38.5638172 203.552528,38.6157583 L207.760821,43.1022562 L207.7811,43.1022562 L207.7811,38.8423778 C207.7811,38.7392072 207.863992,38.6467095 207.977124,38.6467095 L208.926293,38.6467095 C209.029464,38.6467095 209.122317,38.7392072 209.122317,38.8423778 L209.122317,45.7839802 C209.122317,45.8867951 209.029464,45.9696873 208.926293,45.9696873 L208.781854,45.9696873 C208.709635,45.9696873 208.65805,45.9486974 208.606464,45.8971121 L204.377537,41.2352242 L204.356903,41.2352242 L204.356903,45.6704926 C204.356903,45.7736632 204.274722,45.8661609 204.160879,45.8661609 L203.222738,45.8661609 C203.119567,45.8661609 203.026358,45.7736632 203.026358,45.6704926 L203.026358,38.7288902 Z"></path>
                        <path d="M213.277389,38.8424846 C213.277389,38.739314 213.370242,38.6464604 213.473413,38.6464604 L214.453178,38.6464604 C214.566665,38.6464604 214.648846,38.739314 214.648846,38.8424846 L214.648846,43.1436312 C214.648846,44.0202255 215.247236,44.6285763 216.14482,44.6285763 C217.042048,44.6285763 217.650399,44.0202255 217.650399,43.1535925 L217.650399,38.8424846 C217.650399,38.739314 217.732935,38.6464604 217.846423,38.6464604 L218.826188,38.6464604 C218.929359,38.6464604 219.022212,38.739314 219.022212,38.8424846 L219.022212,43.2154948 C219.022212,44.7833322 217.774204,45.9694383 216.14482,45.9694383 C214.525397,45.9694383 213.277389,44.7833322 213.277389,43.2154948 L213.277389,38.8424846 Z"></path>
                        <path d="M221.86812,39.8840451 L220.289965,39.8840451 C220.176478,39.8840451 220.094297,39.7911916 220.094297,39.688021 L220.094297,38.8423778 C220.094297,38.7392072 220.176478,38.6463537 220.289965,38.6463537 L224.797097,38.6463537 C224.910941,38.6463537 224.993121,38.7392072 224.993121,38.8423778 L224.993121,39.688021 C224.993121,39.7911916 224.910941,39.8840451 224.797097,39.8840451 L223.219299,39.8840451 L223.219299,45.6704926 C223.219299,45.7736632 223.126445,45.8661609 223.023275,45.8661609 L222.064144,45.8661609 C221.960973,45.8661609 221.86812,45.7736632 221.86812,45.6704926 L221.86812,39.8840451 Z"></path>
                        <path d="M226.137248,38.8424846 C226.137248,38.739314 226.230457,38.6464604 226.333272,38.6464604 L227.292403,38.6464604 C227.395573,38.6464604 227.488783,38.739314 227.488783,38.8424846 L227.488783,45.6702435 C227.488783,45.7734141 227.395573,45.8662677 227.292403,45.8662677 L226.333272,45.8662677 C226.230457,45.8662677 226.137248,45.7734141 226.137248,45.6702435 L226.137248,38.8424846 Z"></path>
                        <path d="M229.241473,38.8424846 C229.241473,38.739314 229.32401,38.6464604 229.437853,38.6464604 L230.386667,38.6464604 C230.489837,38.6464604 230.582691,38.739314 230.582691,38.8424846 L230.582691,44.6285763 L233.212474,44.6285763 C233.325962,44.6285763 233.408498,44.7214298 233.408498,44.8246004 L233.408498,45.6702435 C233.408498,45.7734141 233.325962,45.8662677 233.212474,45.8662677 L229.437853,45.8662677 C229.32401,45.8662677 229.241473,45.7734141 229.241473,45.6702435 L229.241473,38.8424846 Z"></path>
                        <path d="M234.449311,38.8424846 C234.449311,38.739314 234.542521,38.6464604 234.645691,38.6464604 L235.604466,38.6464604 C235.707637,38.6464604 235.80049,38.739314 235.80049,38.8424846 L235.80049,45.6702435 C235.80049,45.7734141 235.707637,45.8662677 235.604466,45.8662677 L234.645691,45.8662677 C234.542521,45.8662677 234.449311,45.7734141 234.449311,45.6702435 L234.449311,38.8424846 Z"></path>
                        <path d="M238.719151,39.8840451 L237.140997,39.8840451 C237.027509,39.8840451 236.945328,39.7911916 236.945328,39.688021 L236.945328,38.8423778 C236.945328,38.7392072 237.027509,38.6463537 237.140997,38.6463537 L241.648129,38.6463537 C241.761972,38.6463537 241.844153,38.7392072 241.844153,38.8423778 L241.844153,39.688021 C241.844153,39.7911916 241.761972,39.8840451 241.648129,39.8840451 L240.07033,39.8840451 L240.07033,45.6704926 C240.07033,45.7736632 239.977477,45.8661609 239.874306,45.8661609 L238.915175,45.8661609 C238.812005,45.8661609 238.719151,45.7736632 238.719151,45.6704926 L238.719151,39.8840451 Z"></path>
                        <path d="M242.988279,38.8424846 C242.988279,38.739314 243.081489,38.6464604 243.184659,38.6464604 L244.143434,38.6464604 C244.246605,38.6464604 244.339458,38.739314 244.339458,38.8424846 L244.339458,45.6702435 C244.339458,45.7734141 244.246605,45.8662677 244.143434,45.8662677 L243.184659,45.8662677 C243.081489,45.8662677 242.988279,45.7734141 242.988279,45.6702435 L242.988279,38.8424846 Z"></path>
                        <path d="M246.092505,38.8424846 C246.092505,38.739314 246.175041,38.6464604 246.288529,38.6464604 L250.486505,38.6464604 C250.599992,38.6464604 250.682173,38.739314 250.682173,38.8424846 L250.682173,39.6881277 C250.682173,39.7912983 250.599992,39.8841518 250.486505,39.8841518 L247.433722,39.8841518 L247.433722,41.5757939 L249.981325,41.5757939 C250.084495,41.5757939 250.176993,41.6682916 250.176993,41.7714622 L250.176993,42.6277782 C250.176993,42.7412659 250.084495,42.8234466 249.981325,42.8234466 L247.433722,42.8234466 L247.433722,44.6285763 L250.486505,44.6285763 C250.599992,44.6285763 250.682173,44.7214298 250.682173,44.8246004 L250.682173,45.6702435 C250.682173,45.7734141 250.599992,45.8662677 250.486505,45.8662677 L246.288529,45.8662677 C246.175041,45.8662677 246.092505,45.7734141 246.092505,45.6702435 L246.092505,38.8424846 Z"></path>
                        <path d="M251.682537,45.1648855 C251.579366,45.0827048 251.538098,45.0208024 251.630596,44.8557295 L252.00201,44.2160718 C252.084546,44.0716329 252.259936,44.0716329 252.35279,44.1438523 C252.775433,44.4636812 253.239701,44.78351 253.91031,44.78351 C254.446797,44.78351 254.848807,44.4323742 254.848807,43.9890964 C254.848807,43.4632822 254.405173,43.1021851 253.538896,42.751405 C252.569448,42.3593568 251.6,41.7406889 251.6,40.5236317 C251.6,39.6057691 252.28057,38.5434677 253.920627,38.5434677 C254.972611,38.5434677 255.776986,39.0799548 255.983327,39.234355 C256.086498,39.2962573 256.117449,39.4716473 256.04523,39.5748179 L255.653182,40.1625346 C255.571001,40.2863393 255.415889,40.3692315 255.292084,40.2863393 C254.848807,40.0077787 254.425807,39.718901 253.858725,39.718901 C253.270652,39.718901 252.950823,40.0490469 252.950823,40.4410952 C252.950823,40.925997 253.33291,41.2561429 254.167881,41.5962501 C255.168635,41.9986154 256.32379,42.5966491 256.32379,43.9271941 C256.32379,44.9898512 255.405928,45.9696161 253.951578,45.9696161 C252.651984,45.9696161 251.981376,45.422812 251.682537,45.1648855" ></path>
                        <path d="M258.107397,44.009695 C258.643884,44.009695 259.097479,44.4636456 259.097479,44.999777 C259.097479,45.525947 258.643884,45.9798976 258.107397,45.9798976 C257.570909,45.9798976 257.127632,45.525947 257.127632,44.999777 C257.127632,44.4636456 257.570909,44.009695 258.107397,44.009695"></path>
                        <g transform="translate(0.000000, 0.798327)">
                            <path d="M44.0892075,23.0236927 C44.0892075,35.1782563 34.1997721,45.0680474 22.044497,45.0680474 C9.88886614,45.0680474 -0.000213456407,35.1782563 -0.000213456407,23.023337 L-0.000213456407,0.014159275 L15.0961352,0.014159275 L15.0961352,23.1179693 C15.0961352,26.9495118 18.2133103,30.0663311 22.044497,30.0663311 C25.8760395,30.0663311 28.9928588,26.9495118 28.9928588,23.1179693 L28.9928588,9.43541358 L34.2730588,9.43541358 L34.2730588,23.1179693 C34.2730588,29.8610572 28.7872292,35.3458196 22.044497,35.3458196 C15.3017649,35.3458196 9.81629096,29.8610572 9.81629096,23.1179693 L9.81629096,5.29400351 L5.27963078,5.29400351 L5.27963078,23.023337 C5.27963078,32.2670667 12.8004115,39.7882032 22.044497,39.7882032 C31.2885825,39.7882032 38.8090075,32.2670667 38.8090075,23.023337 L38.8125651,5.29400351 L24.9161972,5.29400351 L24.9161972,22.5042821 C24.9161972,24.0671388 23.7343602,25.3340026 22.276453,25.3340026 C20.8185457,25.3340026 19.6367087,24.0671388 19.6367087,22.5042821 L19.6367087,0.014159275 L44.0938324,0.014159275 L44.0892075,23.0236927 Z"></path>
                        </g>
                        <path d="M64.2209572,14.8981188 C66.6593409,14.8981188 68.5313536,12.9389447 68.5313536,10.3696411 C68.5313536,7.97537175 66.6593409,6.1464061 64.2209572,6.1464061 L58.9962559,6.1464061 L58.9962559,14.8981188 L64.2209572,14.8981188 Z M53.3361035,1.61863994 C53.3361035,1.18318887 53.6843932,0.791496359 54.1632471,0.791496359 L64.3949242,0.791496359 C69.7505455,0.791496359 74.1477474,5.14529555 74.1477474,10.4137554 C74.1477474,15.8124237 69.7505455,20.2099815 64.438327,20.2099815 L58.9962559,20.2099815 L58.9962559,30.4416586 C58.9962559,30.8771097 58.6045634,31.269158 58.1691123,31.269158 L54.1632471,31.269158 C53.6843932,31.269158 53.3361035,30.8771097 53.3361035,30.4416586 L53.3361035,1.61863994 Z"></path>
                        <g transform="translate(76.132785, 0.086806)">
                            <path d="M15.8281484,25.9573308 C21.3143338,25.9573308 25.8421,21.4729675 25.8421,15.9867821 C25.8421,10.5009524 21.3143338,5.9290719 15.8281484,5.9290719 C10.3423187,5.9290719 5.85795534,10.5009524 5.85795534,15.9867821 C5.85795534,21.4729675 10.3423187,25.9573308 15.8281484,25.9573308 M15.8281484,0.268919497 C24.5364583,0.268919497 31.5026081,7.27882792 31.5026081,15.9867821 C31.5026081,24.6947362 24.5364583,31.6174832 15.8281484,31.6174832 C7.12019423,31.6174832 0.197447177,24.6947362 0.197447177,15.9867821 C0.197447177,7.27882792 7.12019423,0.268919497 15.8281484,0.268919497"></path>
                        </g>
                        <path d="M112.098589,1.61860436 C112.098589,1.18315329 112.490637,0.791460783 112.925733,0.791460783 L116.974645,0.791460783 C117.410096,0.791460783 117.801788,1.18315329 117.801788,1.61860436 L117.801788,30.4419788 C117.801788,30.8770741 117.410096,31.2691224 116.974645,31.2691224 L112.925733,31.2691224 C112.490637,31.2691224 112.098589,30.8770741 112.098589,30.4419788 L112.098589,1.61860436 Z"></path>
                        <path d="M124.05165,1.13950145 C124.05165,0.704050384 124.443698,0.355760679 124.878793,0.355760679 L125.531614,0.355760679 C125.836857,0.355760679 126.054582,0.442922045 126.271952,0.660647581 L144.03615,19.6006346 L144.122956,19.6006346 L144.122956,1.61871109 C144.122956,1.18326002 144.471245,0.79121175 144.950455,0.79121175 L148.95632,0.79121175 C149.391771,0.79121175 149.783464,1.18326002 149.783464,1.61871109 L149.783464,30.9205837 C149.783464,31.3560347 149.391771,31.7043244 148.95632,31.7043244 L148.346547,31.7043244 C148.042015,31.7043244 147.823934,31.6175188 147.606564,31.3997933 L129.754849,11.719824 L129.668044,11.719824 L129.668044,30.4417298 C129.668044,30.8771809 129.319754,31.2688734 128.8409,31.2688734 L124.878793,31.2688734 C124.443698,31.2688734 124.05165,30.8771809 124.05165,30.4417298 L124.05165,1.13950145 Z"></path>
                        <path d="M160.663373,6.01591308 L154.00211,6.01591308 C153.5229,6.01591308 153.174966,5.62386481 153.174966,5.1887695 L153.174966,1.61871109 C153.174966,1.18326002 153.5229,0.79121175 154.00211,0.79121175 L173.028547,0.79121175 C173.507756,0.79121175 173.856046,1.18326002 173.856046,1.61871109 L173.856046,5.1887695 C173.856046,5.62386481 173.507756,6.01591308 173.028547,6.01591308 L166.367284,6.01591308 L166.367284,30.4417298 C166.367284,30.8771809 165.975591,31.2688734 165.54014,31.2688734 L161.490516,31.2688734 C161.055421,31.2688734 160.663373,30.8771809 160.663373,30.4417298 L160.663373,6.01591308 Z"></path>
                    </g>
                </g>
            </g>
        </g>
    </g>
</svg>