<?xml version="1.0" encoding="UTF-8"?>
<svg width="147px" height="34px" viewBox="0 0 147 34" version="1.1" xmlns="http://www.w3.org/2000/svg" xmlns:xlink="http://www.w3.org/1999/xlink">
    <g stroke="none" stroke-width="1" fill="none" fill-rule="evenodd">
        <g transform="translate(-37.000000, -73.000000)" fill="#FFFFFF" class="fill">
            <g transform="translate(37.574219, 72.463901)">
                <g transform="translate(0.000000, 0.593985)">
                    <g transform="translate(0.000671, 0.084362)">
                        <g transform="translate(-0.000000, 0.000000)">
                            <path d="M32.7434511,17.0870399 C32.7434511,26.1152628 25.3991099,33.459604 16.3708869,33.459604 C7.34266397,33.459604 -4.19220214e-13,26.1152628 -4.19220214e-13,17.0870399 L-4.19220214e-13,-1.0658141e-14 L11.2102252,-1.0658141e-14 L11.2102252,17.1574811 C11.2102252,20.0019668 13.5264013,22.3181429 16.3708869,22.3181429 C19.2170497,22.3181429 21.5315487,20.0019668 21.5315487,17.1574811 L21.5315487,6.99548913 L25.4527795,6.99548913 L25.4527795,17.1574811 C25.4527795,22.1638429 21.3789259,26.2393737 16.3708869,26.2393737 C11.3645251,26.2393737 7.28899443,22.1638429 7.28899443,17.1574811 L7.28899443,3.91955361 L3.91955361,3.91955361 L3.91955361,17.0870399 C3.91955361,23.9533867 9.50621731,29.5383732 16.3708869,29.5383732 C23.2372337,29.5383732 28.8222203,23.9533867 28.8222203,17.0870399 L28.8238974,3.91955361 L18.5042512,3.91955361 L18.5042512,16.7029672 C18.5042512,17.8618939 17.6254124,18.802788 16.5436358,18.802788 C15.4601819,18.802788 14.5830204,17.8618939 14.5830204,16.7029672 L14.5830204,-1.0658141e-14 L32.7468054,-1.0658141e-14 L32.7434511,17.0870399 Z"></path>
                            <path d="M52.016183,12.4501593 C54.1042635,12.4501593 55.7059638,10.7729862 55.7059638,8.57253503 C55.7059638,6.52302946 54.1042635,4.95654976 52.016183,4.95654976 L47.5431622,4.95654976 L47.5431622,12.4501593 L52.016183,12.4501593 Z M42.6961319,1.08060265 C42.6961319,0.706593041 42.9946687,0.371158414 43.4038989,0.371158414 L52.1654514,0.371158414 C56.7508427,0.371158414 60.5144192,4.09951429 60.5144192,8.60943284 C60.5144192,13.2333992 56.7508427,16.9986528 52.2023492,16.9986528 L47.5431622,16.9986528 L47.5431622,25.7585281 C47.5431622,26.1308606 47.2077276,26.4662952 46.833718,26.4662952 L43.4038989,26.4662952 C42.9946687,26.4662952 42.6961319,26.1308606 42.6961319,25.7585281 L42.6961319,1.08060265 Z"></path>
                            <path d="M75.7667994,21.9924358 C80.4645613,21.9924358 84.3405085,18.1533865 84.3405085,13.4556246 C84.3405085,8.75786266 80.4645613,4.84501774 75.7667994,4.84501774 C71.0690375,4.84501774 67.2299882,8.75786266 67.2299882,13.4556246 C67.2299882,18.1533865 71.0690375,21.9924358 75.7667994,21.9924358 M75.7667994,-0.000335434626 C83.221834,-0.000335434626 89.1875388,6.00059003 89.1875388,13.4556246 C89.1875388,20.9106592 83.221834,26.8394662 75.7667994,26.8394662 C68.3117648,26.8394662 62.384635,20.9106592 62.384635,13.4556246 C62.384635,6.00059003 68.3117648,-0.000335434626 75.7667994,-0.000335434626"></path>
                            <path d="M93.0086423,1.0800995 C93.0086423,0.706089889 93.344077,0.370655262 93.7164094,0.370655262 L97.1831263,0.370655262 C97.5571359,0.370655262 97.8908933,0.706089889 97.8908933,1.0800995 L97.8908933,25.758025 C97.8908933,26.1320346 97.5571359,26.4674692 97.1831263,26.4674692 L93.7164094,26.4674692 C93.344077,26.4674692 93.0086423,26.1320346 93.0086423,25.758025 L93.0086423,1.0800995 Z"></path>
                            <path d="M103.243591,0.670701536 C103.243591,0.296691927 103.577349,-0.000167717313 103.951358,-0.000167717313 L104.509857,-0.000167717313 C104.771496,-0.000167717313 104.957662,0.0736279005 105.143829,0.259794118 L120.352435,16.4763811 L120.427907,16.4763811 L120.427907,1.07993178 C120.427907,0.705922171 120.726444,0.370487545 121.135674,0.370487545 L124.565493,0.370487545 C124.939503,0.370487545 125.274938,0.705922171 125.274938,1.07993178 L125.274938,26.1687647 C125.274938,26.5410971 124.939503,26.8396339 124.565493,26.8396339 L124.043893,26.8396339 C123.782254,26.8396339 123.597765,26.7658383 123.409921,26.5779949 L108.125842,9.72743645 L108.052047,9.72743645 L108.052047,25.7578572 C108.052047,26.1318669 107.751833,26.4673015 107.342603,26.4673015 L103.951358,26.4673015 C103.577349,26.4673015 103.243591,26.1318669 103.243591,25.7578572 L103.243591,0.670701536 Z"></path>
                            <path d="M134.589119,4.84568861 L128.88673,4.84568861 C128.475823,4.84568861 128.178963,4.51025399 128.178963,4.13624438 L128.178963,1.08043493 C128.178963,0.706425323 128.475823,0.370990697 128.88673,0.370990697 L145.175435,0.370990697 C145.58802,0.370990697 145.88488,0.706425323 145.88488,1.08043493 L145.88488,4.13624438 C145.88488,4.51025399 145.58802,4.84568861 145.175435,4.84568861 L139.473047,4.84568861 L139.473047,25.7583604 C139.473047,26.1306928 139.137612,26.4678046 138.76528,26.4678046 L135.298563,26.4678046 C134.924553,26.4678046 134.589119,26.1306928 134.589119,25.7583604 L134.589119,4.84568861 Z"></path>
                        </g>
                    </g>
                </g>
            </g>
        </g>
    </g>
</svg>
